<svg width="451" height="388" viewBox="0 0 451 388" fill="none" xmlns="http://www.w3.org/2000/svg">
<path d="M257.533 372.63C136.855 363.536 -7.05793 270.952 0.268733 175.622C7.5954 80.2925 146.977 -8.45331 267.655 0.643851C388.334 9.74101 457.8 187.893 450.473 283.22C443.146 378.547 378.211 381.723 257.533 372.63Z" fill="#FEF8F7"/>
<g clip-path="url(#clip0)">
<g opacity="0.5">
<path opacity="0.5" d="M284.955 44.0048L98.9658 129.385L216.186 388.007L402.176 302.626L284.955 44.0048Z" fill="url(#paint0_linear)"/>
</g>
<path d="M283.449 46.9963L102.192 130.205L216.822 383.11L398.079 299.902L283.449 46.9963Z" fill="white"/>
<path d="M234.992 61.17L145.073 102.448L155.009 124.369L244.928 83.0904L234.992 61.17Z" fill="url(#paint1_linear)"/>
<path d="M180.32 60.3859C173.38 63.5732 170.381 71.9548 173.623 79.1081C176.866 86.2614 185.123 89.4767 192.063 86.2895C199.004 83.1022 202.003 74.7206 198.76 67.5673C195.517 60.414 187.261 57.1987 180.32 60.3859ZM189.578 80.8101C188.118 81.5231 186.479 81.7819 184.872 81.5534C183.265 81.3249 181.762 80.6195 180.555 79.5273C179.348 78.4351 178.492 77.0056 178.096 75.4214C177.7 73.8372 177.782 72.1702 178.332 70.6333C178.882 69.0964 179.875 67.7593 181.183 66.7928C182.492 65.8262 184.057 65.2742 185.679 65.2071C187.301 65.1399 188.905 65.5608 190.288 66.4159C191.671 67.2711 192.77 68.5216 193.443 70.0079C193.895 70.9729 194.153 72.0178 194.203 73.0831C194.253 74.1484 194.094 75.2132 193.735 76.2167C193.376 77.2201 192.824 78.1426 192.111 78.9315C191.398 79.7203 190.537 80.36 189.578 80.8141V80.8101Z" fill="url(#paint2_linear)"/>
<path d="M234.05 61.6212L146.025 102.03L155.524 122.986L243.548 82.5774L234.05 61.6212Z" fill="#A22100"/>
<path d="M180.752 61.3413C178.318 62.4583 176.268 64.2766 174.86 66.5663C173.453 68.8561 172.752 71.5144 172.846 74.205C172.94 76.8957 173.825 79.4979 175.389 81.6825C176.952 83.8671 179.124 85.536 181.63 86.4781C184.137 87.4202 186.864 87.5933 189.468 86.9754C192.072 86.3575 194.435 84.9764 196.259 83.0067C198.083 81.0371 199.285 78.5673 199.714 75.9099C200.143 73.2524 199.78 70.5266 198.669 68.0771C197.181 64.7929 194.457 62.2383 191.097 60.9751C187.737 59.712 184.016 59.8437 180.752 61.3413ZM189.603 80.8703C188.199 81.5144 186.637 81.7252 185.114 81.4759C183.591 81.2266 182.176 80.5284 181.047 79.4697C179.919 78.4111 179.127 77.0393 178.773 75.528C178.419 74.0167 178.518 72.4336 179.058 70.979C179.598 69.5243 180.554 68.2634 181.806 67.3557C183.057 66.4479 184.549 65.9341 186.09 65.8791C187.632 65.8242 189.156 66.2306 190.468 67.0469C191.781 67.8633 192.823 69.053 193.464 70.4655C194.322 72.3601 194.398 74.5201 193.674 76.4706C192.95 78.421 191.485 80.0022 189.603 80.8663V80.8703Z" fill="#A22100"/>
<path d="M168.087 149.439L129.278 167.255L146.981 206.311L185.789 188.496L168.087 149.439Z" fill="url(#paint3_linear)"/>
<path d="M203.3 226.776L164.491 244.592L182.194 283.648L221.002 265.833L203.3 226.776Z" fill="url(#paint4_linear)"/>
<path d="M167.312 151.52L131.345 168.031L147.751 204.228L183.718 187.717L167.312 151.52Z" fill="#69F0AE"/>
<path d="M202.067 228.199L166.101 244.71L182.507 280.907L218.474 264.396L202.067 228.199Z" fill="#A22100"/>
<path d="M245.338 129.201L196.038 151.833L197.607 155.295L246.907 132.663L245.338 129.201Z" fill="#E0E0E0"/>
<path d="M279.797 119.657L198.396 157.025L199.965 160.488L281.367 123.119L279.797 119.657Z" fill="#E0E0E0"/>
<path d="M276.413 127.481L200.745 162.218L202.314 165.68L277.982 130.943L276.413 127.481Z" fill="#E0E0E0"/>
<path d="M280.097 205.883L230.797 228.515L232.366 231.977L281.666 209.345L280.097 205.883Z" fill="#E0E0E0"/>
<path d="M314.553 196.336L233.151 233.704L234.721 237.166L316.122 199.798L314.553 196.336Z" fill="#E0E0E0"/>
<path d="M311.171 204.164L235.503 238.9L237.072 242.362L312.74 207.626L311.171 204.164Z" fill="#E0E0E0"/>
<path d="M148.392 179.463L157.653 182.489L160.701 164.55L165.208 165.79L160.138 187.969L146.17 181.807L148.392 179.463Z" fill="url(#paint5_linear)"/>
<path d="M149.571 179.226L157.624 181.855L160.273 166.256L164.19 167.336L159.782 186.62L147.637 181.265L149.571 179.226Z" fill="white"/>
<path d="M184.545 256.383L192.598 259.012L195.247 243.413L199.163 244.493L194.756 263.777L182.61 258.422L184.545 256.383Z" fill="white"/>
<path d="M339.158 258.192L224.155 310.986L241.641 349.564L356.643 296.77L339.158 258.192Z" fill="#E0E0E0"/>
<path d="M322.486 288.938C318.066 287.669 313.543 287.91 312.135 292.996C311.661 294.71 311.605 297.372 309.778 298.255C307.09 299.555 303.847 296.954 301.513 295.894C297.166 293.919 292.702 295.264 290.185 299.415C288.909 301.518 288.363 303.939 287.928 306.335C287.74 307.375 287.716 308.659 287.282 309.639C286.448 311.513 283.839 311.345 282.128 311.273C281.753 311.273 281.37 311.228 280.987 311.188C282.34 309.313 283.016 307.028 282.902 304.713C282.79 300.912 280.337 296.753 276.049 297.219C272.208 297.62 269.504 301.354 269.935 305.131C270.302 308.342 272.38 310.831 275.044 312.356C273.736 312.939 272.34 313.392 271.103 313.994C270.526 314.276 269.965 314.591 269.424 314.938C265.687 313.123 260.777 312.782 257.414 314.633C255.787 315.528 256.975 318.189 258.611 317.286C261.172 315.877 263.996 316.23 266.672 317.125L266.895 317.206C266.631 317.547 266.397 317.911 266.197 318.293C264.686 321.248 266.197 325.92 269.875 326.242C275.06 326.687 275.304 319.791 272.488 317.045C272.368 316.929 272.248 316.816 272.121 316.708C273.285 316.142 274.546 315.716 275.659 315.239C276.628 314.825 277.551 314.309 278.411 313.697L278.61 313.749C282.571 314.653 288.753 314.934 290.177 310.105C291.398 305.914 291.514 297.014 298.095 297.837C300.779 298.17 302.981 300.246 305.534 300.996C307.819 301.683 310.464 301.711 312.339 300.017C313.886 298.62 314.233 296.557 314.708 294.63C314.951 293.634 315.191 292.446 315.996 291.736C317.452 290.455 319.857 291.21 321.481 291.675C323.256 292.181 324.285 289.452 322.486 288.938ZM271.032 322.894C270.158 323.765 269.233 323.074 268.766 322.163C268.2 321.055 268.443 319.963 269.165 318.988C269.283 318.829 269.409 318.676 269.544 318.53C271.271 319.654 272.683 321.264 271.048 322.894H271.032ZM274.095 301.217C275.89 299.539 278.391 299.908 279.46 302.213C280.529 304.517 280.058 307.768 278.558 309.799C278.36 310.066 278.139 310.316 277.9 310.546C276.855 310.194 275.889 309.639 275.056 308.912C272.934 306.985 271.734 303.425 274.111 301.205L274.095 301.217Z" fill="#A22100"/>
<path d="M346.406 132.999L314.209 145.631C308.155 145.178 295.415 143.524 282.77 137.523C268.694 130.843 252.568 130.859 238.895 137.856C207.384 138.615 190.041 134.552 180.787 130.707L183.228 125.665L150.593 112.859L69 76.0574V226.895L97.5551 239.7L112.872 202.721L146.508 218.376L152.966 201.862L175.052 218.356L176.555 219.629L174.485 221.793C172.587 223.81 171.529 226.483 171.529 229.261C171.529 232.039 172.587 234.712 174.485 236.729C175.404 237.707 176.511 238.485 177.738 239.017C178.966 239.549 180.288 239.823 181.625 239.823C182.962 239.823 184.284 239.549 185.512 239.017C186.739 238.485 187.846 237.707 188.765 236.729L187.632 237.934C185.734 239.951 184.676 242.624 184.676 245.402C184.676 248.18 185.734 250.853 187.632 252.87C188.55 253.848 189.657 254.626 190.885 255.158C192.113 255.69 193.435 255.964 194.772 255.964C196.108 255.964 197.431 255.69 198.658 255.158C199.886 254.626 200.993 253.848 201.911 252.87L208.453 246.026L203.962 250.723C202.064 252.74 201.006 255.413 201.006 258.191C201.006 260.969 202.064 263.642 203.962 265.66C204.88 266.637 205.987 267.415 207.215 267.947C208.442 268.479 209.765 268.753 211.101 268.753C212.438 268.753 213.761 268.479 214.988 267.947C216.216 267.415 217.323 266.637 218.241 265.66L224.699 258.904L221.983 261.746C220.656 263.155 219.916 265.023 219.916 266.964C219.916 268.906 220.656 270.773 221.983 272.183C222.624 272.865 223.397 273.408 224.254 273.78C225.112 274.151 226.035 274.343 226.968 274.343C227.902 274.343 228.825 274.151 229.683 273.78C230.54 273.408 231.313 272.865 231.954 272.183L236.262 267.679C243.661 273.118 249.648 277.088 252.58 278.116C264.797 282.379 264.797 273.84 264.797 273.84C281.115 282.375 289.276 265.306 289.276 265.306C309.674 273.84 309.674 252.501 309.674 252.501C314.772 256.058 318.449 254.428 321.018 251.297C324.516 247.05 324.943 241.057 322.542 236.248L342.039 218.116L350.471 235.465L384.107 219.81L399.424 253.982L421.98 243.846V94.5869L346.406 132.999Z" fill="url(#paint6_linear)"/>
<path d="M340.989 211.986L305.482 243.746L277.868 192.132L340.989 176.251V211.986Z" fill="#D38E6E"/>
<path d="M171.351 128.607C171.351 128.607 182.746 144.487 250.251 140.517L289.703 200.072L316.14 230.005C320.293 234.71 320.528 241.843 316.452 246.612C313.975 249.506 310.413 251.028 305.483 247.716C305.483 247.716 305.483 267.566 285.758 259.626C285.758 259.626 277.869 275.506 262.09 267.566C262.09 267.566 262.09 275.506 250.255 271.536C238.421 267.566 175.295 215.956 175.295 215.956L147.682 196.106L171.351 128.607Z" fill="#FDA57D"/>
<path d="M313.372 148.461C313.372 148.461 296.325 148.461 279.469 140.758C264.14 133.761 246.291 134.653 232.147 143.837C220.619 151.323 210.632 163.719 210.819 184.192C210.819 184.192 226.16 200.072 242.378 168.311H254.212C254.212 168.311 265.608 208.016 297.609 204.038C329.61 200.06 337.061 196.098 337.061 196.098L313.372 148.461Z" fill="#D38E6E"/>
<path d="M209.801 226.857L208.52 225.568C205.06 222.086 199.451 222.086 195.992 225.568L186.822 234.796C183.363 238.278 183.363 243.923 186.822 247.404L188.103 248.693C191.563 252.175 197.172 252.175 200.631 248.693L209.801 239.465C213.26 235.984 213.26 230.339 209.801 226.857Z" fill="#D38E6E"/>
<path d="M197.086 211.859L195.805 210.57C192.346 207.088 186.736 207.088 183.277 210.57L174.108 219.798C170.648 223.279 170.648 228.924 174.108 232.406L175.388 233.695C178.848 237.177 184.457 237.177 187.916 233.695L197.086 224.467C200.545 220.985 200.545 215.34 197.086 211.859Z" fill="#D38E6E"/>
<path d="M227.552 236.779L226.271 235.491C222.811 232.009 217.202 232.009 213.743 235.491L202.602 246.702C199.142 250.184 199.142 255.829 202.602 259.311L203.882 260.6C207.342 264.081 212.951 264.081 216.411 260.6L227.552 249.388C231.011 245.906 231.011 240.261 227.552 236.779Z" fill="#D38E6E"/>
<path d="M236.894 250.593L236 249.693C233.584 247.262 229.666 247.262 227.25 249.693L220.219 256.77C217.803 259.201 217.803 263.143 220.219 265.574L221.113 266.474C223.529 268.906 227.446 268.906 229.862 266.474L236.894 259.398C239.31 256.967 239.31 253.024 236.894 250.593Z" fill="#D38E6E"/>
<path d="M380.438 219.926L344.934 235.806L309.427 148.461L340.989 136.551L380.438 219.926Z" fill="white"/>
<path d="M112.178 200.076L147.681 215.956L183.189 128.611L151.626 116.697L112.178 200.076Z" fill="white"/>
<path d="M72.7256 80.9668L151.626 116.697L100.343 235.806L72.7256 223.896V80.9668Z" fill="#333333"/>
<path d="M419.89 100.817L340.989 136.551L392.276 255.656L419.89 243.746V100.817Z" fill="#3E4D66"/>
</g>
<defs>
<linearGradient id="paint0_linear" x1="309.183" y1="345.316" x2="190.721" y2="87.2642" gradientUnits="userSpaceOnUse">
<stop stop-color="#808080" stop-opacity="0.25"/>
<stop offset="0.54" stop-color="#808080" stop-opacity="0.12"/>
<stop offset="1" stop-color="#808080" stop-opacity="0.1"/>
</linearGradient>
<linearGradient id="paint1_linear" x1="56808.5" y1="-21861.9" x2="56205.9" y2="-23174.7" gradientUnits="userSpaceOnUse">
<stop stop-color="#808080" stop-opacity="0.25"/>
<stop offset="0.54" stop-color="#808080" stop-opacity="0.12"/>
<stop offset="1" stop-color="#808080" stop-opacity="0.1"/>
</linearGradient>
<linearGradient id="paint2_linear" x1="16836.6" y1="-4308.19" x2="15998.1" y2="-6134.94" gradientUnits="userSpaceOnUse">
<stop stop-color="#808080" stop-opacity="0.25"/>
<stop offset="0.54" stop-color="#808080" stop-opacity="0.12"/>
<stop offset="1" stop-color="#808080" stop-opacity="0.1"/>
</linearGradient>
<linearGradient id="paint3_linear" x1="23050.6" y1="5243.55" x2="21137.7" y2="1076.45" gradientUnits="userSpaceOnUse">
<stop stop-color="#808080" stop-opacity="0.25"/>
<stop offset="0.54" stop-color="#808080" stop-opacity="0.12"/>
<stop offset="1" stop-color="#808080" stop-opacity="0.1"/>
</linearGradient>
<linearGradient id="paint4_linear" x1="26880" y1="13569.6" x2="24966.9" y2="9402.11" gradientUnits="userSpaceOnUse">
<stop stop-color="#808080" stop-opacity="0.25"/>
<stop offset="0.54" stop-color="#808080" stop-opacity="0.12"/>
<stop offset="1" stop-color="#808080" stop-opacity="0.1"/>
</linearGradient>
<linearGradient id="paint5_linear" x1="10616.6" y1="3160.55" x2="10104.3" y2="2044.62" gradientUnits="userSpaceOnUse">
<stop stop-color="#808080" stop-opacity="0.25"/>
<stop offset="0.54" stop-color="#808080" stop-opacity="0.12"/>
<stop offset="1" stop-color="#808080" stop-opacity="0.1"/>
</linearGradient>
<linearGradient id="paint6_linear" x1="211723" y1="123470" x2="211723" y2="20559.7" gradientUnits="userSpaceOnUse">
<stop stop-color="#808080" stop-opacity="0.25"/>
<stop offset="0.54" stop-color="#808080" stop-opacity="0.12"/>
<stop offset="1" stop-color="#808080" stop-opacity="0.1"/>
</linearGradient>
<clipPath id="clip0">
<rect width="353" height="344" fill="white" transform="translate(69 44)"/>
</clipPath>
</defs>
</svg>
