<svg width="473" height="338" viewBox="0 0 473 338" fill="none" xmlns="http://www.w3.org/2000/svg">
<path d="M222.491 324.421C118.234 316.505 -6.09758 235.91 0.232168 152.925C6.56192 69.9391 126.978 -7.31485 231.236 0.604301C335.494 8.52345 395.508 163.606 389.179 246.589C382.849 329.572 326.749 332.337 222.491 324.421Z" fill="#FEF8F7"/>
<path d="M231.236 337.75C351.432 337.75 448.871 331.795 448.871 324.448C448.871 317.101 351.432 311.145 231.236 311.145C111.04 311.145 13.6016 317.101 13.6016 324.448C13.6016 331.795 111.04 337.75 231.236 337.75Z" fill="#3F3D56"/>
<path opacity="0.1" d="M231.235 333.029C333.616 333.029 416.611 329.091 416.611 324.233C416.611 319.374 333.616 315.436 231.235 315.436C128.855 315.436 45.8594 319.374 45.8594 324.233C45.8594 329.091 128.855 333.029 231.235 333.029Z" fill="black"/>
<g filter="url(#filter0_d)">
<path d="M395.968 69.5571H72.5264V322.731H395.968V69.5571Z" fill="white"/>
</g>
<path d="M188.654 129.586H116.56V152.116H188.654V129.586Z" fill="#A32100"/>
<path d="M220.196 109.31H94.0303V184.784H220.196V109.31Z" stroke="#3F3D56" stroke-miterlimit="10"/>
<path d="M94.0303 114.942H220.196" stroke="#3F3D56" stroke-miterlimit="10"/>
<path d="M98.5357 113.816C99.1578 113.816 99.6621 113.311 99.6621 112.689C99.6621 112.067 99.1578 111.563 98.5357 111.563C97.9135 111.563 97.4092 112.067 97.4092 112.689C97.4092 113.311 97.9135 113.816 98.5357 113.816Z" stroke="#3F3D56" stroke-miterlimit="10"/>
<path d="M101.916 113.816C102.538 113.816 103.042 113.311 103.042 112.689C103.042 112.067 102.538 111.563 101.916 111.563C101.293 111.563 100.789 112.067 100.789 112.689C100.789 113.311 101.293 113.816 101.916 113.816Z" stroke="#3F3D56" stroke-miterlimit="10"/>
<path d="M104.732 113.816C105.043 113.816 105.295 113.311 105.295 112.689C105.295 112.067 105.043 111.563 104.732 111.563C104.421 111.563 104.169 112.067 104.169 112.689C104.169 113.311 104.421 113.816 104.732 113.816Z" stroke="#3F3D56" stroke-miterlimit="10"/>
<path d="M193.16 125.08H121.065V147.61H193.16V125.08Z" stroke="#3F3D56" stroke-miterlimit="10"/>
<path d="M204.426 160.001H108.675V163.381H204.426V160.001Z" stroke="#3F3D56" stroke-miterlimit="10"/>
<path d="M204.426 170.76H108.675V174.139H204.426V170.76Z" stroke="#3F3D56" stroke-miterlimit="10"/>
<path d="M81.1284 79.8545C83.266 79.8545 84.9989 78.1256 84.9989 75.9929C84.9989 73.8602 83.266 72.1313 81.1284 72.1313C78.9907 72.1313 77.2578 73.8602 77.2578 75.9929C77.2578 78.1256 78.9907 79.8545 81.1284 79.8545Z" fill="#A32100"/>
<path d="M91.4497 79.8545C93.5873 79.8545 95.3202 78.1256 95.3202 75.9929C95.3202 73.8602 93.5873 72.1313 91.4497 72.1313C89.312 72.1313 87.5791 73.8602 87.5791 75.9929C87.5791 78.1256 89.312 79.8545 91.4497 79.8545Z" fill="#A32100"/>
<path d="M101.773 79.8545C103.911 79.8545 105.643 78.1256 105.643 75.9929C105.643 73.8602 103.911 72.1313 101.773 72.1313C99.6353 72.1313 97.9023 73.8602 97.9023 75.9929C97.9023 78.1256 99.6353 79.8545 101.773 79.8545Z" fill="#A32100"/>
<path opacity="0.1" d="M395.968 82.4292H72.5264V83.7168H395.968V82.4292Z" fill="black"/>
<path d="M472.528 260.704C472.528 288.069 456.223 297.624 436.108 297.624C415.993 297.624 399.688 288.069 399.688 260.704C399.688 233.34 436.108 198.523 436.108 198.523C436.108 198.523 472.528 233.34 472.528 260.704Z" fill="#FEF8F7"/>
<path d="M434.779 293.439L435.152 270.536L450.675 242.203L435.206 266.943L435.374 256.646L446.073 236.144L435.418 253.917L435.72 235.397L447.176 219.077L435.772 232.483L435.96 198.523L434.776 243.48L434.873 241.626L423.225 223.839L434.686 245.186L433.6 265.87L433.568 265.321L420.142 246.609L433.528 267.266L433.393 269.857L433.368 269.896L433.379 270.109L430.625 322.587H434.304L434.745 295.481L448.1 274.873L434.779 293.439Z" fill="#3F3D56"/>
<path d="M259.259 225.847C265.161 225.847 269.946 221.059 269.946 215.153C269.946 209.246 265.161 204.458 259.259 204.458C253.357 204.458 248.572 209.246 248.572 215.153C248.572 221.059 253.357 225.847 259.259 225.847Z" fill="#A32100"/>
<path d="M302.363 225.847C308.265 225.847 313.049 221.059 313.049 215.153C313.049 209.246 308.265 204.458 302.363 204.458C296.46 204.458 291.676 209.246 291.676 215.153C291.676 221.059 296.46 225.847 302.363 225.847Z" fill="#A32100"/>
<path d="M345.466 225.847C351.368 225.847 356.153 221.059 356.153 215.153C356.153 209.246 351.368 204.458 345.466 204.458C339.564 204.458 334.779 209.246 334.779 215.153C334.779 221.059 339.564 225.847 345.466 225.847Z" fill="#A32100"/>
<path d="M243.586 186.634C244.176 186.634 244.655 186.155 244.655 185.565C244.655 184.974 244.176 184.495 243.586 184.495C242.996 184.495 242.518 184.974 242.518 185.565C242.518 186.155 242.996 186.634 243.586 186.634Z" fill="#F86B75"/>
<path d="M246.791 186.634C247.382 186.634 247.86 186.155 247.86 185.565C247.86 184.974 247.382 184.495 246.791 184.495C246.201 184.495 245.723 184.974 245.723 185.565C245.723 186.155 246.201 186.634 246.791 186.634Z" fill="#FAD375"/>
<path d="M249.998 186.634C250.589 186.634 251.067 186.155 251.067 185.565C251.067 184.974 250.589 184.495 249.998 184.495C249.408 184.495 248.93 184.974 248.93 185.565C248.93 186.155 249.408 186.634 249.998 186.634Z" fill="#8BCC55"/>
<path d="M368.977 182H239.312V259H368.977V182Z" stroke="#3F3D56" stroke-miterlimit="10"/>
<path d="M239.312 187.831H368.977" stroke="#3F3D56" stroke-miterlimit="10"/>
<path d="M243.942 185.921C244.532 185.921 245.01 185.442 245.01 184.852C245.01 184.261 244.532 183.782 243.942 183.782C243.352 183.782 242.873 184.261 242.873 184.852C242.873 185.442 243.352 185.921 243.942 185.921Z" stroke="#3F3D56" stroke-miterlimit="10"/>
<path d="M247.149 185.921C247.739 185.921 248.217 185.442 248.217 184.852C248.217 184.261 247.739 183.782 247.149 183.782C246.559 183.782 246.08 184.261 246.08 184.852C246.08 185.442 246.559 185.921 247.149 185.921Z" stroke="#3F3D56" stroke-miterlimit="10"/>
<path d="M250.354 185.921C250.944 185.921 251.423 185.442 251.423 184.852C251.423 184.261 250.944 183.782 250.354 183.782C249.764 183.782 249.285 184.261 249.285 184.852C249.285 185.442 249.764 185.921 250.354 185.921Z" stroke="#3F3D56" stroke-miterlimit="10"/>
<path d="M261.041 224.065C266.943 224.065 271.728 219.277 271.728 213.37C271.728 207.464 266.943 202.676 261.041 202.676C255.139 202.676 250.354 207.464 250.354 213.37C250.354 219.277 255.139 224.065 261.041 224.065Z" stroke="#3F3D56" stroke-miterlimit="10"/>
<path d="M304.144 224.065C310.046 224.065 314.831 219.277 314.831 213.37C314.831 207.464 310.046 202.676 304.144 202.676C298.242 202.676 293.457 207.464 293.457 213.37C293.457 219.277 298.242 224.065 304.144 224.065Z" stroke="#3F3D56" stroke-miterlimit="10"/>
<path d="M347.247 224.065C353.149 224.065 357.934 219.277 357.934 213.37C357.934 207.464 353.149 202.676 347.247 202.676C341.345 202.676 336.561 207.464 336.561 213.37C336.561 219.277 341.345 224.065 347.247 224.065Z" stroke="#3F3D56" stroke-miterlimit="10"/>
<path d="M274.042 233.155H244.832V236.007H274.042V233.155Z" fill="#F2F2F2"/>
<path d="M317.501 233.155H288.291V236.007H317.501V233.155Z" fill="#F2F2F2"/>
<path d="M360.961 233.155H331.751V236.007H360.961V233.155Z" fill="#F2F2F2"/>
<path d="M275.467 232.086H246.257V234.937H275.467V232.086Z" stroke="#3F3D56" stroke-miterlimit="10"/>
<path d="M318.928 232.086H289.718V234.937H318.928V232.086Z" stroke="#3F3D56" stroke-miterlimit="10"/>
<path d="M362.386 232.086H333.176V234.937H362.386V232.086Z" stroke="#3F3D56" stroke-miterlimit="10"/>
<path d="M150.777 268.352C155.343 268.352 159.045 264.648 159.045 260.079C159.045 255.509 155.343 251.805 150.777 251.805C146.211 251.805 142.51 255.509 142.51 260.079C142.51 264.648 146.211 268.352 150.777 268.352Z" fill="#A32100"/>
<path d="M105.307 238.016C105.764 238.016 106.134 237.646 106.134 237.189C106.134 236.732 105.764 236.361 105.307 236.361C104.851 236.361 104.48 236.732 104.48 237.189C104.48 237.646 104.851 238.016 105.307 238.016Z" fill="#F86B75"/>
<path d="M107.787 238.016C108.243 238.016 108.613 237.646 108.613 237.189C108.613 236.732 108.243 236.361 107.787 236.361C107.33 236.361 106.96 236.732 106.96 237.189C106.96 237.646 107.33 238.016 107.787 238.016Z" fill="#FAD375"/>
<path d="M110.267 238.016C110.724 238.016 111.094 237.646 111.094 237.189C111.094 236.732 110.724 236.361 110.267 236.361C109.811 236.361 109.44 236.732 109.44 237.189C109.44 237.646 109.811 238.016 110.267 238.016Z" fill="#8BCC55"/>
<path d="M202.312 234.431H102V294H202.312V234.431Z" stroke="#3F3D56" stroke-miterlimit="10"/>
<path d="M102 238.942H202.312" stroke="#3F3D56" stroke-miterlimit="10"/>
<path d="M105.582 237.465C106.038 237.465 106.408 237.094 106.408 236.637C106.408 236.18 106.038 235.81 105.582 235.81C105.125 235.81 104.755 236.18 104.755 236.637C104.755 237.094 105.125 237.465 105.582 237.465Z" stroke="#3F3D56" stroke-miterlimit="10"/>
<path d="M108.063 237.465C108.52 237.465 108.89 237.094 108.89 236.637C108.89 236.18 108.52 235.81 108.063 235.81C107.606 235.81 107.236 236.18 107.236 236.637C107.236 237.094 107.606 237.465 108.063 237.465Z" stroke="#3F3D56" stroke-miterlimit="10"/>
<path d="M110.543 237.465C110.999 237.465 111.369 237.094 111.369 236.637C111.369 236.18 110.999 235.81 110.543 235.81C110.086 235.81 109.716 236.18 109.716 236.637C109.716 237.094 110.086 237.465 110.543 237.465Z" stroke="#3F3D56" stroke-miterlimit="10"/>
<path d="M152.155 266.973C156.721 266.973 160.423 263.269 160.423 258.7C160.423 254.131 156.721 250.426 152.155 250.426C147.589 250.426 143.888 254.131 143.888 258.7C143.888 263.269 147.589 266.973 152.155 266.973Z" stroke="#3F3D56" stroke-miterlimit="10"/>
<path d="M162.489 274.006H139.892V276.212H162.489V274.006Z" fill="#F2F2F2"/>
<path d="M163.592 273.178H140.994V275.385H163.592V273.178Z" stroke="#3F3D56" stroke-miterlimit="10"/>
<path d="M176.5 184V213M176.5 213H238.5M176.5 213H145.5V234" stroke="#A32100"/>
<defs>
<filter id="filter0_d" x="64.5264" y="65.5571" width="339.442" height="269.174" filterUnits="userSpaceOnUse" color-interpolation-filters="sRGB">
<feFlood flood-opacity="0" result="BackgroundImageFix"/>
<feColorMatrix in="SourceAlpha" type="matrix" values="0 0 0 0 0 0 0 0 0 0 0 0 0 0 0 0 0 0 127 0"/>
<feOffset dy="4"/>
<feGaussianBlur stdDeviation="4"/>
<feColorMatrix type="matrix" values="0 0 0 0 0 0 0 0 0 0 0 0 0 0 0 0 0 0 0.1 0"/>
<feBlend mode="normal" in2="BackgroundImageFix" result="effect1_dropShadow"/>
<feBlend mode="normal" in="SourceGraphic" in2="effect1_dropShadow" result="shape"/>
</filter>
</defs>
</svg>
