<svg width="426" height="314" viewBox="0 0 426 314" fill="none" xmlns="http://www.w3.org/2000/svg">
<path opacity="0.1" d="M242.569 44.0346C216.657 43.1492 191.979 34.8877 168.413 25.8514C144.848 16.8152 121.507 6.79069 96.2156 2.01957C79.9488 -1.06367 61.3439 -1.49848 48.2399 7.11482C35.6324 15.4 31.5487 29.7173 29.3587 42.9753C27.7092 52.9602 26.7404 63.4709 31.2565 72.8195C34.3953 79.3101 39.9604 84.765 43.8119 90.979C57.2121 112.613 47.7395 139.287 33.2222 160.407C26.4161 170.313 18.5089 179.776 13.2521 190.311C7.99528 200.845 5.56507 212.941 10.1653 223.701C14.7214 234.373 25.5833 242.374 37.35 248.007C61.2478 259.45 89.3974 262.723 116.866 264.581C177.654 268.684 238.761 266.909 299.709 265.127C322.265 264.47 344.918 263.802 367.106 260.359C379.429 258.446 392.149 255.41 401.097 248.082C412.452 238.781 415.266 223.033 407.655 211.368C394.892 191.805 359.611 186.947 350.679 165.953C345.771 154.395 350.811 141.524 357.95 130.808C373.26 107.814 398.919 87.6427 400.268 61.364C401.197 43.3152 388.862 25.2387 369.789 16.6966C349.798 7.74333 322.073 8.8699 307.332 23.6853C292.138 38.9473 265.442 44.8213 242.569 44.0346Z" fill="#A32100"/>
<path d="M103.899 48.8097H0V151.391H103.899V48.8097Z" fill="#F2DFDA"/>
<path d="M425.187 48.8097H321.288V151.391H425.187V48.8097Z" fill="#F2DFDA"/>
<path opacity="0.5" d="M58.2095 12.6605L57.1726 11.613C57.152 11.5902 57.1267 11.5721 57.0983 11.5598C57.07 11.5476 57.0394 11.5414 57.0084 11.5418C56.9774 11.5409 56.9466 11.5468 56.9182 11.5591C56.8898 11.5714 56.8646 11.5898 56.8443 11.613L49.6778 18.7282L47.0674 16.1549C47.0464 16.1326 47.021 16.1148 46.9928 16.1027C46.9645 16.0905 46.934 16.0843 46.9032 16.0843C46.8724 16.0843 46.842 16.0905 46.8137 16.1027C46.7855 16.1148 46.7601 16.1326 46.7391 16.1549L45.6941 17.1866C45.6714 17.208 45.6532 17.2337 45.6408 17.2623C45.6285 17.2908 45.6221 17.3215 45.6221 17.3526C45.6221 17.3836 45.6285 17.4143 45.6408 17.4429C45.6532 17.4714 45.6714 17.4972 45.6941 17.5186L48.9851 20.7639C49.1618 20.9571 49.4069 21.0759 49.6698 21.0959C49.9294 21.0735 50.1723 20.9599 50.3544 20.7758L58.2135 12.9926C58.2549 12.9469 58.2778 12.8878 58.2778 12.8265C58.2778 12.7653 58.2549 12.7062 58.2135 12.6605H58.2095Z" fill="#A32100" fill-opacity="0.5"/>
<path opacity="0.5" d="M51.9468 5.88086C54.3908 5.88259 56.7587 6.72085 58.647 8.25285C60.5354 9.78485 61.8274 11.9158 62.3029 14.2828C62.7784 16.6498 62.4081 19.1063 61.2551 21.2339C60.102 23.3616 58.2375 25.0287 55.9791 25.9514C53.7208 26.8741 51.2083 26.9952 48.8696 26.2942C46.531 25.5931 44.5108 24.1132 43.1533 22.1066C41.7958 20.1 41.1848 17.6908 41.4245 15.2893C41.6642 12.8879 42.7398 10.6428 44.468 8.93643C45.4481 7.96434 46.6138 7.19378 47.8975 6.6693C49.1812 6.14482 50.5575 5.87684 51.9468 5.88086ZM51.9468 4.25623C49.5291 4.25623 47.1657 4.96411 45.1555 6.29035C43.1454 7.61659 41.5787 9.5016 40.6537 11.707C39.7287 13.9124 39.4868 16.3391 39.9588 18.6802C40.4308 21.0213 41.5953 23.1716 43.3051 24.8592C45.015 26.5468 47.1933 27.6959 49.5646 28.1611C51.9359 28.6263 54.3937 28.3867 56.6271 27.4727C58.8606 26.5587 60.7693 25.0113 62.1119 23.0262C63.4545 21.041 64.1707 18.7074 64.1699 16.3204C64.1704 14.7356 63.8546 13.1663 63.2405 11.7021C62.6263 10.2379 61.7259 8.9076 60.5908 7.78718C59.4556 6.66677 58.1079 5.77823 56.6247 5.17236C55.1415 4.5665 53.5519 4.25519 51.9468 4.25623Z" fill="#A32100" fill-opacity="0.5"/>
<path opacity="0.8" d="M138.454 46.3901L137.149 45.0699C137.123 45.042 137.091 45.0198 137.056 45.0049C137.021 44.9899 136.983 44.9824 136.944 44.9829C136.905 44.9813 136.866 44.9882 136.83 45.0033C136.794 45.0183 136.762 45.0411 136.736 45.0699L127.716 54.0429L124.429 50.8015C124.403 50.774 124.371 50.7521 124.336 50.7372C124.301 50.7222 124.263 50.7145 124.225 50.7146C124.186 50.7145 124.147 50.7221 124.112 50.737C124.076 50.752 124.044 50.7739 124.017 50.8015L122.699 52.102C122.671 52.1286 122.648 52.1608 122.632 52.1965C122.616 52.2322 122.608 52.2706 122.608 52.3095C122.608 52.3484 122.616 52.3869 122.632 52.4226C122.648 52.4583 122.671 52.4904 122.699 52.5171L126.839 56.5964C127.063 56.839 127.372 56.9876 127.704 57.0115C128.028 56.984 128.332 56.844 128.561 56.6162L138.45 46.7973C138.496 46.7415 138.521 46.6717 138.521 46.5996C138.521 46.5276 138.496 46.4578 138.45 46.402L138.454 46.3901Z" fill="#A32100" fill-opacity="0.75"/>
<path opacity="0.8" d="M130.567 37.8522C133.646 37.8529 136.631 38.9078 139.011 40.8372C141.391 42.7666 143.02 45.4511 143.62 48.4334C144.221 51.4156 143.755 54.5112 142.303 57.1926C140.851 59.874 138.502 61.9754 135.657 63.1388C132.812 64.3021 129.646 64.4555 126.699 63.5727C123.752 62.6899 121.206 60.8256 119.495 58.2974C117.784 55.7692 117.014 52.7335 117.316 49.7075C117.617 46.6815 118.973 43.8525 121.15 41.7023C122.383 40.477 123.851 39.5056 125.467 38.8447C127.084 38.1838 128.817 37.8464 130.567 37.8522ZM130.567 35.8086C127.524 35.8086 124.549 36.6995 122.019 38.3687C119.488 40.0379 117.516 42.4104 116.352 45.1862C115.187 47.9619 114.883 51.0163 115.476 53.9631C116.07 56.9098 117.535 59.6166 119.687 61.7411C121.839 63.8655 124.58 65.3123 127.565 65.8985C130.55 66.4846 133.643 66.1838 136.455 65.034C139.266 63.8843 141.669 61.9372 143.36 59.4391C145.05 56.941 145.953 54.0039 145.953 50.9995C145.953 49.0044 145.556 47.0288 144.783 45.1856C144.01 43.3423 142.876 41.6674 141.447 40.2567C140.019 38.846 138.322 37.7271 136.455 36.9639C134.588 36.2006 132.587 35.8081 130.567 35.8086Z" fill="#A32100" fill-opacity="0.75"/>
<path opacity="0.5" d="M373.236 5.88086C375.68 5.88259 378.048 6.72085 379.936 8.25285C381.824 9.78485 383.116 11.9158 383.592 14.2828C384.067 16.6498 383.697 19.1063 382.544 21.2339C381.391 23.3616 379.527 25.0287 377.268 25.9514C375.01 26.8741 372.497 26.9952 370.159 26.2942C367.82 25.5931 365.8 24.1132 364.442 22.1066C363.085 20.1 362.474 17.6908 362.714 15.2893C362.953 12.8879 364.029 10.6428 365.757 8.93643C366.737 7.96434 367.903 7.19378 369.187 6.6693C370.47 6.14482 371.847 5.87684 373.236 5.88086ZM373.236 4.25623C370.818 4.25623 368.455 4.96411 366.445 6.29035C364.434 7.61659 362.868 9.5016 361.943 11.707C361.018 13.9124 360.776 16.3391 361.248 18.6802C361.72 21.0213 362.884 23.1716 364.594 24.8592C366.304 26.5468 368.482 27.6959 370.854 28.1611C373.225 28.6263 375.683 28.3867 377.916 27.4727C380.15 26.5587 382.058 25.0113 383.401 23.0262C384.744 21.041 385.46 18.7074 385.459 16.3204C385.459 14.7356 385.144 13.1663 384.529 11.7021C383.915 10.2379 383.015 8.9076 381.88 7.78718C380.745 6.66677 379.397 5.77823 377.914 5.17236C376.431 4.5665 374.841 4.25519 373.236 4.25623Z" fill="#A32100" fill-opacity="0.5"/>
<path opacity="0.8" d="M294.055 37.8522C297.136 37.8483 300.123 38.8994 302.506 40.8262C304.889 42.753 306.522 45.4364 307.126 48.4188C307.73 51.4013 307.268 54.4982 305.818 57.1817C304.368 59.8652 302.02 61.9692 299.175 63.135C296.33 64.3008 293.163 64.4562 290.215 63.5748C287.266 62.6935 284.719 60.8298 283.007 58.3015C281.294 55.7732 280.523 52.7369 280.824 49.71C281.126 46.6831 282.481 43.8531 284.659 41.7023C285.893 40.478 287.36 39.5074 288.977 38.8465C290.593 38.1857 292.326 37.8477 294.075 37.8522H294.055ZM294.075 35.8086C291.032 35.8086 288.058 36.6995 285.527 38.3687C282.997 40.0379 281.025 42.4104 279.861 45.1862C278.696 47.962 278.391 51.0163 278.985 53.9631C279.579 56.9098 281.044 59.6166 283.196 61.7411C285.348 63.8656 288.089 65.3123 291.074 65.8985C294.058 66.4846 297.152 66.1838 299.963 65.034C302.775 63.8843 305.178 61.9372 306.868 59.4391C308.559 56.941 309.461 54.004 309.461 50.9995C309.462 49.0028 309.064 47.0256 308.289 45.181C307.515 43.3364 306.38 41.6607 304.949 40.2498C303.518 38.8388 301.819 37.7203 299.95 36.9582C298.081 36.1961 296.078 35.8055 294.055 35.8086H294.075Z" fill="#A32100" fill-opacity="0.75"/>
<path d="M211.925 61.9568C215.994 61.9595 219.937 63.3551 223.081 65.9058C226.225 68.4566 228.377 72.0047 229.168 75.9457C229.96 79.8868 229.344 83.9771 227.424 87.5197C225.504 91.0624 222.4 93.8384 218.64 95.3747C214.879 96.9111 210.696 97.1128 206.802 95.9455C202.908 94.7782 199.544 92.3142 197.284 88.9731C195.024 85.632 194.006 81.6205 194.406 77.622C194.805 73.6235 196.596 69.8853 199.473 67.0442C201.105 65.4251 203.045 64.1418 205.183 63.2685C207.32 62.3953 209.611 61.9494 211.925 61.9568ZM211.925 59.2531C207.901 59.2531 203.968 60.431 200.623 62.6379C197.278 64.8448 194.67 67.9816 193.131 71.6516C191.591 75.3215 191.188 79.3599 191.973 83.2559C192.758 87.1519 194.695 90.7306 197.54 93.5395C200.385 96.3484 204.01 98.2612 207.956 99.0362C211.902 99.8112 215.992 99.4134 219.709 97.8933C223.426 96.3731 226.603 93.7988 228.839 90.496C231.074 87.1931 232.267 83.3099 232.267 79.3376C232.268 76.6999 231.742 74.088 230.72 71.651C229.698 69.214 228.199 66.9996 226.31 65.1345C224.421 63.2694 222.178 61.79 219.71 60.7808C217.242 59.7717 214.596 59.2525 211.925 59.2531Z" fill="#A32100"/>
<path d="M188.46 75.697H72.6748V190.014H188.46V75.697Z" fill="#EED5CE"/>
<path d="M351.948 75.697H236.163V190.014H351.948V75.697Z" fill="#EED5CE"/>
<path opacity="0.1" d="M49.001 67.0211H10.3818V71.2586H49.001V67.0211Z" fill="black"/>
<path opacity="0.1" d="M378.605 67.0211H339.985V71.2586H378.605V67.0211Z" fill="black"/>
<path d="M280.731 244.449C280.731 244.449 290.765 226.902 305.874 221.847C312.225 219.766 317.721 215.708 321.537 210.281C323.326 207.686 324.873 204.935 326.157 202.063" stroke="#535461" stroke-width="2" stroke-miterlimit="10"/>
<path d="M335.658 198.833C333.936 200.481 325.917 202.189 325.917 202.189C325.917 202.189 327.887 194.326 329.608 192.674C330.436 191.882 331.547 191.447 332.7 191.464C333.852 191.482 334.95 191.95 335.752 192.767C336.554 193.584 336.995 194.682 336.977 195.819C336.96 196.957 336.485 198.041 335.658 198.833Z" fill="#A32100"/>
<path d="M331.121 213.055C328.767 213.518 321.112 210.648 321.112 210.648C321.112 210.648 327.09 205.114 329.444 204.644C330.562 204.451 331.712 204.697 332.648 205.331C333.584 205.965 334.232 206.935 334.453 208.034C334.674 209.133 334.45 210.274 333.83 211.213C333.209 212.151 332.241 212.812 331.133 213.055H331.121Z" fill="#A32100"/>
<path d="M314.606 228.452C312.34 227.661 307.188 221.376 307.188 221.376C307.188 221.376 315.195 219.57 317.449 220.344C317.988 220.529 318.485 220.816 318.912 221.19C319.339 221.564 319.686 222.017 319.936 222.524C320.185 223.031 320.331 223.581 320.365 224.143C320.399 224.706 320.32 225.269 320.133 225.801C319.947 226.334 319.656 226.825 319.277 227.246C318.898 227.667 318.439 228.011 317.926 228.257C317.412 228.503 316.855 228.647 316.286 228.68C315.716 228.714 315.145 228.636 314.606 228.452Z" fill="#A32100"/>
<path d="M299.472 237.319C297.102 236.923 290.944 231.583 290.944 231.583C290.944 231.583 298.519 228.472 300.885 228.855C301.452 228.942 301.996 229.139 302.486 229.435C302.975 229.731 303.401 230.119 303.737 230.578C304.074 231.037 304.315 231.558 304.447 232.109C304.578 232.66 304.598 233.232 304.505 233.791C304.411 234.35 304.207 234.886 303.903 235.366C303.599 235.847 303.201 236.263 302.733 236.591C302.265 236.919 301.736 237.152 301.176 237.277C300.617 237.402 300.037 237.416 299.472 237.319Z" fill="#A32100"/>
<path d="M314.414 204.506C314.414 206.877 318.754 213.743 318.754 213.743C318.754 213.743 323.094 206.877 323.094 204.51C323.094 203.372 322.637 202.281 321.822 201.477C321.007 200.673 319.902 200.221 318.75 200.221C317.598 200.221 316.493 200.673 315.679 201.477C314.864 202.281 314.406 203.372 314.406 204.51L314.414 204.506Z" fill="#A32100"/>
<path d="M296.826 215.107C297.543 217.368 303.768 222.641 303.768 222.641C303.768 222.641 305.834 214.806 305.118 212.545C304.947 212.008 304.671 211.509 304.306 211.076C303.94 210.644 303.492 210.287 302.986 210.026C302.481 209.765 301.928 209.605 301.36 209.554C300.792 209.504 300.219 209.565 299.675 209.733C299.13 209.901 298.625 210.173 298.187 210.534C297.749 210.896 297.388 211.338 297.123 211.837C296.859 212.336 296.696 212.882 296.645 213.443C296.594 214.004 296.656 214.569 296.826 215.107Z" fill="#A32100"/>
<path d="M281.165 227.713C281.485 230.061 286.714 236.294 286.714 236.294C286.714 236.294 290.093 228.918 289.777 226.57C289.623 225.443 289.022 224.421 288.106 223.731C287.19 223.041 286.034 222.739 284.892 222.89C283.75 223.042 282.716 223.635 282.017 224.539C281.318 225.443 281.011 226.585 281.165 227.713Z" fill="#A32100"/>
<path opacity="0.25" d="M336.559 199.022C334.838 200.67 326.818 202.378 326.818 202.378C326.818 202.378 328.788 194.516 330.51 192.863C331.337 192.071 332.449 191.636 333.601 191.653C334.753 191.671 335.851 192.139 336.653 192.956C337.456 193.773 337.896 194.871 337.879 196.008C337.861 197.146 337.386 198.23 336.559 199.022Z" fill="#A12100"/>
<path opacity="0.25" d="M332.023 213.244C329.669 213.707 322.014 210.837 322.014 210.837C322.014 210.837 327.991 205.303 330.345 204.833C331.463 204.64 332.613 204.886 333.55 205.52C334.486 206.154 335.133 207.124 335.354 208.223C335.575 209.322 335.351 210.463 334.731 211.402C334.111 212.34 333.143 213.001 332.035 213.244H332.023Z" fill="#A12100"/>
<path opacity="0.25" d="M315.507 228.64C313.241 227.85 308.088 221.565 308.088 221.565C308.088 221.565 316.095 219.758 318.349 220.533C318.888 220.717 319.386 221.005 319.812 221.379C320.239 221.753 320.587 222.206 320.836 222.713C321.085 223.219 321.231 223.769 321.265 224.332C321.299 224.894 321.22 225.458 321.034 225.99C320.847 226.522 320.556 227.013 320.177 227.434C319.798 227.856 319.339 228.199 318.826 228.445C318.313 228.691 317.756 228.835 317.186 228.869C316.616 228.902 316.046 228.825 315.507 228.64Z" fill="#A12100"/>
<path opacity="0.25" d="M300.373 237.507C298.003 237.112 291.846 231.771 291.846 231.771C291.846 231.771 299.421 228.661 301.787 229.044C302.354 229.131 302.898 229.328 303.387 229.624C303.877 229.919 304.302 230.308 304.639 230.767C304.975 231.226 305.216 231.746 305.348 232.297C305.48 232.849 305.5 233.421 305.406 233.98C305.313 234.539 305.108 235.074 304.804 235.555C304.5 236.035 304.103 236.451 303.635 236.779C303.167 237.107 302.638 237.34 302.078 237.465C301.518 237.59 300.939 237.604 300.373 237.507Z" fill="#A12100"/>
<path opacity="0.25" d="M315.316 204.694C315.316 207.066 319.656 213.932 319.656 213.932C319.656 213.932 323.996 207.066 323.996 204.698C323.996 203.561 323.538 202.47 322.723 201.665C321.909 200.861 320.804 200.409 319.652 200.409C318.5 200.409 317.395 200.861 316.58 201.665C315.765 202.47 315.308 203.561 315.308 204.698L315.316 204.694Z" fill="#A12100"/>
<path opacity="0.25" d="M297.727 215.296C298.444 217.557 304.67 222.83 304.67 222.83C304.67 222.83 306.736 214.995 306.019 212.734C305.849 212.197 305.573 211.698 305.207 211.265C304.841 210.833 304.393 210.476 303.888 210.215C303.382 209.954 302.83 209.794 302.261 209.743C301.693 209.693 301.121 209.754 300.576 209.922C300.032 210.09 299.526 210.362 299.088 210.723C298.651 211.085 298.289 211.527 298.025 212.026C297.76 212.525 297.598 213.071 297.547 213.632C297.496 214.193 297.557 214.758 297.727 215.296Z" fill="#A12100"/>
<path opacity="0.25" d="M282.065 227.902C282.385 230.25 287.614 236.483 287.614 236.483C287.614 236.483 290.993 229.107 290.677 226.759C290.524 225.632 289.923 224.611 289.007 223.92C288.091 223.23 286.934 222.928 285.792 223.079C284.65 223.231 283.616 223.824 282.917 224.728C282.218 225.633 281.912 226.774 282.065 227.902Z" fill="#A12100"/>
<path d="M281.308 244.101C281.308 244.101 283.281 224.048 295.016 213.38C299.969 208.932 303.327 203.02 304.589 196.529C305.161 193.443 305.446 190.313 305.442 187.176" stroke="#535461" stroke-width="2" stroke-miterlimit="10"/>
<path d="M312.801 180.421C311.904 182.618 305.274 187.385 305.274 187.385C305.274 187.385 303.845 179.413 304.742 177.215C304.955 176.692 305.271 176.216 305.67 175.814C306.069 175.412 306.545 175.092 307.07 174.871C307.595 174.65 308.159 174.534 308.729 174.529C309.3 174.523 309.866 174.629 310.395 174.839C310.924 175.05 311.406 175.361 311.814 175.755C312.221 176.15 312.546 176.619 312.769 177.138C312.992 177.656 313.11 178.213 313.116 178.776C313.121 179.339 313.015 179.898 312.801 180.421Z" fill="#A32100"/>
<path d="M314.491 195.24C312.529 196.603 304.342 197.05 304.342 197.05C304.342 197.05 307.545 189.587 309.495 188.227C310.437 187.614 311.585 187.387 312.695 187.594C313.804 187.802 314.788 188.429 315.438 189.34C316.088 190.252 316.352 191.378 316.176 192.48C315.999 193.581 315.395 194.571 314.491 195.24Z" fill="#A32100"/>
<path d="M305.71 215.921C303.308 216.118 296.025 212.423 296.025 212.423C296.025 212.423 302.591 207.572 304.982 207.375C305.556 207.317 306.136 207.372 306.688 207.538C307.24 207.704 307.753 207.976 308.197 208.34C308.641 208.704 309.008 209.151 309.275 209.656C309.542 210.161 309.704 210.714 309.753 211.281C309.801 211.849 309.734 212.421 309.557 212.963C309.379 213.505 309.093 214.006 308.717 214.438C308.341 214.87 307.881 215.224 307.365 215.478C306.848 215.733 306.286 215.883 305.71 215.921Z" fill="#A32100"/>
<path d="M295.501 230.093C293.175 230.686 285.352 228.259 285.352 228.259C285.352 228.259 290.997 222.385 293.319 221.788C294.425 221.528 295.59 221.706 296.565 222.285C297.539 222.863 298.245 223.796 298.531 224.883C298.816 225.969 298.659 227.123 298.092 228.097C297.526 229.07 296.595 229.785 295.501 230.089V230.093Z" fill="#A32100"/>
<path d="M295.705 194.11C296.678 196.276 303.464 200.83 303.464 200.83C303.464 200.83 304.621 192.813 303.652 190.647C303.186 189.607 302.32 188.792 301.244 188.382C300.169 187.972 298.973 188.001 297.919 188.461C296.865 188.922 296.04 189.777 295.625 190.839C295.21 191.9 295.239 193.081 295.705 194.122V194.11Z" fill="#A32100"/>
<path d="M283.974 210.83C285.576 212.609 293.415 214.941 293.415 214.941C293.415 214.941 292.086 206.948 290.504 205.169C289.744 204.314 288.671 203.793 287.521 203.719C286.371 203.645 285.239 204.025 284.373 204.776C283.507 205.527 282.978 206.586 282.904 207.722C282.829 208.857 283.214 209.975 283.974 210.83Z" fill="#A32100"/>
<path d="M274.834 228.626C276.088 230.646 283.43 234.255 283.43 234.255C283.43 234.255 283.494 226.156 282.229 224.136C281.626 223.166 280.658 222.473 279.537 222.209C278.416 221.945 277.235 222.131 276.254 222.726C275.272 223.322 274.57 224.278 274.302 225.384C274.035 226.491 274.223 227.657 274.826 228.626H274.834Z" fill="#6C63FF"/>
<path opacity="0.1" d="M126.239 100.098H87.6201V104.336H126.239V100.098Z" fill="black"/>
<path opacity="0.1" d="M181.841 137.346H158.784V141.583H181.841V137.346Z" fill="black"/>
<path opacity="0.1" d="M192.927 165.783H158.784V170.021H192.927V165.783Z" fill="black"/>
<path opacity="0.1" d="M126.239 115.032H87.6201V119.269H126.239V115.032Z" fill="black"/>
<path opacity="0.1" d="M300.025 100.098H261.406V104.336H300.025V100.098Z" fill="black"/>
<path opacity="0.1" d="M300.025 115.032H261.406V119.269H300.025V115.032Z" fill="black"/>
<path d="M206.451 85.2433L207.532 83.844C208.572 84.85 209.968 85.4171 211.424 85.4251C213.249 85.4251 214.603 84.5436 214.603 83.1166C214.603 81.5671 213.305 80.5473 209.71 80.5473V78.9384C212.913 78.9384 214.114 77.8988 214.114 76.5272C214.114 75.286 213.037 74.5112 211.44 74.5112C210.195 74.5475 209.006 75.0277 208.093 75.8631L206.944 74.5112C208.206 73.3969 209.835 72.772 211.528 72.7522C214.294 72.7522 216.332 74.0646 216.332 76.3651C216.332 77.9858 215.131 79.0452 213.402 79.6302V79.7172C215.255 80.1124 216.809 81.326 216.809 83.2194C216.809 85.7176 214.406 87.2158 211.572 87.2158C209.162 87.2118 207.508 86.3066 206.451 85.2433Z" fill="#A32100"/>
<g opacity="0.8">
<path opacity="0.8" d="M295.333 48.8174C295.333 48.0585 295.401 47.09 295.441 46.3311H295.341C294.9 47.0031 294.4 47.6711 293.952 48.3391L290.749 52.3948H299.252V54.0273H288.555V52.6438L294.94 44.3428H297.291V57.5414H295.333V48.8174Z" fill="#A32100" fill-opacity="0.75"/>
</g>
<g opacity="0.5">
<path opacity="0.5" d="M369.076 20.5072L369.801 19.5308C370.501 20.2088 371.442 20.5903 372.423 20.5941C373.712 20.5941 374.725 19.8352 374.725 18.59C374.725 17.3449 373.833 16.6729 372.507 16.6729C371.836 16.6674 371.179 16.8586 370.618 17.2223L369.865 16.744L370.169 12.0757H375.774V13.3604H371.49L371.254 15.9179C371.776 15.684 372.343 15.5653 372.916 15.57C374.753 15.57 376.251 16.5029 376.251 18.5663C376.251 20.6297 374.497 21.8353 372.603 21.8353C371.956 21.8541 371.311 21.7464 370.706 21.5185C370.1 21.2906 369.547 20.9469 369.076 20.5072Z" fill="#A32100" fill-opacity="0.5"/>
</g>
<path opacity="0.1" d="M282.117 111.992H138.99V253.303H282.117V111.992Z" fill="#6C63FF"/>
<path d="M286.921 105.272H143.795V246.583H286.921V105.272Z" fill="white"/>
<path opacity="0.5" d="M271.927 120.926H158.784V125.164H271.927V120.926Z" fill="#A32100"/>
<path opacity="0.1" d="M230.83 151.565H158.784V155.802H230.83V151.565Z" fill="black"/>
<path opacity="0.1" d="M228.688 180.006H158.784V184.243H228.688V180.006Z" fill="black"/>
<path opacity="0.1" d="M254.075 194.224H158.784V198.461H254.075V194.224Z" fill="black"/>
<path opacity="0.5" d="M251.236 151.94L250.744 151.438C250.722 151.418 250.694 151.407 250.664 151.406C250.635 151.407 250.608 151.418 250.588 151.438L247.173 154.838L245.928 153.608C245.905 153.589 245.877 153.578 245.847 153.577C245.819 153.578 245.792 153.589 245.771 153.608L245.271 154.102C245.26 154.113 245.252 154.125 245.246 154.139C245.24 154.152 245.237 154.167 245.237 154.181C245.237 154.196 245.24 154.211 245.246 154.224C245.252 154.238 245.26 154.25 245.271 154.26L246.84 155.806C246.926 155.898 247.043 155.954 247.169 155.964C247.292 155.954 247.408 155.899 247.493 155.81L251.236 152.098C251.255 152.076 251.265 152.048 251.265 152.019C251.265 151.99 251.255 151.963 251.236 151.94Z" fill="#3ACC6C"/>
<path opacity="0.5" d="M248.254 148.699C249.421 148.698 250.553 149.097 251.456 149.827C252.358 150.558 252.977 151.575 253.205 152.705C253.433 153.835 253.258 155.009 252.708 156.025C252.158 157.042 251.268 157.839 250.19 158.28C249.112 158.722 247.912 158.78 246.795 158.446C245.677 158.112 244.712 157.405 244.064 156.447C243.415 155.489 243.123 154.338 243.237 153.191C243.352 152.045 243.865 150.972 244.691 150.157C245.158 149.694 245.713 149.326 246.324 149.076C246.936 148.825 247.592 148.697 248.254 148.699ZM248.254 147.928C247.102 147.927 245.975 148.264 245.016 148.896C244.058 149.527 243.31 150.426 242.869 151.477C242.428 152.528 242.312 153.684 242.537 154.8C242.761 155.917 243.316 156.942 244.131 157.746C244.946 158.551 245.984 159.099 247.115 159.321C248.245 159.542 249.417 159.428 250.481 158.992C251.546 158.556 252.456 157.819 253.095 156.872C253.735 155.926 254.076 154.813 254.075 153.675C254.073 152.153 253.459 150.693 252.368 149.616C251.276 148.54 249.797 147.936 248.254 147.936V147.928Z" fill="#3ACC6C"/>
<path opacity="0.5" d="M251.236 180.377L250.744 179.879C250.734 179.868 250.721 179.86 250.707 179.855C250.694 179.849 250.679 179.847 250.664 179.847C250.65 179.847 250.635 179.849 250.622 179.855C250.609 179.86 250.597 179.868 250.588 179.879L247.173 183.274L245.928 182.049C245.917 182.038 245.905 182.029 245.891 182.023C245.877 182.017 245.863 182.014 245.847 182.013C245.833 182.014 245.819 182.017 245.806 182.023C245.793 182.029 245.781 182.038 245.771 182.049L245.271 182.539C245.26 182.549 245.252 182.562 245.246 182.575C245.24 182.589 245.237 182.604 245.237 182.618C245.237 182.633 245.24 182.648 245.246 182.661C245.252 182.675 245.26 182.687 245.271 182.697L246.84 184.247C246.926 184.338 247.043 184.395 247.169 184.405C247.292 184.393 247.407 184.338 247.493 184.251L251.236 180.535C251.255 180.513 251.265 180.485 251.265 180.456C251.265 180.427 251.255 180.399 251.236 180.377Z" fill="#3ACC6C"/>
<path opacity="0.5" d="M248.254 177.159C249.421 177.158 250.553 177.557 251.456 178.288C252.358 179.018 252.977 180.035 253.205 181.166C253.433 182.296 253.258 183.469 252.708 184.486C252.158 185.502 251.268 186.299 250.19 186.741C249.112 187.182 247.912 187.241 246.795 186.906C245.677 186.572 244.712 185.866 244.064 184.908C243.415 183.949 243.123 182.799 243.237 181.652C243.352 180.505 243.865 179.433 244.691 178.618C245.158 178.154 245.713 177.786 246.324 177.536C246.936 177.286 247.592 177.158 248.254 177.159ZM248.254 176.369C247.102 176.368 245.975 176.705 245.017 177.336C244.058 177.968 243.311 178.866 242.869 179.916C242.428 180.967 242.312 182.124 242.536 183.24C242.761 184.356 243.315 185.381 244.13 186.186C244.944 186.99 245.982 187.538 247.112 187.761C248.242 187.983 249.414 187.869 250.478 187.434C251.543 186.999 252.453 186.262 253.093 185.316C253.734 184.37 254.075 183.258 254.075 182.12C254.076 181.365 253.926 180.617 253.633 179.919C253.341 179.222 252.912 178.588 252.372 178.053C251.831 177.519 251.189 177.096 250.483 176.807C249.776 176.517 249.019 176.369 248.254 176.369Z" fill="#3ACC6C"/>
<path opacity="0.1" d="M205.191 314C220.98 314 233.781 311.88 233.781 309.265C233.781 306.649 220.98 304.529 205.191 304.529C189.401 304.529 176.601 306.649 176.601 309.265C176.601 311.88 189.401 314 205.191 314Z" fill="#A32100"/>
<path opacity="0.1" d="M236.552 182.539C236.283 181.998 234.149 175.029 234.149 175.029L230.038 164.724C230.038 164.724 227.543 151.161 223.82 154.545C220.097 157.929 225.822 166.048 225.822 166.048C225.822 166.048 228.172 171.977 228.052 173.163C227.932 174.349 229.361 178.697 229.361 178.697L228.897 181.195C228.292 181.156 227.9 181.156 227.9 181.156C227.9 181.156 227.531 181.677 227.179 181.713C227.119 181.721 227.058 181.713 227.003 181.689C226.603 181.511 225.277 181.547 224.601 181.547C223.972 181.463 223.364 181.271 222.803 180.978C222.571 180.519 221.258 180.246 220.093 180.092C219.208 177.918 217.963 175.803 217.791 173.534C217.706 172.917 217.83 172.289 218.143 171.748C218.221 171.632 218.309 171.523 218.407 171.424C218.731 171.099 219.128 170.815 219.488 170.514C219.668 170.364 219.832 170.21 219.989 170.052C223.043 167.127 222.559 162.597 219.788 159.462C216.585 155.837 202.14 148.038 197.768 154.719C197.16 155.652 197.14 156.731 196.968 157.766C196.532 160.299 195.329 162.642 193.516 164.486C192.067 166.008 190.165 167.411 189.333 169.135L189.305 169.072C189.106 169.446 188.961 169.845 188.872 170.258C188.452 172.357 189.885 174.376 190.638 176.42C190.894 177.114 191.079 177.832 191.19 178.563L191.238 178.112C191.423 179.155 191.486 180.216 191.427 181.274C186.182 182.334 186.178 191.259 186.178 191.259C186.178 191.259 185.533 194.817 185.641 196.086C185.749 197.354 185.749 200.129 185.749 200.805C185.749 201.481 185.101 205.632 185.029 206.13C184.937 206.679 183.952 209.312 186.33 209.905C186.494 209.948 186.67 209.984 186.85 210.016C186.95 212.146 187.139 216.617 186.974 217.605C186.974 217.605 187.839 223.605 188.556 225.115C189.016 226.008 189.552 226.861 190.157 227.665C190.107 228.029 189.983 228.38 189.793 228.697C189.429 229.223 189.617 229.653 190.229 229.839C190.211 230.021 190.187 230.227 190.157 230.456C189.897 232.772 189.505 237.369 190.157 239.702C191.074 242.895 191.126 243.959 191.126 243.959C191.126 244.479 191.255 244.99 191.503 245.449C191.903 245.983 192.584 250.932 192.584 251.73C192.584 252.529 194.417 259.715 193.877 261.419C193.336 263.122 193.769 265.518 193.769 265.518C193.769 265.518 193.444 269.724 193.068 270.629C192.692 271.534 192.528 286.12 193.12 289.899C193.713 293.678 194.093 296.821 194.093 296.821C194.093 296.821 193.693 300.279 194.037 300.773C194.381 301.268 194.954 304.129 194.521 304.288C194.089 304.446 193.877 305.62 193.877 305.62C194.105 305.963 194.35 306.294 194.613 306.612C194.446 306.554 194.283 306.485 194.125 306.406C194.297 306.647 194.553 306.979 194.866 307.343L194.573 311.169C194.561 311.319 194.602 311.469 194.69 311.592C194.778 311.715 194.907 311.803 195.054 311.841C196 312.098 197 312.094 197.944 311.83C198.888 311.566 199.741 311.052 200.411 310.343C203.105 307.628 204.014 308.003 204.51 306.351C204.558 306.173 204.607 306.003 204.643 305.837C204.717 305.519 204.698 305.186 204.588 304.878C204.479 304.569 204.283 304.298 204.023 304.095C203.764 303.893 203.452 303.767 203.122 303.732C202.793 303.697 202.461 303.756 202.164 303.9C202.336 302.714 202.473 301.414 202.34 300.667C202.072 299.125 202.124 295.077 202.124 295.077L201.748 275.708C201.748 275.708 202.449 271.878 203.257 270.388C204.066 268.897 203.958 263.668 203.958 263.668L204.875 246.524L205.788 238.223C205.788 238.223 206.648 235.349 207.725 238.543C207.725 238.543 207.133 244.983 207.405 246.528C207.677 248.074 208.05 255.576 207.781 257.229C207.513 258.881 206.324 267.929 207.081 270.218C207.837 272.506 208.642 275.273 208.482 276.179C208.322 277.084 207.781 296.734 207.781 296.734C207.781 296.734 209.235 300.513 208.158 301.738C207.081 302.963 208.106 307.861 208.106 307.861C208.106 307.861 208.234 307.952 208.458 308.082L208.426 308.478L208.09 312.881C208.078 313.031 208.119 313.18 208.207 313.303C208.295 313.425 208.423 313.514 208.57 313.553C209.517 313.808 210.516 313.804 211.46 313.54C212.404 313.276 213.257 312.762 213.927 312.055C216.621 309.339 217.53 309.711 218.027 308.063C218.075 307.885 218.123 307.711 218.163 307.545C218.244 307.192 218.212 306.824 218.07 306.49C217.928 306.157 217.685 305.876 217.373 305.686C217.061 305.496 216.697 305.408 216.332 305.433C215.967 305.458 215.619 305.595 215.336 305.825C215.318 305.844 215.298 305.862 215.276 305.877C215.208 305.936 215.136 305.987 215.064 306.039L214.96 306.106C215.228 304.888 215.621 302.813 215.436 301.833C215.168 300.394 215.705 296.03 215.705 296.03C215.705 296.03 217.27 290.812 217.306 288.737C217.342 286.662 217.738 272.135 217.738 272.135C217.738 272.135 217.686 265.375 217.903 263.727C218.119 262.079 219.84 247.809 221.566 243.567C222.891 240.302 223.484 231.982 223.131 227.756C223.111 227.543 223.091 227.361 223.071 227.155C225.181 225.59 225.405 223.013 225.405 223.013C225.405 223.013 223.464 219.321 221.594 217.759C219.724 216.198 219.292 213.502 219.364 212.364C219.397 211.669 219.167 210.987 218.719 210.45C218.719 210.45 217.855 207.683 217.278 207.399C217.231 207.375 217.189 207.343 217.154 207.304C216.754 206.885 217.062 205.695 217.062 205.695V205.659C217.126 205.383 217.546 203.596 217.41 203.138C217.274 202.679 217.482 200.299 217.482 200.299C217.482 200.299 218.852 196.256 218.635 193.062C218.419 189.868 221.438 190.148 221.438 190.148L230.762 190.054H231.823C232.271 189.677 232.674 189.251 233.024 188.785C233.384 188.851 233.754 188.841 234.11 188.756C234.465 188.67 234.798 188.51 235.086 188.287C237.064 186.5 236.82 183.089 236.552 182.539ZM193.188 210.209L193.256 208.589L193.621 208.897C193.732 209.322 193.732 209.768 193.621 210.193C193.564 210.393 193.463 210.578 193.324 210.734C193.186 210.89 193.013 211.013 192.82 211.095C192.774 211.117 192.729 211.144 192.688 211.174L192.596 210.249C192.976 210.225 193.188 210.205 193.188 210.205V210.209Z" fill="black"/>
<path d="M228.168 185.682C228.168 185.682 233.477 189.053 235.486 187.263C237.496 185.472 237.248 182.017 236.976 181.472C236.703 180.926 234.541 173.91 234.541 173.91L230.366 163.522C230.366 163.522 227.827 149.849 224.04 153.244C220.252 156.64 226.082 164.838 226.082 164.838C226.082 164.838 228.484 170.819 228.348 172.017C228.212 173.214 229.677 177.602 229.677 177.602L228.168 185.682Z" fill="url(#paint0_linear)"/>
<path d="M218.266 307.497C218.226 307.667 218.182 307.841 218.126 308.019C217.634 309.683 216.701 309.308 213.963 312.043C213.279 312.758 212.411 313.277 211.452 313.543C210.493 313.809 209.479 313.812 208.518 313.553C208.369 313.515 208.239 313.426 208.149 313.303C208.06 313.179 208.018 313.029 208.029 312.877L208.374 308.438L208.538 306.3C208.538 306.3 212.898 307.509 215.12 305.98C215.192 305.928 215.264 305.877 215.332 305.817L215.396 305.766C215.682 305.535 216.033 305.397 216.402 305.372C216.771 305.347 217.138 305.436 217.454 305.626C217.769 305.816 218.017 306.098 218.162 306.434C218.308 306.769 218.344 307.141 218.266 307.497Z" fill="url(#paint1_linear)"/>
<path d="M204.586 305.821C204.55 305.991 204.502 306.165 204.45 306.343C203.958 308.007 203.025 307.632 200.286 310.367C199.602 311.082 198.734 311.6 197.776 311.866C196.817 312.133 195.803 312.138 194.841 311.881C194.692 311.843 194.56 311.754 194.471 311.63C194.381 311.505 194.34 311.353 194.353 311.201L194.693 306.762L194.861 304.624C194.861 304.624 199.221 305.833 201.439 304.303C201.516 304.252 201.584 304.201 201.656 304.141L201.72 304.09C202.005 303.858 202.357 303.719 202.726 303.694C203.095 303.668 203.462 303.757 203.778 303.947C204.093 304.138 204.341 304.421 204.486 304.757C204.631 305.093 204.666 305.465 204.586 305.821Z" fill="url(#paint2_linear)"/>
<g opacity="0.1">
<path opacity="0.1" d="M200.07 306.489L200.251 308.794C197.744 311.245 194.766 307.608 193.885 306.398C196.179 307.561 200.07 306.489 200.07 306.489Z" fill="url(#paint3_linear)"/>
</g>
<g opacity="0.1">
<path opacity="0.1" d="M214.784 307.426L215.116 307.213C212.826 310.62 209.431 309.047 208.374 308.438L208.538 306.3C208.538 306.3 212.898 307.509 215.12 305.979C214.944 306.814 214.784 307.426 214.784 307.426Z" fill="url(#paint4_linear)"/>
</g>
<path d="M221.746 242.971C219.992 247.264 218.239 261.648 218.018 263.312C217.798 264.977 217.854 271.791 217.854 271.791L217.398 288.536C217.346 290.631 215.756 295.888 215.756 295.888C215.756 295.888 215.208 300.292 215.48 301.738C215.752 303.185 214.767 307 214.767 307L215.1 306.786C212.357 310.861 208.029 307.802 208.029 307.802C208.029 307.802 206.988 302.865 208.081 301.632C209.174 300.398 207.701 296.588 207.701 296.588C207.701 296.588 208.246 276.784 208.414 275.871C208.582 274.958 207.789 272.167 206.988 269.858C206.188 267.55 207.425 258.427 207.701 256.762C207.977 255.098 207.589 247.533 207.301 245.975C207.012 244.418 207.629 237.923 207.629 237.923C206.532 234.705 205.655 237.603 205.655 237.603L204.778 246.03L203.878 263.332C203.878 263.332 203.99 268.589 203.165 270.092C202.34 271.594 201.631 275.46 201.631 275.46L202.032 294.995C202.032 294.995 201.976 299.074 202.252 300.631C202.528 302.189 201.647 306.213 201.647 306.213C198.581 313.296 193.64 305.624 193.64 305.624C193.64 305.624 193.856 304.438 194.297 304.28C194.737 304.122 194.133 301.22 193.804 300.722C193.476 300.224 193.856 296.77 193.856 296.77C193.856 296.77 193.476 293.607 192.872 289.789C192.267 285.97 192.435 271.273 192.815 270.36C193.196 269.447 193.528 265.222 193.528 265.222C193.528 265.222 193.092 262.806 193.64 261.087C194.189 259.367 192.323 252.126 192.323 251.319C192.323 250.513 191.61 245.524 191.226 244.995C190.968 244.535 190.831 244.018 190.826 243.493C190.826 243.493 190.77 242.418 189.837 239.2C189.156 236.828 189.556 232.211 189.837 229.879C189.933 229.013 190.013 228.464 190.013 228.464C190.013 228.464 221.47 223.471 222.731 224.602C223.027 224.863 223.223 225.788 223.335 227.076C223.692 231.29 223.087 239.682 221.746 242.971Z" fill="url(#paint5_linear)"/>
<g opacity="0.1">
<path opacity="0.1" d="M209.852 267.103C210 267.103 213.455 267.392 214.748 267.139C216.041 266.886 209.852 267.103 209.852 267.103Z" fill="url(#paint6_linear)"/>
</g>
<g opacity="0.1">
<path opacity="0.1" d="M210.107 269.107C210.107 269.107 214.912 269.93 215.152 269.503C215.392 269.076 210.107 269.107 210.107 269.107Z" fill="url(#paint7_linear)"/>
</g>
<g opacity="0.1">
<path opacity="0.1" d="M195.458 268.25C195.458 268.25 197.94 268.356 199.293 268.965C200.647 269.574 195.458 268.25 195.458 268.25Z" fill="url(#paint8_linear)"/>
</g>
<path d="M186.434 208.066C186.434 208.066 186.834 215.545 186.618 216.866C186.618 216.866 187.495 222.913 188.219 224.451C188.873 225.678 189.644 226.84 190.521 227.922L192.675 213.075L192.175 207.991L186.434 208.066Z" fill="url(#paint9_linear)"/>
<path d="M209.086 174.001C213.747 174.001 217.526 170.3 217.526 165.735C217.526 161.171 213.747 157.47 209.086 157.47C204.425 157.47 200.646 161.171 200.646 165.735C200.646 170.3 204.425 174.001 209.086 174.001Z" fill="url(#paint10_linear)"/>
<path d="M204.702 169.602C204.702 169.602 202.072 174.645 199.442 177.009C196.811 179.373 215.224 182.053 215.66 182.053C216.097 182.053 212.373 171.321 213.03 170.032C213.687 168.744 204.702 169.602 204.702 169.602Z" fill="url(#paint11_linear)"/>
<g opacity="0.1">
<path opacity="0.1" d="M223.335 227.037C222.922 227.347 222.467 227.597 221.982 227.78C218.623 229.069 214.968 230.859 212.482 230.152C209.995 229.444 204.738 230.152 204.738 230.152C204.738 230.152 194.141 229.29 192.023 229.792C191.313 230.005 190.557 230.024 189.837 229.847C189.933 228.982 190.013 228.432 190.013 228.432C190.013 228.432 221.47 223.44 222.731 224.57C223.027 224.823 223.223 225.736 223.335 227.037Z" fill="url(#paint12_linear)"/>
</g>
<path d="M225.637 222.27C225.637 222.27 225.345 225.828 221.982 227.136C218.619 228.444 214.968 230.215 212.481 229.508C209.995 228.8 204.738 229.508 204.738 229.508C204.738 229.508 194.141 228.646 192.023 229.148C189.905 229.65 188.82 229.006 189.464 228.073C190.109 227.14 190.053 224.069 190.053 222.78C190.053 221.491 189.32 216.266 189.977 215.337C190.633 214.408 191.218 210.83 192.535 210.257C192.732 210.176 192.909 210.053 193.051 209.895C193.193 209.738 193.297 209.551 193.356 209.348C193.471 208.919 193.471 208.468 193.356 208.04C193.356 208.04 193.136 207.862 192.827 207.593C192.055 206.917 190.742 205.66 191.162 205.249C191.746 204.676 191.162 200.952 191.162 200.952C191.162 200.952 189.773 198.09 190.285 197.019C190.798 195.948 185.829 190.299 185.829 190.299C185.829 190.299 185.829 180.567 191.835 180.136C191.835 180.136 196.07 180.283 196.583 178.421C197.095 176.559 200.454 175.484 200.454 175.484L208.125 177.132C208.125 177.132 214.932 178.563 216.165 177.705C217.398 176.848 218.359 178.848 218.359 178.848C218.359 178.848 222.595 179.065 223.035 179.923C223.475 180.781 221.646 189.153 221.646 189.153C221.646 189.153 218.575 188.868 218.795 192.09C219.015 195.312 217.626 199.387 217.626 199.387C217.626 199.387 217.406 201.759 217.554 202.249C217.702 202.739 217.266 204.51 217.198 204.79V204.826C217.198 204.826 216.893 206.012 217.29 206.451C217.328 206.488 217.371 206.52 217.418 206.546C218.002 206.83 218.879 209.621 218.879 209.621C219.336 210.161 219.572 210.851 219.54 211.554C219.468 212.7 219.904 215.416 221.802 216.993C223.7 218.57 225.637 222.27 225.637 222.27Z" fill="url(#paint13_linear)"/>
<path d="M193.044 205.703V206.007L192.907 209.355C192.907 209.355 188.415 209.711 185.965 209.102C183.515 208.494 184.552 205.849 184.648 205.296C184.72 204.794 185.377 200.608 185.377 199.928C185.377 199.248 185.377 196.457 185.268 195.184C185.16 193.911 185.817 190.318 185.817 190.318L186.289 189.745L191.442 191.678L193.044 205.703Z" fill="url(#paint14_linear)"/>
<g opacity="0.1">
<path opacity="0.1" d="M193.036 206.015L192.9 209.364C192.9 209.364 188.407 209.719 185.957 209.111C183.507 208.502 184.544 205.857 184.64 205.304L193.036 206.015Z" fill="url(#paint15_linear)"/>
</g>
<g opacity="0.1">
<path opacity="0.1" d="M193.376 209.34C193.491 208.911 193.491 208.46 193.376 208.031C193.376 208.031 193.156 207.853 192.848 207.585C196.719 207.059 212.041 204.996 217.206 204.774V204.81C217.206 204.81 216.902 205.996 217.298 206.434L193.376 209.34Z" fill="url(#paint16_linear)"/>
</g>
<g opacity="0.1">
<path opacity="0.1" d="M217.746 211.945C217.746 211.945 218.695 217.206 215.151 219.06C215.151 219.06 217.161 216.439 217.746 211.945Z" fill="url(#paint17_linear)"/>
</g>
<g opacity="0.1">
<path opacity="0.1" d="M194.545 219.194C194.545 219.194 203.093 217.763 204.774 218.87C206.456 219.977 194.545 219.194 194.545 219.194Z" fill="url(#paint18_linear)"/>
</g>
<g opacity="0.1">
<path opacity="0.1" d="M214.783 186.599C214.783 186.599 213.47 191.892 214.455 193.109C215.44 194.327 214.783 186.599 214.783 186.599Z" fill="url(#paint19_linear)"/>
</g>
<g opacity="0.1">
<path opacity="0.1" d="M190.014 182.266C190.014 182.266 191.215 184.243 190.49 186.274C189.765 188.306 190.014 182.266 190.014 182.266Z" fill="url(#paint20_linear)"/>
</g>
<path d="M187.531 199.513C187.531 199.513 189.065 200.41 188.552 201.806C188.04 203.201 187.531 199.513 187.531 199.513Z" fill="url(#paint21_linear)"/>
<g opacity="0.1">
<path opacity="0.1" d="M187.37 195.434C187.37 195.434 188.795 196.189 188.972 197.295C189.148 198.402 187.37 195.434 187.37 195.434Z" fill="url(#paint22_linear)"/>
</g>
<g opacity="0.1">
<path opacity="0.1" d="M208.502 238.227C208.502 238.227 217.454 239.124 219.244 237.041C219.244 237.049 211.168 238.622 208.502 238.227Z" fill="url(#paint23_linear)"/>
</g>
<g opacity="0.1">
<path opacity="0.1" d="M193.048 237.729C193.048 237.729 202.657 239.947 204.554 238.192C204.554 238.192 196.299 238.801 193.048 237.729Z" fill="url(#paint24_linear)"/>
</g>
<g opacity="0.1">
<path opacity="0.1" d="M209.194 241.129C209.194 241.129 213.198 241.129 215.076 241.235C216.953 241.341 209.194 241.129 209.194 241.129Z" fill="url(#paint25_linear)"/>
</g>
<g opacity="0.1">
<path opacity="0.1" d="M193.704 242.809C193.704 242.809 195.678 244.991 197.904 244.599C200.13 244.208 193.704 242.809 193.704 242.809Z" fill="url(#paint26_linear)"/>
</g>
<path d="M197.579 153.442C196.959 154.383 196.939 155.47 196.779 156.514C196.338 159.078 195.114 161.449 193.272 163.309C191.518 165.135 189.112 166.787 188.659 169.017C188.231 171.135 189.688 173.171 190.453 175.231C192.455 180.666 189.652 186.362 188.832 191.971C188.607 193.52 188.88 195.501 190.833 196.015C191.442 196.177 192.139 196.157 192.683 196.41C193.42 196.754 193.644 197.469 193.78 198.114C194.268 200.417 194.436 202.774 194.28 205.122C194.192 206.442 194.096 207.956 195.365 208.862C196.013 209.256 196.726 209.534 197.471 209.684C199.473 210.213 202.064 210.636 203.413 209.399C203.981 208.881 204.214 208.146 204.898 207.735C205.955 207.122 207.456 207.537 208.79 207.601C210.05 207.654 211.301 207.373 212.414 206.788C213.527 206.203 214.461 205.334 215.119 204.272C216.196 202.371 216.104 200.205 215.704 198.157C215.304 196.11 214.615 194.086 214.563 192.014C214.501 191.289 214.666 190.562 215.035 189.931C215.836 188.698 217.746 188.137 219.039 187.164C221.465 185.346 221.441 182.365 220.576 179.871C219.712 177.377 218.11 174.993 217.914 172.416C217.828 171.792 217.955 171.158 218.274 170.614C218.698 170.096 219.194 169.641 219.748 169.262C223.291 166.333 222.874 161.518 219.944 158.225C216.693 154.561 202.003 146.695 197.579 153.442Z" fill="url(#paint27_linear)"/>
<g opacity="0.1">
<path opacity="0.1" d="M190.901 177.48C191.25 175.316 191.059 173.102 190.345 171.028C189.944 169.989 189.396 168.953 188.991 167.914C188.788 168.286 188.64 168.685 188.551 169.099C188.119 171.214 189.58 173.25 190.345 175.313C190.603 176.015 190.789 176.741 190.901 177.48Z" fill="url(#paint28_linear)"/>
<path opacity="0.1" d="M194.177 200.92C194.333 198.572 194.163 196.214 193.672 193.912C193.536 193.267 193.312 192.552 192.579 192.208C192.031 191.951 191.334 191.971 190.726 191.813C190.354 191.725 190.007 191.554 189.712 191.315C189.416 191.075 189.18 190.772 189.02 190.429C188.912 190.975 188.812 191.52 188.732 192.062C188.504 193.611 188.776 195.592 190.734 196.106C191.342 196.268 192.039 196.248 192.587 196.501C193.32 196.845 193.544 197.56 193.68 198.204C193.907 199.273 194.065 200.354 194.153 201.442C194.145 201.272 194.177 201.094 194.177 200.92Z" fill="url(#paint29_linear)"/>
<path opacity="0.1" d="M214.995 200.086C214.338 201.148 213.404 202.016 212.292 202.601C211.18 203.187 209.929 203.467 208.67 203.414C207.336 203.351 205.835 202.936 204.778 203.549C204.073 203.944 203.857 204.695 203.293 205.213C201.944 206.45 199.353 206.027 197.351 205.498C196.605 205.349 195.892 205.071 195.245 204.675C194.693 204.281 194.32 203.687 194.208 203.023C194.208 203.758 194.208 204.497 194.16 205.233C194.072 206.549 193.976 208.063 195.245 208.968C195.892 209.364 196.605 209.642 197.351 209.79C199.353 210.324 201.944 210.743 203.293 209.506C203.857 208.988 204.093 208.257 204.778 207.846C205.835 207.229 207.336 207.644 208.67 207.711C209.929 207.765 211.181 207.484 212.293 206.898C213.406 206.312 214.339 205.442 214.995 204.379C216.032 202.553 215.988 200.481 215.628 198.505C215.489 199.057 215.277 199.589 214.995 200.086Z" fill="url(#paint30_linear)"/>
<path opacity="0.1" d="M219.637 165.063C219.082 165.443 218.585 165.898 218.16 166.415C217.842 166.96 217.716 167.595 217.803 168.218C217.871 169.001 218.04 169.773 218.304 170.514C218.713 170.09 219.159 169.703 219.637 169.356C222.039 167.38 222.616 164.534 221.839 161.881C221.428 163.128 220.664 164.232 219.637 165.063Z" fill="url(#paint31_linear)"/>
<path opacity="0.1" d="M218.927 182.966C217.63 183.935 215.724 184.496 214.923 185.733C214.552 186.363 214.387 187.091 214.451 187.817C214.481 188.654 214.586 189.487 214.763 190.307C214.811 190.21 214.865 190.117 214.923 190.026C215.724 188.797 217.63 188.232 218.927 187.259C221.141 185.599 221.329 182.97 220.673 180.626C220.338 181.559 219.73 182.374 218.927 182.966Z" fill="url(#paint32_linear)"/>
</g>
<path d="M235.61 183.844C234.113 187.564 232.175 189.03 232.175 189.03H231.098L221.618 189.125L220.521 186.192L222.058 179.867L223.003 179.927C223.573 180.222 224.191 180.416 224.828 180.5C225.521 180.5 226.874 180.464 227.275 180.642C227.331 180.667 227.394 180.675 227.455 180.666C227.811 180.63 228.192 180.104 228.192 180.104C228.192 180.104 237.108 180.12 235.61 183.844Z" fill="url(#paint33_linear)"/>
<g opacity="0.1">
<path opacity="0.1" d="M235.61 183.844C234.113 187.564 232.175 189.03 232.175 189.03H231.098C231.659 187.556 232.844 184.528 233.308 183.832C233.773 183.136 229.781 181.524 227.459 180.634C227.815 180.599 228.196 180.073 228.196 180.073C228.196 180.073 237.108 180.12 235.61 183.844Z" fill="url(#paint34_linear)"/>
</g>
<path d="M227.887 186.725C227.887 186.725 233.092 190.069 235.094 188.283C237.096 186.496 236.828 183.081 236.559 182.539C236.291 181.998 234.157 175.029 234.157 175.029L230.045 164.724C230.045 164.724 227.551 151.161 223.828 154.545C220.104 157.929 225.83 166.048 225.83 166.048C225.83 166.048 228.18 171.977 228.06 173.163C227.939 174.349 229.369 178.697 229.369 178.697L227.887 186.725Z" fill="#EFB7B9"/>
<path d="M218.146 307.548C218.106 307.714 218.058 307.888 218.01 308.066C217.522 309.714 216.605 309.343 213.911 312.058C213.24 312.766 212.387 313.279 211.443 313.543C210.499 313.807 209.5 313.812 208.554 313.557C208.407 313.517 208.278 313.429 208.191 313.306C208.103 313.183 208.061 313.034 208.073 312.885L208.41 308.481L208.574 306.362C208.574 306.362 212.866 307.548 215.048 306.042C215.12 305.991 215.192 305.939 215.26 305.88C215.282 305.865 215.302 305.848 215.32 305.829C215.602 305.598 215.95 305.461 216.316 305.436C216.681 305.411 217.045 305.5 217.357 305.689C217.668 305.879 217.912 306.16 218.054 306.494C218.195 306.827 218.228 307.196 218.146 307.548Z" fill="#3C3C3C"/>
<path d="M204.674 305.888C204.638 306.054 204.59 306.224 204.542 306.402C204.053 308.054 203.137 307.679 200.442 310.394C199.772 311.103 198.919 311.617 197.975 311.881C197.031 312.145 196.032 312.149 195.085 311.893C194.938 311.854 194.809 311.766 194.721 311.643C194.633 311.52 194.592 311.37 194.605 311.221L194.941 306.817L195.105 304.698C195.105 304.698 199.397 305.884 201.579 304.378C201.653 304.329 201.724 304.276 201.791 304.22L201.851 304.165C202.134 303.935 202.482 303.799 202.847 303.775C203.212 303.751 203.576 303.84 203.887 304.03C204.198 304.22 204.441 304.501 204.582 304.834C204.723 305.168 204.755 305.536 204.674 305.888Z" fill="#3C3C3C"/>
<path opacity="0.1" d="M200.243 306.549L200.419 308.838C197.957 311.265 195.022 307.652 194.157 306.466C196.423 307.605 200.243 306.549 200.243 306.549Z" fill="black"/>
<path opacity="0.1" d="M214.719 307.477L215.043 307.268C212.793 310.644 209.438 309.086 208.409 308.481L208.573 306.363C208.573 306.363 212.865 307.549 215.047 306.042C214.875 306.869 214.719 307.477 214.719 307.477Z" fill="black"/>
<path d="M221.566 243.568C219.841 247.825 218.115 262.091 217.903 263.727C217.691 265.364 217.739 272.135 217.739 272.135L217.306 288.737C217.254 290.812 215.705 296.03 215.705 296.03C215.705 296.03 215.168 300.378 215.437 301.833C215.705 303.288 214.736 307.051 214.736 307.051L215.06 306.837C212.366 310.881 208.106 307.849 208.106 307.849C208.106 307.849 207.081 302.952 208.158 301.726C209.235 300.501 207.782 296.722 207.782 296.722C207.782 296.722 208.322 277.08 208.482 276.167C208.642 275.254 207.834 272.495 207.081 270.206C206.328 267.917 207.513 258.865 207.782 257.217C208.05 255.569 207.674 248.058 207.405 246.517C207.137 244.975 207.726 238.532 207.726 238.532C206.649 235.338 205.788 238.212 205.788 238.212L204.923 246.568L203.99 263.727C203.99 263.727 204.098 268.941 203.29 270.447C202.481 271.953 201.784 275.752 201.784 275.752L202.161 295.121C202.161 295.121 202.109 299.169 202.377 300.71C202.645 302.252 201.784 306.245 201.784 306.245C198.765 313.269 193.913 305.659 193.913 305.659C193.913 305.659 194.129 304.474 194.558 304.327C194.986 304.181 194.398 301.292 194.073 300.813C193.749 300.335 194.129 296.86 194.129 296.86C194.129 296.86 193.729 293.718 193.156 289.939C192.584 286.16 192.728 271.574 193.104 270.669C193.481 269.763 193.805 265.558 193.805 265.558C193.805 265.558 193.373 263.162 193.913 261.458C194.454 259.755 192.62 252.568 192.62 251.77C192.62 250.972 191.919 246.023 191.539 245.489C191.291 245.03 191.162 244.518 191.163 243.999C191.163 243.999 191.111 242.935 190.194 239.741C189.525 237.409 189.917 232.812 190.194 230.496C190.29 229.638 190.37 229.092 190.37 229.092C190.37 229.092 221.318 224.143 222.559 225.262C222.847 225.523 223.044 226.448 223.152 227.717C223.484 231.962 222.891 240.283 221.566 243.568Z" fill="#444053"/>
<path opacity="0.1" d="M209.867 267.483C210.011 267.483 213.426 267.768 214.672 267.518C215.917 267.269 209.867 267.483 209.867 267.483Z" fill="black"/>
<path opacity="0.1" d="M210.119 269.471C210.119 269.471 214.827 270.289 215.08 269.866C215.332 269.443 210.119 269.471 210.119 269.471Z" fill="black"/>
<path opacity="0.1" d="M195.706 268.621C195.706 268.621 198.148 268.727 199.477 269.328C200.807 269.929 195.706 268.621 195.706 268.621Z" fill="black"/>
<path d="M186.825 208.928C186.825 208.928 187.226 216.344 187.005 217.656C187.005 217.656 187.87 223.657 188.587 225.166C189.231 226.382 189.989 227.535 190.853 228.609L192.975 213.897L192.474 208.857L186.825 208.928Z" fill="#EFB7B9"/>
<path d="M209.114 175.144C213.7 175.144 217.418 171.473 217.418 166.946C217.418 162.418 213.7 158.747 209.114 158.747C204.528 158.747 200.811 162.418 200.811 166.946C200.811 171.473 204.528 175.144 209.114 175.144Z" fill="#EFB7B9"/>
<path d="M204.798 170.779C204.798 170.779 202.212 175.78 199.621 178.124C197.031 180.468 215.152 183.128 215.584 183.128C216.016 183.128 212.349 172.479 212.994 171.202C213.638 169.925 204.798 170.779 204.798 170.779Z" fill="#EFB7B9"/>
<path opacity="0.1" d="M223.132 227.757C222.726 228.064 222.279 228.313 221.803 228.496C218.496 229.773 214.9 231.547 212.454 230.836C210.008 230.124 204.847 230.836 204.847 230.836C204.847 230.836 194.438 229.986 192.34 230.48C191.635 230.69 190.886 230.705 190.174 230.524C190.27 229.666 190.35 229.12 190.35 229.12C190.35 229.12 221.298 224.171 222.539 225.29C222.828 225.551 223.024 226.456 223.132 227.757Z" fill="black"/>
<path d="M225.405 223.012C225.405 223.012 225.117 226.57 221.802 227.839C218.487 229.108 214.9 230.89 212.454 230.183C210.007 229.475 204.847 230.183 204.847 230.183C204.847 230.183 194.437 229.329 192.339 229.827C190.241 230.325 189.176 229.685 189.821 228.76C190.466 227.835 190.397 224.807 190.397 223.51C190.397 222.214 189.677 217.051 190.325 216.126C190.974 215.201 191.526 211.656 192.844 211.086C193.037 211.005 193.209 210.882 193.348 210.726C193.487 210.57 193.588 210.385 193.644 210.185C193.756 209.76 193.756 209.314 193.644 208.889C193.644 208.889 193.428 208.711 193.124 208.446C192.363 207.774 191.074 206.529 191.49 206.122C192.063 205.552 191.49 201.86 191.49 201.86C191.49 201.86 190.121 199.022 190.626 197.959C191.13 196.896 186.222 191.287 186.222 191.287C186.222 191.287 186.222 181.634 192.119 181.207C192.119 181.207 196.287 181.349 196.791 179.503C197.296 177.657 200.603 176.594 200.603 176.594L208.15 178.226C208.15 178.226 214.836 179.645 216.057 178.796C217.278 177.946 218.199 179.926 218.199 179.926C218.199 179.926 222.367 180.139 222.799 180.989C223.231 181.839 221.434 190.144 221.434 190.144C221.434 190.144 218.415 189.864 218.631 193.057C218.847 196.251 217.478 200.295 217.478 200.295C217.478 200.295 217.262 202.639 217.406 203.133C217.55 203.627 217.122 205.379 217.058 205.655V205.691C217.058 205.691 216.761 206.877 217.15 207.3C217.184 207.339 217.227 207.371 217.274 207.395C217.85 207.675 218.715 210.446 218.715 210.446C219.163 210.983 219.393 211.665 219.36 212.359C219.288 213.498 219.72 216.194 221.59 217.755C223.46 219.316 225.405 223.012 225.405 223.012Z" fill="#A32100"/>
<path d="M193.332 206.585V206.885L193.2 210.205C193.2 210.205 188.796 210.561 186.394 209.956C183.992 209.352 185.001 206.731 185.093 206.181C185.165 205.683 185.813 201.529 185.813 200.857C185.813 200.185 185.813 197.414 185.705 196.137C185.597 194.86 186.242 191.311 186.242 191.311L186.71 190.741L191.779 192.659L193.332 206.585Z" fill="#A32100"/>
<path opacity="0.1" d="M193.321 206.885L193.188 210.205C193.188 210.205 188.784 210.561 186.382 209.956C183.98 209.351 184.989 206.731 185.081 206.181L193.321 206.885Z" fill="black"/>
<path opacity="0.1" d="M193.641 210.19C193.752 209.765 193.752 209.319 193.641 208.894C193.641 208.894 193.424 208.716 193.12 208.451C196.932 207.929 212.005 205.886 217.086 205.684V205.72C217.086 205.72 216.79 206.905 217.178 207.328L193.641 210.19Z" fill="black"/>
<path opacity="0.1" d="M217.63 212.759C217.63 212.759 218.567 217.977 215.08 219.823C215.08 219.823 217.058 217.233 217.63 212.759Z" fill="black"/>
<path opacity="0.1" d="M194.806 219.965C194.806 219.965 203.213 218.546 204.871 219.645C206.528 220.744 194.806 219.965 194.806 219.965Z" fill="black"/>
<path opacity="0.1" d="M214.72 187.635C214.72 187.635 213.426 192.888 214.395 194.094C215.364 195.299 214.72 187.635 214.72 187.635Z" fill="black"/>
<path opacity="0.1" d="M190.349 183.342C190.349 183.342 191.55 185.291 190.818 187.315C190.085 189.338 190.349 183.342 190.349 183.342Z" fill="black"/>
<path opacity="0.1" d="M187.771 196.402C187.771 196.402 189.173 197.146 189.353 198.244C189.533 199.343 187.771 196.402 187.771 196.402Z" fill="black"/>
<path opacity="0.1" d="M208.538 238.844C208.538 238.844 217.346 239.733 219.104 237.658C219.104 237.674 211.16 239.219 208.538 238.844Z" fill="black"/>
<path opacity="0.1" d="M193.332 238.346C193.332 238.346 202.785 240.548 204.654 238.808C204.654 238.824 196.531 239.413 193.332 238.346Z" fill="black"/>
<path opacity="0.1" d="M209.219 241.718C209.219 241.718 213.174 241.718 215.008 241.824C216.842 241.93 209.219 241.718 209.219 241.718Z" fill="black"/>
<path opacity="0.1" d="M193.98 243.386C193.98 243.386 195.922 245.552 198.112 245.161C200.302 244.77 193.98 243.386 193.98 243.386Z" fill="black"/>
<path d="M197.781 154.731C197.172 155.664 197.152 156.743 196.98 157.779C196.544 160.312 195.341 162.655 193.529 164.499C191.807 166.309 189.441 167.95 188.993 170.159C188.572 172.258 190.006 174.278 190.758 176.322C192.76 181.709 189.958 187.362 189.157 192.924C188.933 194.461 189.201 196.426 191.119 196.936C191.719 197.094 192.404 197.074 192.944 197.331C193.665 197.671 193.885 198.383 194.017 199.019C194.5 201.304 194.667 203.643 194.514 205.972C194.426 207.281 194.33 208.783 195.579 209.684C196.217 210.072 196.919 210.348 197.653 210.498C199.622 211.024 202.169 211.439 203.498 210.214C204.054 209.7 204.263 208.972 204.959 208.565C206 207.957 207.478 208.368 208.787 208.431C210.029 208.482 211.262 208.202 212.357 207.622C213.452 207.041 214.369 206.181 215.012 205.13C216.073 203.241 215.981 201.098 215.589 199.067C215.197 197.035 214.516 195.027 214.468 192.971C214.405 192.253 214.567 191.532 214.932 190.908C215.733 189.682 217.595 189.125 218.872 188.165C221.274 186.362 221.25 183.421 220.385 180.931C219.521 178.44 217.955 176.092 217.763 173.535C217.678 172.917 217.802 172.289 218.115 171.748C218.547 171.247 219.047 170.807 219.601 170.44C223.088 167.534 222.675 162.759 219.793 159.494C216.598 155.858 202.145 148.059 197.781 154.731Z" fill="#E3787D"/>
<g opacity="0.1">
<path opacity="0.1" d="M191.226 178.591C191.566 176.445 191.376 174.25 190.673 172.191C190.297 171.159 189.744 170.136 189.34 169.104C189.142 169.478 188.996 169.877 188.908 170.29C188.487 172.389 189.921 174.409 190.673 176.452C190.929 177.145 191.114 177.862 191.226 178.591Z" fill="black"/>
<path opacity="0.1" d="M194.436 201.841C194.589 199.512 194.422 197.173 193.94 194.888C193.808 194.252 193.587 193.54 192.867 193.2C192.326 192.943 191.642 192.963 191.041 192.805C190.675 192.716 190.334 192.546 190.043 192.309C189.753 192.071 189.521 191.772 189.363 191.433C189.255 191.971 189.159 192.512 189.079 193.05C188.855 194.588 189.123 196.552 191.041 197.062C191.642 197.22 192.326 197.201 192.867 197.458C193.587 197.801 193.808 198.509 193.94 199.149C194.162 200.209 194.317 201.281 194.404 202.359C194.412 202.185 194.424 202.011 194.436 201.841Z" fill="black"/>
<path opacity="0.1" d="M214.936 200.999C214.293 202.05 213.376 202.911 212.281 203.491C211.185 204.072 209.952 204.351 208.71 204.3C207.401 204.237 205.908 203.826 204.883 204.434C204.19 204.83 203.978 205.569 203.421 206.083C202.092 207.308 199.546 206.893 197.576 206.367C196.842 206.218 196.141 205.941 195.506 205.549C194.963 205.155 194.596 204.568 194.481 203.913C194.481 204.64 194.481 205.371 194.437 206.099C194.349 207.407 194.253 208.909 195.506 209.81C196.143 210.199 196.843 210.475 197.576 210.625C199.546 211.15 202.092 211.565 203.421 210.344C203.978 209.826 204.19 209.099 204.883 208.692C205.924 208.083 207.401 208.494 208.71 208.557C209.952 208.609 211.185 208.329 212.281 207.749C213.376 207.168 214.293 206.307 214.936 205.257C215.957 203.442 215.913 201.391 215.556 199.43C215.42 199.978 215.211 200.505 214.936 200.999Z" fill="black"/>
<path opacity="0.1" d="M219.493 166.277C218.947 166.654 218.457 167.105 218.039 167.617C217.726 168.159 217.602 168.787 217.687 169.404C217.758 170.182 217.924 170.948 218.184 171.685C218.583 171.262 219.021 170.877 219.493 170.535C221.851 168.558 222.423 165.752 221.659 163.123C221.257 164.357 220.505 165.452 219.493 166.277Z" fill="black"/>
<path opacity="0.1" d="M218.795 184.034C217.517 184.994 215.656 185.552 214.855 186.773C214.491 187.4 214.329 188.121 214.391 188.84C214.421 189.671 214.525 190.498 214.699 191.311C214.743 191.215 214.795 191.122 214.855 191.034C215.656 189.809 217.517 189.251 218.795 188.291C220.973 186.643 221.157 184.038 220.512 181.713C220.182 182.636 219.585 183.443 218.795 184.034Z" fill="black"/>
</g>
<path d="M235.21 184.903C233.736 188.595 231.827 190.042 231.827 190.042H230.766L221.441 190.137L220.364 187.228L221.874 180.947L222.806 180.982C223.367 181.275 223.976 181.468 224.604 181.551C225.289 181.551 226.606 181.516 227.006 181.694C227.062 181.717 227.123 181.726 227.182 181.717C227.535 181.682 227.903 181.16 227.903 181.16C227.903 181.16 236.679 181.212 235.21 184.903Z" fill="#A32100"/>
<path opacity="0.1" d="M235.211 184.903C233.737 188.595 231.828 190.042 231.828 190.042H230.767C231.323 188.579 232.488 185.579 232.945 184.903C233.401 184.227 229.473 182.614 227.191 181.741C227.544 181.705 227.912 181.183 227.912 181.183C227.912 181.183 236.68 181.211 235.211 184.903Z" fill="black"/>
<defs>
<linearGradient id="paint0_linear" x1="229.961" y1="187.781" x2="229.961" y2="152.703" gradientUnits="userSpaceOnUse">
<stop stop-color="#808080" stop-opacity="0.25"/>
<stop offset="0.54" stop-color="#808080" stop-opacity="0.12"/>
<stop offset="1" stop-color="#808080" stop-opacity="0.1"/>
</linearGradient>
<linearGradient id="paint1_linear" x1="6390.31" y1="7396.77" x2="6390.31" y2="7219.1" gradientUnits="userSpaceOnUse">
<stop stop-color="#808080" stop-opacity="0.25"/>
<stop offset="0.54" stop-color="#808080" stop-opacity="0.12"/>
<stop offset="1" stop-color="#808080" stop-opacity="0.1"/>
</linearGradient>
<linearGradient id="paint2_linear" x1="6024.1" y1="7362.58" x2="6024.1" y2="7184.82" gradientUnits="userSpaceOnUse">
<stop stop-color="#808080" stop-opacity="0.25"/>
<stop offset="0.54" stop-color="#808080" stop-opacity="0.12"/>
<stop offset="1" stop-color="#808080" stop-opacity="0.1"/>
</linearGradient>
<linearGradient id="paint3_linear" x1="3766.5" y1="3003.57" x2="3766.5" y2="2977.25" gradientUnits="userSpaceOnUse">
<stop stop-color="#808080" stop-opacity="0.25"/>
<stop offset="0.54" stop-color="#808080" stop-opacity="0.12"/>
<stop offset="1" stop-color="#808080" stop-opacity="0.1"/>
</linearGradient>
<linearGradient id="paint4_linear" x1="4241.75" y1="3108.51" x2="4241.75" y2="3080.02" gradientUnits="userSpaceOnUse">
<stop stop-color="#808080" stop-opacity="0.25"/>
<stop offset="0.54" stop-color="#808080" stop-opacity="0.12"/>
<stop offset="1" stop-color="#808080" stop-opacity="0.1"/>
</linearGradient>
<linearGradient id="paint5_linear" x1="20053" y1="71018.3" x2="20053" y2="52830.5" gradientUnits="userSpaceOnUse">
<stop stop-color="#808080" stop-opacity="0.25"/>
<stop offset="0.54" stop-color="#808080" stop-opacity="0.12"/>
<stop offset="1" stop-color="#808080" stop-opacity="0.1"/>
</linearGradient>
<linearGradient id="paint6_linear" x1="3251.75" y1="432.035" x2="3251.75" y2="431.906" gradientUnits="userSpaceOnUse">
<stop stop-color="#808080" stop-opacity="0.25"/>
<stop offset="0.54" stop-color="#808080" stop-opacity="0.12"/>
<stop offset="1" stop-color="#808080" stop-opacity="0.1"/>
</linearGradient>
<linearGradient id="paint7_linear" x1="3242.14" y1="650.348" x2="3242.14" y2="649.668" gradientUnits="userSpaceOnUse">
<stop stop-color="#808080" stop-opacity="0.25"/>
<stop offset="0.54" stop-color="#808080" stop-opacity="0.12"/>
<stop offset="1" stop-color="#808080" stop-opacity="0.1"/>
</linearGradient>
<linearGradient id="paint8_linear" x1="2478.64" y1="910.565" x2="2478.64" y2="908.63" gradientUnits="userSpaceOnUse">
<stop stop-color="#808080" stop-opacity="0.25"/>
<stop offset="0.54" stop-color="#808080" stop-opacity="0.12"/>
<stop offset="1" stop-color="#808080" stop-opacity="0.1"/>
</linearGradient>
<linearGradient id="paint9_linear" x1="3572.29" y1="12752.6" x2="3572.29" y2="11747.9" gradientUnits="userSpaceOnUse">
<stop stop-color="#808080" stop-opacity="0.25"/>
<stop offset="0.54" stop-color="#808080" stop-opacity="0.12"/>
<stop offset="1" stop-color="#808080" stop-opacity="0.1"/>
</linearGradient>
<linearGradient id="paint10_linear" x1="9015.74" y1="7434.21" x2="9015.74" y2="6742.89" gradientUnits="userSpaceOnUse">
<stop stop-color="#808080" stop-opacity="0.25"/>
<stop offset="0.54" stop-color="#808080" stop-opacity="0.12"/>
<stop offset="1" stop-color="#808080" stop-opacity="0.1"/>
</linearGradient>
<linearGradient id="paint11_linear" x1="9893.57" y1="6705.3" x2="9893.57" y2="6295.22" gradientUnits="userSpaceOnUse">
<stop stop-color="#808080" stop-opacity="0.25"/>
<stop offset="0.54" stop-color="#808080" stop-opacity="0.12"/>
<stop offset="1" stop-color="#808080" stop-opacity="0.1"/>
</linearGradient>
<linearGradient id="paint12_linear" x1="19786.1" y1="3978.78" x2="19786.1" y2="3890.45" gradientUnits="userSpaceOnUse">
<stop stop-color="#808080" stop-opacity="0.25"/>
<stop offset="0.54" stop-color="#808080" stop-opacity="0.12"/>
<stop offset="1" stop-color="#808080" stop-opacity="0.1"/>
</linearGradient>
<linearGradient id="paint13_linear" x1="23387.7" y1="34519.2" x2="23387.7" y2="27090.4" gradientUnits="userSpaceOnUse">
<stop stop-color="#808080" stop-opacity="0.25"/>
<stop offset="0.54" stop-color="#808080" stop-opacity="0.12"/>
<stop offset="1" stop-color="#808080" stop-opacity="0.1"/>
</linearGradient>
<linearGradient id="paint14_linear" x1="4882.38" y1="11677" x2="4882.38" y2="10692.1" gradientUnits="userSpaceOnUse">
<stop stop-color="#808080" stop-opacity="0.25"/>
<stop offset="0.54" stop-color="#808080" stop-opacity="0.12"/>
<stop offset="1" stop-color="#808080" stop-opacity="0.1"/>
</linearGradient>
<linearGradient id="paint15_linear" x1="4882.2" y1="2631.08" x2="4882.2" y2="2587.24" gradientUnits="userSpaceOnUse">
<stop stop-color="#808080" stop-opacity="0.25"/>
<stop offset="0.54" stop-color="#808080" stop-opacity="0.12"/>
<stop offset="1" stop-color="#808080" stop-opacity="0.1"/>
</linearGradient>
<linearGradient id="paint16_linear" x1="14401.2" y1="2863.8" x2="14401.2" y2="2811.07" gradientUnits="userSpaceOnUse">
<stop stop-color="#808080" stop-opacity="0.25"/>
<stop offset="0.54" stop-color="#808080" stop-opacity="0.12"/>
<stop offset="1" stop-color="#808080" stop-opacity="0.1"/>
</linearGradient>
<linearGradient id="paint17_linear" x1="1867.49" y1="4530.72" x2="1867.49" y2="4402.5" gradientUnits="userSpaceOnUse">
<stop stop-color="#808080" stop-opacity="0.25"/>
<stop offset="0.54" stop-color="#808080" stop-opacity="0.12"/>
<stop offset="1" stop-color="#808080" stop-opacity="0.1"/>
</linearGradient>
<linearGradient id="paint18_linear" x1="6096.13" y1="834.182" x2="6096.13" y2="831.589" gradientUnits="userSpaceOnUse">
<stop stop-color="#808080" stop-opacity="0.25"/>
<stop offset="0.54" stop-color="#808080" stop-opacity="0.12"/>
<stop offset="1" stop-color="#808080" stop-opacity="0.1"/>
</linearGradient>
<linearGradient id="paint19_linear" x1="763.914" y1="3783.6" x2="763.914" y2="3672.04" gradientUnits="userSpaceOnUse">
<stop stop-color="#808080" stop-opacity="0.25"/>
<stop offset="0.54" stop-color="#808080" stop-opacity="0.12"/>
<stop offset="1" stop-color="#808080" stop-opacity="0.1"/>
</linearGradient>
<linearGradient id="paint20_linear" x1="598.242" y1="2506.46" x2="598.242" y2="2456.85" gradientUnits="userSpaceOnUse">
<stop stop-color="#808080" stop-opacity="0.25"/>
<stop offset="0.54" stop-color="#808080" stop-opacity="0.12"/>
<stop offset="1" stop-color="#808080" stop-opacity="0.1"/>
</linearGradient>
<linearGradient id="paint21_linear" x1="794.067" y1="1670.8" x2="794.067" y2="1653.59" gradientUnits="userSpaceOnUse">
<stop stop-color="#808080" stop-opacity="0.25"/>
<stop offset="0.54" stop-color="#808080" stop-opacity="0.12"/>
<stop offset="1" stop-color="#808080" stop-opacity="0.1"/>
</linearGradient>
<linearGradient id="paint22_linear" x1="1057.26" y1="1360.81" x2="1057.26" y2="1349.55" gradientUnits="userSpaceOnUse">
<stop stop-color="#808080" stop-opacity="0.25"/>
<stop offset="0.54" stop-color="#808080" stop-opacity="0.12"/>
<stop offset="1" stop-color="#808080" stop-opacity="0.1"/>
</linearGradient>
<linearGradient id="paint23_linear" x1="6687.81" y1="1141.01" x2="6687.81" y2="1136.23" gradientUnits="userSpaceOnUse">
<stop stop-color="#808080" stop-opacity="0.25"/>
<stop offset="0.54" stop-color="#808080" stop-opacity="0.12"/>
<stop offset="1" stop-color="#808080" stop-opacity="0.1"/>
</linearGradient>
<linearGradient id="paint24_linear" x1="6700.54" y1="985.769" x2="6700.54" y2="982.491" gradientUnits="userSpaceOnUse">
<stop stop-color="#808080" stop-opacity="0.25"/>
<stop offset="0.54" stop-color="#808080" stop-opacity="0.12"/>
<stop offset="1" stop-color="#808080" stop-opacity="0.1"/>
</linearGradient>
<linearGradient id="paint25_linear" x1="3909.04" y1="331.12" x2="3909.04" y2="331.074" gradientUnits="userSpaceOnUse">
<stop stop-color="#808080" stop-opacity="0.25"/>
<stop offset="0.54" stop-color="#808080" stop-opacity="0.12"/>
<stop offset="1" stop-color="#808080" stop-opacity="0.1"/>
</linearGradient>
<linearGradient id="paint26_linear" x1="2801.77" y1="1477.21" x2="2801.77" y2="1468.66" gradientUnits="userSpaceOnUse">
<stop stop-color="#808080" stop-opacity="0.25"/>
<stop offset="0.54" stop-color="#808080" stop-opacity="0.12"/>
<stop offset="1" stop-color="#808080" stop-opacity="0.1"/>
</linearGradient>
<linearGradient id="paint27_linear" x1="19800.7" y1="34877.6" x2="19800.7" y2="25950.5" gradientUnits="userSpaceOnUse">
<stop stop-color="#808080" stop-opacity="0.25"/>
<stop offset="0.54" stop-color="#808080" stop-opacity="0.12"/>
<stop offset="1" stop-color="#808080" stop-opacity="0.1"/>
</linearGradient>
<linearGradient id="paint28_linear" x1="1599.15" y1="4968.2" x2="1599.15" y2="4736.7" gradientUnits="userSpaceOnUse">
<stop stop-color="#808080" stop-opacity="0.25"/>
<stop offset="0.54" stop-color="#808080" stop-opacity="0.12"/>
<stop offset="1" stop-color="#808080" stop-opacity="0.1"/>
</linearGradient>
<linearGradient id="paint29_linear" x1="3235.81" y1="6384.3" x2="3235.81" y2="6077.38" gradientUnits="userSpaceOnUse">
<stop stop-color="#808080" stop-opacity="0.25"/>
<stop offset="0.54" stop-color="#808080" stop-opacity="0.12"/>
<stop offset="1" stop-color="#808080" stop-opacity="0.1"/>
</linearGradient>
<linearGradient id="paint30_linear" x1="12828.8" y1="7104.29" x2="12828.8" y2="6751.58" gradientUnits="userSpaceOnUse">
<stop stop-color="#808080" stop-opacity="0.25"/>
<stop offset="0.54" stop-color="#808080" stop-opacity="0.12"/>
<stop offset="1" stop-color="#808080" stop-opacity="0.1"/>
</linearGradient>
<linearGradient id="paint31_linear" x1="2930.59" y1="4341.92" x2="2930.59" y2="4153.37" gradientUnits="userSpaceOnUse">
<stop stop-color="#808080" stop-opacity="0.25"/>
<stop offset="0.54" stop-color="#808080" stop-opacity="0.12"/>
<stop offset="1" stop-color="#808080" stop-opacity="0.1"/>
</linearGradient>
<linearGradient id="paint32_linear" x1="4238.99" y1="5352.48" x2="4238.99" y2="5115.5" gradientUnits="userSpaceOnUse">
<stop stop-color="#808080" stop-opacity="0.25"/>
<stop offset="0.54" stop-color="#808080" stop-opacity="0.12"/>
<stop offset="1" stop-color="#808080" stop-opacity="0.1"/>
</linearGradient>
<linearGradient id="paint33_linear" x1="9969.06" y1="5098.46" x2="9969.06" y2="4881.46" gradientUnits="userSpaceOnUse">
<stop stop-color="#808080" stop-opacity="0.25"/>
<stop offset="0.54" stop-color="#808080" stop-opacity="0.12"/>
<stop offset="1" stop-color="#808080" stop-opacity="0.1"/>
</linearGradient>
<linearGradient id="paint34_linear" x1="5615.45" y1="4936.9" x2="5615.45" y2="4733.93" gradientUnits="userSpaceOnUse">
<stop stop-color="#808080" stop-opacity="0.25"/>
<stop offset="0.54" stop-color="#808080" stop-opacity="0.12"/>
<stop offset="1" stop-color="#808080" stop-opacity="0.1"/>
</linearGradient>
</defs>
</svg>
