<?xml version="1.0" encoding="utf-8"?>
<!-- Generator: Adobe Illustrator 16.0.0, SVG Export Plug-In . SVG Version: 6.00 Build 0)  -->
<!DOCTYPE svg PUBLIC "-//W3C//DTD SVG 1.1//EN" "http://www.w3.org/Graphics/SVG/1.1/DTD/svg11.dtd">
<svg version="1.1" id="Layer_1" xmlns="http://www.w3.org/2000/svg" xmlns:xlink="http://www.w3.org/1999/xlink" x="0px" y="0px"
	 width="7.483px" height="13px" viewBox="252.26 249.506 7.483 13" enable-background="new 252.26 249.506 7.483 13"
	 xml:space="preserve">
<path fill="#A32100" d="M254.293,253.889c0-0.684,1-0.8,1.866-0.8c0.817,0,1.933,0.383,2.867,0.867l0.184-1.883
	c-0.467-0.267-1.55-0.584-2.65-0.65l0.267-1.917h-1.783l0.267,1.917c-2.3,0.216-3.05,1.549-3.05,2.666
	c0,2.816,5.249,2.217,5.249,3.95c0,0.65-0.616,0.883-1.699,0.883c-1.466,0-2.567-0.516-3.133-1.05l-0.284,2.117
	c0.534,0.316,1.616,0.6,2.917,0.667l-0.267,1.85h1.783l-0.267-1.867c2.7-0.233,3.184-1.667,3.184-2.616
	C259.743,254.673,254.293,255.505,254.293,253.889z"/>
</svg>
