<svg width="34" height="24" viewBox="0 0 34 24" fill="none" xmlns="http://www.w3.org/2000/svg">
<path d="M33.1829 7.48397L26.5162 0.817301C26.3608 0.661904 26.1764 0.538636 25.9733 0.454535C25.7703 0.370435 25.5527 0.327148 25.3329 0.327148C24.8891 0.327148 24.4634 0.503462 24.1496 0.817301C23.8357 1.13114 23.6594 1.5568 23.6594 2.00063C23.6594 2.44447 23.8357 2.87013 24.1496 3.18397L27.9829 7.00063H8.66625C8.22422 7.00063 7.8003 7.17623 7.48774 7.48879C7.17518 7.80135 6.99958 8.22527 6.99958 8.6673C6.99958 9.10933 7.17518 9.53325 7.48774 9.84581C7.8003 10.1584 8.22422 10.334 8.66625 10.334H31.9996C32.3286 10.3323 32.6498 10.2333 32.9227 10.0494C33.1955 9.86554 33.4079 9.605 33.5329 9.30063C33.6605 8.99712 33.6954 8.66259 33.6331 8.33928C33.5708 8.01596 33.4142 7.71834 33.1829 7.48397ZM25.3329 13.6673H1.99958C1.67054 13.6689 1.34935 13.7679 1.07648 13.9518C0.803611 14.1357 0.591282 14.3963 0.466248 14.7006C0.338616 15.0042 0.303745 15.3387 0.366035 15.662C0.428325 15.9853 0.584985 16.2829 0.816248 16.5173L7.48291 23.184C7.63785 23.3402 7.82219 23.4642 8.02529 23.5488C8.22839 23.6334 8.44623 23.677 8.66625 23.677C8.88627 23.677 9.10411 23.6334 9.30721 23.5488C9.51031 23.4642 9.69464 23.3402 9.84958 23.184C10.0058 23.029 10.1298 22.8447 10.2144 22.6416C10.299 22.4385 10.3426 22.2207 10.3426 22.0006C10.3426 21.7806 10.299 21.5628 10.2144 21.3597C10.1298 21.1566 10.0058 20.9722 9.84958 20.8173L6.01625 17.0006H25.3329C25.7749 17.0006 26.1989 16.825 26.5114 16.5125C26.824 16.1999 26.9996 15.776 26.9996 15.334C26.9996 14.8919 26.824 14.468 26.5114 14.1555C26.1989 13.8429 25.7749 13.6673 25.3329 13.6673Z" fill="#501100"/>
</svg>
