<svg width="40" height="39" viewBox="0 0 40 39" fill="none" xmlns="http://www.w3.org/2000/svg">
<path d="M35 38.75H5C3.61979 38.75 2.44141 38.2617 1.46484 37.2852C0.488281 36.3086 0 35.1302 0 33.75C0 32.3698 0.488281 31.1914 1.46484 30.2148C2.44141 29.2383 3.61979 28.75 5 28.75H35C36.3802 28.75 37.5586 29.2383 38.5352 30.2148C39.5117 31.1914 40 32.3698 40 33.75C40 35.1302 39.5117 36.3086 38.5352 37.2852C37.5586 38.2617 36.3802 38.75 35 38.75ZM7.48047 31.25C6.79036 31.25 6.20443 31.4974 5.72266 31.9922C5.24089 32.487 5 33.0794 5 33.7695C5 34.4596 5.24089 35.0456 5.72266 35.5273C6.20443 36.0091 6.79036 36.25 7.48047 36.25C8.17057 36.25 8.76302 36.0091 9.25781 35.5273C9.7526 35.0456 10 34.4596 10 33.7695C10 33.0794 9.7526 32.487 9.25781 31.9922C8.76302 31.4974 8.17057 31.25 7.48047 31.25ZM32.5 31.25H17.5C16.7969 31.25 16.2044 31.4974 15.7227 31.9922C15.2409 32.487 15 33.0794 15 33.7695C15 34.4596 15.2409 35.0456 15.7227 35.5273C16.2044 36.0091 16.7969 36.25 17.5 36.25H32.5C33.1771 36.25 33.763 36.0091 34.2578 35.5273C34.7526 35.0456 35 34.4596 35 33.7695C35 33.0794 34.7526 32.487 34.2578 31.9922C33.763 31.4974 33.1771 31.25 32.5 31.25ZM31.25 16.25H29.6875C29.4531 17.1615 29.0755 18.0469 28.5547 18.9062L29.2969 19.6484C29.7656 20.1172 30 20.6836 30 21.3477C30 22.0117 29.7656 22.5781 29.2969 23.0469C28.8281 23.5156 28.2617 23.75 27.5977 23.75C26.9336 23.75 26.3672 23.5156 25.8984 23.0469L25.1562 22.2656C24.2969 22.7865 23.4115 23.1641 22.5 23.3984V25C22.5 25.7031 22.2591 26.2956 21.7773 26.7773C21.2956 27.2591 20.7096 27.5 20.0195 27.5C19.3294 27.5 18.737 27.2591 18.2422 26.7773C17.7474 26.2956 17.5 25.7031 17.5 25V23.3984C16.5885 23.1641 15.7031 22.7865 14.8438 22.2656L14.0625 23.0469C13.5938 23.5156 13.0273 23.75 12.3633 23.75C11.6992 23.75 11.1328 23.5156 10.6641 23.0469C10.1953 22.5781 9.96094 22.0117 9.96094 21.3477C9.96094 20.6836 10.1953 20.1172 10.6641 19.6484L11.4453 18.8672C10.9245 18.0339 10.5469 17.1615 10.3125 16.25H8.75C8.04688 16.25 7.45443 16.0091 6.97266 15.5273C6.49089 15.0456 6.25 14.4596 6.25 13.7695C6.25 13.0794 6.49089 12.487 6.97266 11.9922C7.45443 11.4974 8.04688 11.25 8.75 11.25H10.3125C10.5469 10.3385 10.9245 9.45312 11.4453 8.59375L10.6641 7.8125C10.1953 7.34375 9.96094 6.77734 9.96094 6.11328C9.96094 5.44922 10.1953 4.88281 10.6641 4.41406C11.1328 3.94531 11.6992 3.71094 12.3633 3.71094C13.0273 3.71094 13.5938 3.94531 14.0625 4.41406L14.8438 5.23438C15.7031 4.71354 16.5885 4.33594 17.5 4.10156V2.5C17.5 1.82292 17.7409 1.23698 18.2227 0.742188C18.7044 0.247396 19.2904 0 19.9805 0C20.6706 0 21.263 0.247396 21.7578 0.742188C22.2526 1.23698 22.5 1.82292 22.5 2.5V4.10156C23.4115 4.33594 24.2839 4.70052 25.1172 5.19531L25.8984 4.41406C26.3672 3.94531 26.9336 3.71094 27.5977 3.71094C28.2617 3.71094 28.8281 3.94531 29.2969 4.41406C29.7656 4.88281 30 5.44922 30 6.11328C30 6.77734 29.7656 7.34375 29.2969 7.8125L28.5156 8.55469C29.0625 9.4401 29.4531 10.3385 29.6875 11.25H31.25C31.9531 11.25 32.5456 11.4974 33.0273 11.9922C33.5091 12.487 33.75 13.0794 33.75 13.7695C33.75 14.4596 33.5026 15.0456 33.0078 15.5273C32.513 16.0091 31.9271 16.25 31.25 16.25ZM20 8.75C18.6198 8.75 17.4414 9.23828 16.4648 10.2148C15.4883 11.1914 15 12.3698 15 13.75C15 15.1302 15.4883 16.3086 16.4648 17.2852C17.4414 18.2617 18.6198 18.75 20 18.75C21.3802 18.75 22.5586 18.2617 23.5352 17.2852C24.5117 16.3086 25 15.1302 25 13.75C25 12.3698 24.5117 11.1914 23.5352 10.2148C22.5586 9.23828 21.3802 8.75 20 8.75Z" fill="#C30712"/>
</svg>
