<svg xmlns="http://www.w3.org/2000/svg" width="71" height="66" viewBox="0 0 71 66">
  <g id="Group_62" data-name="Group 62" transform="translate(-206.193 -3272.717)">
    <g id="Ellipse_57" data-name="Ellipse 57" transform="translate(222.193 3272.717)" fill="none" stroke="#a32100" stroke-width="4">
      <ellipse cx="7" cy="7.5" rx="7" ry="7.5" stroke="none"/>
      <ellipse cx="7" cy="7.5" rx="5" ry="5.5" fill="none"/>
    </g>
    <g id="Ellipse_62" data-name="Ellipse 62" transform="translate(236.193 3295.717)" fill="none" stroke="#a32100" stroke-width="4">
      <ellipse cx="7" cy="7.5" rx="7" ry="7.5" stroke="none"/>
      <ellipse cx="7" cy="7.5" rx="5" ry="5.5" fill="none"/>
    </g>
    <g id="Ellipse_58" data-name="Ellipse 58" transform="translate(252.193 3273.717)" fill="none" stroke="#a32100" stroke-width="4">
      <circle cx="7" cy="7" r="7" stroke="none"/>
      <circle cx="7" cy="7" r="5" fill="none"/>
    </g>
    <g id="Ellipse_59" data-name="Ellipse 59" transform="translate(263.193 3306.717)" fill="none" stroke="#a32100" stroke-width="4">
      <ellipse cx="7" cy="7.5" rx="7" ry="7.5" stroke="none"/>
      <ellipse cx="7" cy="7.5" rx="5" ry="5.5" fill="none"/>
    </g>
    <g id="Ellipse_60" data-name="Ellipse 60" transform="translate(222.193 3322.717)" fill="none" stroke="#a32100" stroke-width="4">
      <ellipse cx="7" cy="8" rx="7" ry="8" stroke="none"/>
      <ellipse cx="7" cy="8" rx="5" ry="6" fill="none"/>
    </g>
    <g id="Ellipse_61" data-name="Ellipse 61" transform="translate(206.193 3298.717)" fill="none" stroke="#a32100" stroke-width="4">
      <ellipse cx="7" cy="7.5" rx="7" ry="7.5" stroke="none"/>
      <ellipse cx="7" cy="7.5" rx="5" ry="5.5" fill="none"/>
    </g>
    <line id="Line_10" data-name="Line 10" x2="6.824" y2="12.942" transform="translate(233.041 3285.681)" fill="none" stroke="#a32100" stroke-width="4"/>
    <line id="Line_11" data-name="Line 11" y1="1.412" x2="18.119" transform="translate(219.628 3304.506)" fill="none" stroke="#a32100" stroke-width="4"/>
    <line id="Line_12" data-name="Line 12" y1="16.005" x2="8.349" transform="translate(232.693 3309.212)" fill="none" stroke="#a32100" stroke-width="4"/>
    <line id="Line_13" data-name="Line 13" x1="15.295" y1="6.353" transform="translate(248.807 3305.212)" fill="none" stroke="#a32100" stroke-width="4"/>
    <line id="Line_14" data-name="Line 14" y1="12.236" x2="8.471" transform="translate(246.925 3286.387)" fill="none" stroke="#a32100" stroke-width="4"/>
  </g>
</svg>
