<svg width="32" height="32" viewBox="0 0 32 32" fill="none" xmlns="http://www.w3.org/2000/svg">
<path d="M6.9375 25.375H10.0625C10.2344 25.375 10.375 25.2344 10.375 25.0625V6.9375C10.375 6.76562 10.2344 6.625 10.0625 6.625H6.9375C6.76562 6.625 6.625 6.76562 6.625 6.9375V25.0625C6.625 25.2344 6.76562 25.375 6.9375 25.375ZM14.4375 14.4375H17.5625C17.7344 14.4375 17.875 14.2969 17.875 14.125V6.9375C17.875 6.76562 17.7344 6.625 17.5625 6.625H14.4375C14.2656 6.625 14.125 6.76562 14.125 6.9375V14.125C14.125 14.2969 14.2656 14.4375 14.4375 14.4375ZM21.9375 17.25H25.0625C25.2344 17.25 25.375 17.1094 25.375 16.9375V6.9375C25.375 6.76562 25.2344 6.625 25.0625 6.625H21.9375C21.7656 6.625 21.625 6.76562 21.625 6.9375V16.9375C21.625 17.1094 21.7656 17.25 21.9375 17.25ZM30.375 0.375H1.625C0.933594 0.375 0.375 0.933594 0.375 1.625V30.375C0.375 31.0664 0.933594 31.625 1.625 31.625H30.375C31.0664 31.625 31.625 31.0664 31.625 30.375V1.625C31.625 0.933594 31.0664 0.375 30.375 0.375ZM28.8125 28.8125H3.1875V3.1875H28.8125V28.8125Z" fill="#C30712"/>
</svg>
