<svg width="35" height="29" viewBox="0 0 35 29" fill="none" xmlns="http://www.w3.org/2000/svg">
<path d="M33.6536 24.7662C33.0061 24.1287 25.1598 21.0937 23.7361 20.5212C22.3198 19.9587 21.7548 18.4 21.7548 18.4C21.7548 18.4 21.1173 18.7525 21.1173 17.7625C21.1173 16.7712 21.7548 18.4 22.3923 14.5775C22.3923 14.5775 24.1611 14.0812 23.8098 9.97748H23.3848C23.3848 9.97748 24.4473 5.58998 23.3848 4.10498C22.3186 2.61998 21.9011 1.62998 19.5598 0.919982C17.2223 0.211232 18.0723 0.352482 16.3748 0.424982C14.6748 0.496232 13.2598 1.41623 13.2598 1.90998C13.2598 1.90998 12.1973 1.98123 11.7748 2.40623C11.3498 2.83123 10.6423 4.81123 10.6423 5.30623C10.6423 5.80123 10.9961 9.13123 11.3498 9.83623L10.9286 9.97373C10.5748 14.0787 12.3436 14.5762 12.3436 14.5762C12.9811 18.3987 13.6186 16.77 13.6186 17.7612C13.6186 18.7512 12.9811 18.3987 12.9811 18.3987C12.9811 18.3987 12.4148 19.9562 10.9998 20.52C9.58484 21.0862 1.72984 24.1287 1.09109 24.765C0.453589 25.415 0.524839 28.385 0.524839 28.385H34.2173C34.2173 28.385 34.2961 25.4125 33.6511 24.7637L33.6536 24.7662ZM25.7348 27.5787H20.0323V26.0162H25.7348V27.5787Z" fill="#C30712"/>
</svg>
