<svg width="40" height="40" viewBox="0 0 40 40" fill="none" xmlns="http://www.w3.org/2000/svg">
<path d="M4.76563 10.9764L23.125 0.390434C23.8281 -0.000191055 24.5638 -0.0913369 25.332 0.116996C26.1003 0.32533 26.6797 0.768038 27.0703 1.44512L39.6094 23.1248C39.9479 23.7238 40.0651 24.3488 39.9609 24.9998C31.9661 24.9998 24.7656 23.6977 18.3594 21.0936C11.9531 18.4894 7.42188 15.117 4.76563 10.9764ZM37.8516 27.4607L16.8359 39.6092C16.1589 39.9998 15.4362 40.0975 14.668 39.9022C13.8997 39.7068 13.3073 39.2576 12.8906 38.5545L0 17.4998C3.69792 20.4946 8.9388 22.8904 15.7227 24.6873C22.5065 26.4842 29.8828 27.4087 37.8516 27.4607Z" fill="#C30712"/>
</svg>
