<?xml version="1.0" encoding="UTF-8"?>
	<svg height="60px" enable-background="new 4.697 3.833 97.037 137.167" _ngcontent-fxq-c1="" version="1.1" viewBox="4.697 3.833 97.037 137.17" xml:space="preserve" xmlns="http://www.w3.org/2000/svg">
		<g>
			<path d="m95.353 139.72h-86.152l3.351-5.964h10.834c0.066 0 0.118-0.06 0.118-0.135v-5.979c0-0.073-0.051-0.132-0.118-0.132h-7.683l-0.21-0.051 4.298-8.722h9.556v-6.247h-7.633l-0.032 0.169c-6.174-13.3-7.533-15.642-10.457-23.082-14.375-36.657-7.346-92.174 44.809-84.191l0.799 0.071c4.141 0.373 23.219 2.077 28.207 2.339l-8.884 14.73c0.873 1.01 1.469 2.21 3.09 4.574 4.024 5.864 13.024 22.864 17.206 30.099 5.788 10.002 6.459 6.167 3.753 20.493-2.242 11.799-2.819 7.716-8.379 8.96-9.415 2.109-9.851-0.215-15.972-8.459-2.066-2.772-2.714-2.808-6.205-3.802-6.131-1.729-19.441-9.713-23.801-16.234-1.561-2.341-2.274-4.156-2.544-5.974 0 0-0.25-1.132-0.873-1.593-1.091-0.8-4.248-0.757-3.972 2.375 0.823 4.139 3.292 9.166 8.877 14.227 7.532 6.8 19.356 11.477 20.465 12.286 1.134 0.837 1.101 1.724 2.032 3.529 4.652 8.97 12.779 17.865 15.031 29.482h-8.784c-0.067 0-0.125 0.064-0.125 0.134v5.986c0 0.068 0.058 0.128 0.125 0.128h9.086l3.862 8.772h-7.943c0.068 0 0.118 0.059 0.118 0.132v5.979c0 0.064-0.041 0.118-0.093 0.127h10.707l3.536 5.973z" fill="#C32026">
            </path>
		</g>
	</svg>