<?xml version="1.0" encoding="utf-8"?>
<!-- Generator: Adobe Illustrator 16.0.0, SVG Export Plug-In . SVG Version: 6.00 Build 0)  -->
<!DOCTYPE svg PUBLIC "-//W3C//DTD SVG 1.1//EN" "http://www.w3.org/Graphics/SVG/1.1/DTD/svg11.dtd">
<svg version="1.1" id="Layer_1" xmlns="http://www.w3.org/2000/svg" xmlns:xlink="http://www.w3.org/1999/xlink" x="0px" y="0px"
	 width="144px" height="29.583px" viewBox="0 0 144 29.583" enable-background="new 0 0 144 29.583" xml:space="preserve">
<g>
	<g>
		<path fill="#C32026" d="M32.201,9.299c-0.539-0.539-0.804-1.187-0.804-1.957c0-0.762,0.265-1.374,0.804-1.913
			c0.528-0.541,1.184-0.846,1.955-0.846c0.73,0,1.374,0.305,1.914,0.846c0.57,0.539,0.846,1.15,0.846,1.913
			c0,0.77-0.276,1.418-0.846,1.957c-0.54,0.539-1.184,0.802-1.914,0.802C33.385,10.101,32.729,9.838,32.201,9.299z M31.704,12.861
			h4.861v16.32h-4.861V12.861z"/>
		<path fill="#C32026" d="M55.148,5.695c1.111,0.653,1.999,1.541,2.612,2.641c0.656,1.153,0.994,2.378,0.994,3.679
			c0,1.353-0.338,2.537-0.994,3.648c-0.613,1.108-1.5,1.954-2.612,2.568c-1.109,0.612-2.334,0.95-3.677,0.95h-5.128v10h-5.095V4.743
			h10.223C52.77,4.743,53.998,5.047,55.148,5.695z M52.929,14.128c0.614-0.495,0.92-1.184,0.92-2.03c0-0.887-0.307-1.532-0.92-2.071
			c-0.581-0.539-1.343-0.804-2.262-0.804h-4.324v5.708h4.324C51.586,14.932,52.348,14.656,52.929,14.128z"/>
		<path fill="#C32026" d="M75.688,12.861v16.32h-4.864v-1.679c-1.184,1.382-2.833,2.029-4.904,2.029c-1.46,0-2.8-0.424-4.028-1.152
			c-1.225-0.72-2.188-1.756-2.864-3.065c-0.739-1.303-1.12-2.719-1.12-4.293c0-1.521,0.38-2.948,1.12-4.249
			c0.676-1.301,1.639-2.336,2.864-3.109c1.228-0.76,2.568-1.109,4.028-1.109c2.071,0,3.721,0.656,4.904,1.999v-1.691H75.688z
			 M69.865,23.896c0.813-0.762,1.194-1.756,1.194-2.875c0-1.142-0.382-2.104-1.194-2.906c-0.804-0.804-1.798-1.195-2.908-1.195
			c-1.151,0-2.113,0.391-2.917,1.195c-0.804,0.802-1.185,1.764-1.185,2.906c0,1.12,0.381,2.113,1.185,2.875
			c0.804,0.846,1.766,1.226,2.917,1.226C68.067,25.122,69.061,24.742,69.865,23.896z"/>
		<path fill="#C32026" d="M95.349,12.861v16.32h-4.863v-1.679c-1.226,1.382-2.844,2.029-4.904,2.029c-1.501,0-2.8-0.424-4.028-1.152
			c-1.226-0.72-2.186-1.756-2.906-3.065c-0.698-1.303-1.078-2.719-1.078-4.293c0-1.521,0.38-2.948,1.078-4.249
			c0.721-1.301,1.681-2.336,2.906-3.109c1.228-0.76,2.527-1.109,4.028-1.109c2.061,0,3.679,0.656,4.904,1.999v-1.691H95.349z
			 M89.484,23.896c0.812-0.762,1.195-1.756,1.195-2.875c0-1.142-0.383-2.104-1.195-2.906c-0.763-0.804-1.767-1.195-2.865-1.195
			c-1.162,0-2.115,0.391-2.919,1.195c-0.802,0.802-1.184,1.764-1.184,2.906c0,1.12,0.382,2.113,1.184,2.875
			c0.804,0.846,1.757,1.226,2.919,1.226C87.717,25.122,88.721,24.742,89.484,23.896z"/>
		<path fill="#C32026" d="M100.751,27.997c-1.605-0.991-2.833-2.261-3.604-3.868l4.143-2.569c0.455,1.005,1.11,1.809,1.946,2.378
			c0.888,0.57,1.881,0.879,3.034,0.879c1.036,0,1.806-0.223,2.42-0.688c0.613-0.422,0.876-1.036,0.876-1.838
			c0-0.572-0.158-1.111-0.58-1.533c-0.382-0.423-0.877-0.772-1.459-1.035c-0.529-0.266-1.332-0.614-2.368-0.965
			c-1.46-0.57-2.644-1.065-3.563-1.562c-0.963-0.497-1.765-1.187-2.42-2.115c-0.646-0.952-0.994-2.178-0.994-3.635
			c0-1.491,0.38-2.792,1.078-3.871c0.718-1.077,1.681-1.837,2.833-2.376c1.184-0.541,2.409-0.806,3.752-0.806
			c1.459,0,2.844,0.31,4.101,0.921c1.301,0.613,2.422,1.459,3.299,2.495l-3.372,3.14c-1.226-1.417-2.568-2.104-4.027-2.104
			c-0.804,0-1.447,0.189-1.913,0.572c-0.497,0.38-0.762,0.95-0.762,1.72c0,0.583,0.189,1.069,0.528,1.459
			c0.351,0.382,0.804,0.729,1.376,0.994c0.549,0.265,1.309,0.583,2.303,0.921c1.501,0.539,2.728,1.078,3.637,1.575
			c0.961,0.497,1.807,1.257,2.452,2.292c0.698,0.994,1.036,2.305,1.036,3.986c0,1.426-0.338,2.685-1.109,3.794
			c-0.73,1.11-1.722,1.925-2.992,2.495c-1.257,0.614-2.644,0.879-4.166,0.879C104.196,29.532,102.4,29.035,100.751,27.997z"/>
		<path fill="#58595B" d="M115.464,28.884c-0.231-0.188-0.348-0.421-0.348-0.697c0-0.306,0.117-0.528,0.348-0.719
			c0.191-0.231,0.424-0.348,0.688-0.348c0.307,0,0.539,0.117,0.772,0.307c0.19,0.232,0.305,0.455,0.305,0.76
			c0,0.275-0.115,0.509-0.305,0.697c-0.233,0.224-0.465,0.297-0.772,0.297C115.889,29.181,115.655,29.108,115.464,28.884z"/>
		<path fill="#58595B" d="M119.641,28.884c-0.497-0.231-0.92-0.655-1.228-1.119c-0.304-0.498-0.463-1.036-0.463-1.65
			c0-0.614,0.159-1.184,0.463-1.649c0.308-0.484,0.731-0.877,1.228-1.141c0.539-0.275,1.109-0.379,1.764-0.379
			c0.688,0,1.301,0.146,1.84,0.497c0.539,0.347,0.962,0.833,1.225,1.446l-1.647,0.656c-0.117-0.307-0.307-0.528-0.541-0.729
			c-0.263-0.15-0.57-0.223-0.877-0.223c-0.456,0-0.877,0.148-1.152,0.424c-0.263,0.263-0.422,0.643-0.422,1.098
			c0,0.466,0.159,0.804,0.422,1.122c0.275,0.265,0.697,0.422,1.152,0.422c0.307,0,0.614-0.083,0.877-0.274
			c0.234-0.191,0.424-0.423,0.541-0.688l1.647,0.647c-0.263,0.612-0.687,1.12-1.225,1.458c-0.539,0.307-1.152,0.539-1.84,0.539
			C120.75,29.34,120.18,29.181,119.641,28.884z"/>
		<path fill="#58595B" d="M126.882,28.884c-0.498-0.273-0.921-0.655-1.228-1.152c-0.307-0.495-0.453-1.036-0.453-1.617
			c0-0.57,0.146-1.098,0.453-1.608c0.307-0.497,0.73-0.877,1.228-1.14c0.539-0.318,1.108-0.422,1.723-0.422
			c0.612,0,1.194,0.104,1.691,0.422c0.529,0.263,0.951,0.643,1.227,1.14c0.306,0.51,0.465,1.038,0.465,1.608
			c0,0.581-0.159,1.122-0.465,1.617c-0.276,0.497-0.698,0.879-1.227,1.152c-0.497,0.297-1.079,0.456-1.691,0.456
			C127.99,29.34,127.421,29.181,126.882,28.884z M129.724,27.194c0.265-0.274,0.424-0.656,0.424-1.078c0-0.296-0.085-0.528-0.2-0.76
			c-0.148-0.276-0.349-0.466-0.573-0.572c-0.231-0.159-0.497-0.19-0.77-0.19c-0.424,0-0.804,0.148-1.111,0.424
			c-0.307,0.296-0.455,0.643-0.455,1.098c0,0.422,0.148,0.804,0.455,1.078c0.307,0.309,0.687,0.465,1.111,0.465
			C129.026,27.659,129.407,27.502,129.724,27.194z"/>
		<path fill="#58595B" d="M141.214,23.241c0.349,0.203,0.646,0.507,0.846,0.845c0.19,0.38,0.265,0.773,0.265,1.195v3.9h-1.84v-3.68
			c0-0.294-0.073-0.484-0.265-0.685c-0.201-0.15-0.391-0.223-0.688-0.223c-0.273,0-0.539,0.073-0.697,0.265
			c-0.148,0.19-0.231,0.422-0.231,0.729v3.594h-1.84v-3.68c0-0.294-0.073-0.484-0.265-0.685c-0.19-0.15-0.422-0.223-0.687-0.223
			c-0.305,0-0.497,0.073-0.697,0.265c-0.149,0.19-0.222,0.422-0.222,0.729v3.594h-1.839V23.05h1.839v0.615
			c0.19-0.222,0.421-0.424,0.645-0.531c0.273-0.158,0.581-0.188,0.888-0.188c0.379,0,0.687,0.073,0.994,0.232
			c0.348,0.19,0.611,0.411,0.803,0.718c0.19-0.307,0.464-0.528,0.771-0.718c0.307-0.159,0.687-0.232,1.025-0.232
			C140.485,22.946,140.865,23.02,141.214,23.241z"/>
	</g>
	<path id="Path_10" fill-rule="evenodd" clip-rule="evenodd" fill="#C22126" d="M21.819,29.181H2.656l0.773-1.257h2.409v-0.042v-1.3
		v-0.044H4.115H4.071l0.963-1.871h2.103v-1.341H5.458v0.042c-1.387-2.844-1.692-3.383-2.347-4.99
		c-3.172-7.854-1.608-19.766,9.968-18.045h0.19c0.919,0.075,5.136,0.424,6.289,0.497L17.56,4.012
		c0.19,0.192,0.307,0.455,0.687,0.962c0.888,1.259,2.875,4.905,3.796,6.471c1.298,2.145,1.457,1.34,0.846,4.406
		c-0.455,2.527-0.614,1.649-1.84,1.957c-2.104,0.424-2.188-0.086-3.562-1.84c-0.465-0.57-0.572-0.614-1.374-0.802
		c-1.384-0.382-4.334-2.115-5.297-3.533c-0.349-0.497-0.497-0.877-0.57-1.267c0,0-0.042-0.265-0.2-0.338
		C9.78,9.879,9.093,9.879,9.167,10.566c0.202,0.835,0.73,1.957,1.998,3.023c1.65,1.491,4.293,2.496,4.525,2.641
		c0.266,0.203,0.266,0.393,0.456,0.773c1.067,1.913,2.831,3.827,3.372,6.322H17.56c-0.032,0-0.032,0.042-0.032,0.042v1.299
		c0,0,0,0,0.032,0h1.998l0.877,1.871H18.67v0.044l0,0v1.3l0,0h2.378L21.819,29.181z"/>
</g>
</svg>
