<svg width="58" height="43" viewBox="0 0 58 43" fill="none" xmlns="http://www.w3.org/2000/svg">
<path d="M45.45 42.65C40.55 42.65 37 40.9 34.8 37.4C33.8 35.9 33 34.05 32.4 31.85C31.8 29.65 31.5 27.35 31.5 24.95C31.5 19.75 32.8 15.05 35.4 10.85C38.1 6.65 42.05 3.35 47.25 0.949991L48.6 3.64999C45.7 4.84999 43.15 6.69999 40.95 9.19999C38.85 11.7 37.6 14.25 37.2 16.85C36.9 18.05 36.75 19.2 36.75 20.3C36.75 21.3 36.9 22.25 37.2 23.15C39.4 20.75 42.3 19.55 45.9 19.55C49.4 19.55 52.25 20.6 54.45 22.7C56.65 24.7 57.75 27.5 57.75 31.1C57.75 34.5 56.6 37.3 54.3 39.5C52 41.6 49.05 42.65 45.45 42.65ZM14.55 42.65C9.65 42.65 6.1 40.9 3.9 37.4C2.9 35.9 2.1 34.05 1.5 31.85C0.9 29.65 0.600001 27.35 0.600001 24.95C0.600001 19.75 1.9 15.05 4.5 10.85C7.2 6.65 11.15 3.35 16.35 0.949991L17.7 3.64999C14.8 4.84999 12.25 6.69999 10.05 9.19999C7.95 11.7 6.7 14.25 6.3 16.85C6 18.05 5.85 19.2 5.85 20.3C5.85 21.3 6 22.25 6.3 23.15C8.5 20.75 11.4 19.55 15 19.55C18.5 19.55 21.35 20.6 23.55 22.7C25.75 24.7 26.85 27.5 26.85 31.1C26.85 34.5 25.7 37.3 23.4 39.5C21.1 41.6 18.15 42.65 14.55 42.65Z" fill="black"/>
</svg>
