<svg width="34" height="40" viewBox="0 0 34 40" fill="none" xmlns="http://www.w3.org/2000/svg">
<path d="M33.3585 7.73517C33.2087 7.56412 33.0252 7.42582 32.8195 7.32894C32.6138 7.23205 32.3904 7.17865 32.1631 7.17209C28.6323 7.07979 24.1646 3.3044 21.2108 1.82286C19.3862 0.910554 18.1816 0.309015 17.277 0.150554C17.0933 0.123789 16.9066 0.124307 16.7231 0.152092C15.8185 0.310554 14.6139 0.912092 12.7908 1.8244C9.83695 3.3044 5.36926 7.07979 1.83849 7.17209C1.61106 7.17899 1.38747 7.23253 1.18158 7.32939C0.97569 7.42625 0.791888 7.56436 0.641566 7.73517C0.329986 8.08768 0.169227 8.54842 0.193874 9.01825C0.952335 24.4382 6.4831 33.9813 16.1877 39.5275C16.44 39.6706 16.72 39.7444 16.9985 39.7444C17.277 39.7444 17.557 39.6706 17.8108 39.5275C27.5154 33.9813 33.0446 24.4382 33.8046 9.01825C33.8307 8.54849 33.6704 8.08741 33.3585 7.73517ZM25.6416 13.7998L17.4523 25.8844C17.1585 26.3182 16.697 26.6059 16.24 26.6059C15.7816 26.6059 15.2723 26.3552 14.9508 26.0336L9.17849 20.2598C8.99003 20.0706 8.88422 19.8145 8.88422 19.5475C8.88422 19.2805 8.99003 19.0243 9.17849 18.8352L10.6046 17.4059C10.7942 17.2182 11.0502 17.1129 11.317 17.1129C11.5837 17.1129 11.8397 17.2182 12.0293 17.4059L15.7831 21.1598L22.3046 11.5336C22.4555 11.3134 22.6875 11.1617 22.9498 11.1119C23.2121 11.062 23.4834 11.1179 23.7046 11.2675L25.3739 12.3998C25.5944 12.5504 25.7463 12.7822 25.7965 13.0446C25.8467 13.3069 25.791 13.5784 25.6416 13.7998Z" fill="#501100"/>
</svg>
