<svg width="208" height="31" viewBox="0 0 208 31" fill="none" xmlns="http://www.w3.org/2000/svg">
<path d="M3.80469 0.628906L5.875 2.03516C4.66406 3.6888 4.03906 5.47266 4 7.38672V10.043H0.40625V7.77734C0.40625 6.44922 0.71875 5.13411 1.34375 3.83203C1.98177 2.52995 2.80208 1.46224 3.80469 0.628906ZM9.95703 0.628906L12.0273 2.03516C10.8164 3.6888 10.1914 5.47266 10.1523 7.38672V10.043H6.55859V7.77734C6.55859 6.44922 6.87109 5.13411 7.49609 3.83203C8.13411 2.52995 8.95443 1.46224 9.95703 0.628906ZM24.2356 30.92L19.5156 29.72L23.1156 19.16L14.5556 13.48H25.0356L28.7956 2.12L33.1156 3.4L36.4756 13.48H44.2356L47.0356 14.28L38.7956 20.28L42.0756 29.88L37.5956 29.72L31.5956 25.24L24.2356 30.92ZM21.6756 27.48L29.1956 21.88L36.7156 27.48L33.6756 18.92L40.6356 14.44H32.2356L29.1956 4.36L26.0756 14.44H17.7556L24.7156 18.92L21.6756 27.48ZM60.7981 30.92L56.0781 29.72L59.6781 19.16L51.1181 13.48H61.5981L65.3581 2.12L69.6781 3.4L73.0381 13.48H80.7981L83.5981 14.28L75.3581 20.28L78.6381 29.88L74.1581 29.72L68.1581 25.24L60.7981 30.92ZM58.2381 27.48L65.7581 21.88L73.2781 27.48L70.2381 18.92L77.1981 14.44H68.7981L65.7581 4.36L62.6381 14.44H54.3181L61.2781 18.92L58.2381 27.48ZM97.3606 30.92L92.6406 29.72L96.2406 19.16L87.6806 13.48H98.1606L101.921 2.12L106.241 3.4L109.601 13.48H117.361L120.161 14.28L111.921 20.28L115.201 29.88L110.721 29.72L104.721 25.24L97.3606 30.92ZM94.8006 27.48L102.321 21.88L109.841 27.48L106.801 18.92L113.761 14.44H105.361L102.321 4.36L99.2006 14.44H90.8806L97.8406 18.92L94.8006 27.48ZM133.923 30.92L129.203 29.72L132.803 19.16L124.243 13.48H134.723L138.483 2.12L142.803 3.4L146.163 13.48H153.923L156.723 14.28L148.483 20.28L151.763 29.88L147.283 29.72L141.283 25.24L133.923 30.92ZM131.363 27.48L138.883 21.88L146.403 27.48L143.363 18.92L150.323 14.44H141.923L138.883 4.36L135.763 14.44H127.443L134.403 18.92L131.363 27.48ZM170.486 30.92L165.766 29.72L169.366 19.16L160.806 13.48H171.286L175.046 2.12L179.366 3.4L182.726 13.48H190.486L193.286 14.28L185.046 20.28L188.326 29.88L183.846 29.72L177.846 25.24L170.486 30.92ZM167.926 27.48L175.446 21.88L182.966 27.48L179.926 18.92L186.886 14.44H178.486L175.446 4.36L172.326 14.44H164.006L170.966 18.92L167.926 27.48ZM198.551 10.5703L196.5 9.16406C197.711 7.47135 198.336 5.6875 198.375 3.8125V1H201.949V3.53906C201.936 4.84115 201.611 6.14323 200.973 7.44531C200.348 8.73438 199.54 9.77604 198.551 10.5703ZM204.547 10.5703L202.496 9.16406C203.707 7.47135 204.332 5.6875 204.371 3.8125V1H207.945V3.53906C207.932 4.84115 207.607 6.14323 206.969 7.44531C206.344 8.73438 205.536 9.77604 204.547 10.5703Z" fill="white"/>
</svg>
