<svg xmlns="http://www.w3.org/2000/svg" xmlns:xlink="http://www.w3.org/1999/xlink" width="532.375" height="447.472" viewBox="0 0 532.375 447.472">
  <defs>
    <filter id="Rectangle_8" x="29.88" y="0" width="156.801" height="100.445" filterUnits="userSpaceOnUse">
      <feOffset dy="3" input="SourceAlpha"/>
      <feGaussianBlur stdDeviation="5" result="blur"/>
      <feFlood flood-opacity="0.078"/>
      <feComposite operator="in" in2="blur"/>
      <feComposite in="SourceGraphic"/>
    </filter>
    <filter id="Rectangle_9" x="201.914" y="0" width="156.801" height="100.445" filterUnits="userSpaceOnUse">
      <feOffset dy="3" input="SourceAlpha"/>
      <feGaussianBlur stdDeviation="5" result="blur-2"/>
      <feFlood flood-opacity="0.078"/>
      <feComposite operator="in" in2="blur-2"/>
      <feComposite in="SourceGraphic"/>
    </filter>
    <filter id="Rectangle_10" x="373.948" y="0" width="156.801" height="100.445" filterUnits="userSpaceOnUse">
      <feOffset dy="3" input="SourceAlpha"/>
      <feGaussianBlur stdDeviation="5" result="blur-3"/>
      <feFlood flood-opacity="0.078"/>
      <feComposite operator="in" in2="blur-3"/>
      <feComposite in="SourceGraphic"/>
    </filter>
    <filter id="Path_39" x="68.558" y="163.498" width="395.26" height="276.127" filterUnits="userSpaceOnUse">
      <feOffset dy="3" input="SourceAlpha"/>
      <feGaussianBlur stdDeviation="6" result="blur-4"/>
      <feFlood flood-opacity="0.063"/>
      <feComposite operator="in" in2="blur-4"/>
      <feComposite in="SourceGraphic"/>
    </filter>
    <linearGradient id="linear-gradient" x1="9.046" y1="1" x2="9.046" gradientUnits="objectBoundingBox">
      <stop offset="0" stop-color="gray" stop-opacity="0.251"/>
      <stop offset="0.54" stop-color="gray" stop-opacity="0.122"/>
      <stop offset="1" stop-color="gray" stop-opacity="0.102"/>
    </linearGradient>
  </defs>
  <g id="Group_21" data-name="Group 21" transform="translate(-740.403 -211.367)">
    <g id="integrations" transform="translate(785.284 219.288)">
      <g transform="matrix(1, 0, 0, 1, -44.88, -7.92)" filter="url(#Rectangle_8)">
        <rect id="Rectangle_8-2" data-name="Rectangle 8" width="126.801" height="70.445" transform="translate(44.88 12)" fill="#fef8f7"/>
      </g>
      <g transform="matrix(1, 0, 0, 1, -44.88, -7.92)" filter="url(#Rectangle_9)">
        <rect id="Rectangle_9-2" data-name="Rectangle 9" width="126.801" height="70.445" transform="translate(216.91 12)" fill="#fef8f7"/>
      </g>
      <g transform="matrix(1, 0, 0, 1, -44.88, -7.92)" filter="url(#Rectangle_10)">
        <rect id="Rectangle_10-2" data-name="Rectangle 10" width="126.801" height="70.445" transform="translate(388.95 12)" fill="#fef8f7"/>
      </g>
      <rect id="Rectangle_11" data-name="Rectangle 11" width="126.43" height="6.303" transform="translate(0.185 0)" fill="#14171e"/>
      <rect id="Rectangle_12" data-name="Rectangle 12" width="126.801" height="6.303" transform="translate(172.219 0)" fill="#14171e"/>
      <rect id="Rectangle_13" data-name="Rectangle 13" width="126.43" height="6.303" transform="translate(344.253 0)" fill="#14171e"/>
      <rect id="Rectangle_14" data-name="Rectangle 14" width="22.987" height="16.314" transform="translate(9.64 16.128)" fill="#fff"/>
      <rect id="Rectangle_15" data-name="Rectangle 15" width="63.4" height="1.854" transform="translate(53.761 16.128)" fill="rgba(163,33,0,0.1)"/>
      <rect id="Rectangle_16" data-name="Rectangle 16" width="63.4" height="1.854" transform="translate(53.761 23.543)" fill="rgba(163,33,0,0.1)"/>
      <rect id="Rectangle_17" data-name="Rectangle 17" width="63.4" height="1.854" transform="translate(53.761 30.959)" fill="rgba(163,33,0,0.1)"/>
      <rect id="Rectangle_18" data-name="Rectangle 18" width="22.987" height="16.314" transform="translate(182.176 16.233)" fill="#fff"/>
      <rect id="Rectangle_19" data-name="Rectangle 19" width="63.4" height="1.854" transform="translate(225.794 16.128)" fill="rgba(163,33,0,0.1)"/>
      <rect id="Rectangle_20" data-name="Rectangle 20" width="63.4" height="1.854" transform="translate(225.794 23.543)" fill="rgba(163,33,0,0.1)"/>
      <rect id="Rectangle_21" data-name="Rectangle 21" width="63.4" height="1.854" transform="translate(225.794 30.959)" fill="rgba(163,33,0,0.1)"/>
      <rect id="Rectangle_22" data-name="Rectangle 22" width="22.987" height="16.314" transform="translate(353.707 16.128)" fill="#fff"/>
      <rect id="Rectangle_23" data-name="Rectangle 23" width="63.4" height="1.854" transform="translate(397.828 16.128)" fill="rgba(163,33,0,0.1)"/>
      <rect id="Rectangle_24" data-name="Rectangle 24" width="63.4" height="1.854" transform="translate(397.828 23.543)" fill="rgba(163,33,0,0.1)"/>
      <rect id="Rectangle_25" data-name="Rectangle 25" width="63.4" height="1.854" transform="translate(397.828 30.959)" fill="rgba(163,33,0,0.1)"/>
      <circle id="Ellipse_7" data-name="Ellipse 7" cx="7.415" cy="7.415" r="7.415" transform="translate(13.718 17.055)" fill="#a32100"/>
      <circle id="Ellipse_8" data-name="Ellipse 8" cx="7.415" cy="7.415" r="7.415" transform="translate(357.786 17.055)" fill="#a32100"/>
      <rect id="Rectangle_26" data-name="Rectangle 26" width="0.742" height="2.225" transform="translate(58.496 80.069)" fill="#3f3d56"/>
      <path id="Path_10" data-name="Path 10" d="M417.456,504.424h-.742v-4.449h.742Zm0-8.9h-.742v-4.449h.742Zm0-8.9h-.742v-4.449h.742Zm0-8.9h-.742V473.28h.742Zm0-8.9h-.742v-4.449h.742Zm0-8.9h-.742v-4.449h.742Zm0-8.9h-.742v-4.449h.742Zm0-8.9h-.742v-4.449h.742Zm0-8.9h-.742v-4.449h.742Zm0-8.9h-.742V419.89h.742Z" transform="translate(-358.218 -326.001)" fill="#3f3d56"/>
      <path id="Path_11" data-name="Path 11" d="M129.309,371.241h-2.6v-2.6h.741V370.5h1.854Z" transform="translate(-68.218 -185.774)" fill="#3f3d56"/>
      <path id="Path_12" data-name="Path 12" d="M767.231,617.4h-4.469v-.742h4.469Zm-8.939,0h-4.47v-.742h4.47Zm-8.939,0h-4.47v-.742h4.47Zm-8.939,0h-4.469v-.742h4.469Zm-8.939,0h-4.47v-.742h4.47Zm-8.939,0h-4.469v-.742h4.469Zm-8.939,0h-4.47v-.742h4.47Zm-8.939,0h-4.469v-.742h4.469Zm-8.939,0h-4.47v-.742h4.47Zm-8.939,0h-4.47v-.742h4.469Zm-8.939,0h-4.47v-.742h4.47Zm-8.939,0h-4.469v-.742H668.9Zm-8.939,0h-4.47v-.742h4.47Zm-8.939,0h-4.469v-.742h4.469Zm-8.939,0h-4.47v-.742h4.47Zm-8.939,0h-4.469v-.742h4.469Zm-8.939,0h-4.47v-.742h4.47Zm-8.939,0H610.8v-.742h4.469Zm-8.939,0h-4.47v-.742h4.47Zm-8.939,0h-4.47v-.742h4.47Zm-8.939,0h-4.47v-.742h4.469Zm-8.939,0h-4.47v-.742h4.47Zm-8.939,0H566.1v-.742h4.47Zm-8.939,0h-4.47v-.742h4.47Zm-8.939,0h-4.47v-.742h4.47Zm-8.939,0h-4.47v-.742h4.47Zm-8.939,0h-4.47v-.742h4.47Zm-8.939,0h-4.47v-.742h4.47Zm-8.939,0h-4.47v-.742h4.47Zm-8.939,0h-4.47v-.742H508Zm-8.939,0h-4.47v-.742h4.47Zm-8.939,0h-4.469v-.742h4.469Zm-8.939,0h-4.47v-.742h4.469Zm-8.939,0h-4.47v-.742h4.47Zm-8.939,0h-4.47v-.742h4.47Zm-8.939,0H449.9v-.742h4.469Zm-8.939,0h-4.469v-.742h4.469Zm-8.939,0h-4.469v-.742h4.469Z" transform="translate(-366.458 -431.936)" fill="#3f3d56"/>
      <path id="Path_13" data-name="Path 13" d="M880.438,371.241h-2.6V370.5H879.7v-1.853h.742Z" transform="translate(-472.6 -185.774)" fill="#3f3d56"/>
      <path id="Path_14" data-name="Path 14" d="M1172.6,504.424h-.742v-4.449h.742Zm0-8.9h-.742v-4.449h.742Zm0-8.9h-.742v-4.449h.742Zm0-8.9h-.742V473.28h.742Zm0-8.9h-.742v-4.449h.742Zm0-8.9h-.742v-4.449h.742Zm0-8.9h-.742v-4.449h.742Zm0-8.9h-.742v-4.449h.742Zm0-8.9h-.742v-4.449h.742Zm0-8.9h-.742V419.89h.742Z" transform="translate(-764.761 -326.001)" fill="#3f3d56"/>
      <rect id="Rectangle_27" data-name="Rectangle 27" width="0.742" height="2.225" transform="translate(407.097 80.069)" fill="#3f3d56"/>
      <circle id="Ellipse_43" data-name="Ellipse 43" cx="7.415" cy="7.415" r="7.415" transform="translate(186.777 16.233)" fill="#a32100"/>
    </g>
    <g id="manage" transform="translate(740.403 334.021)">
      <path id="Path_34" data-name="Path 34" d="M560.374,304.471a84.026,84.026,0,0,1-12.155,43.688c0,16.111-7.511,30.714-19.694,41.357a67.353,67.353,0,0,1-9.81,7.111c-.14.088-.284.172-.428.256-.261.154-.521.307-.786.465l-.247.144h0a76.6,76.6,0,0,1-37.741,9.68H129.063q-4.188,0-8.3-.335a98.261,98.261,0,0,1-28.415-6.58q-2.662-1.052-5.221-2.262-1.219-.572-2.415-1.177c-.5-.251-1-.512-1.489-.772A87.221,87.221,0,0,1,67.183,385.16c-15.822-13.6-25.632-32.394-25.632-53.149A84,84,0,0,1,28,286.093c0-46.136,36.875-83.537,82.369-83.537,1.4,0,2.792.042,4.188.116a4.255,4.255,0,0,1,.6.028A141.918,141.918,0,0,1,145.4,167.044c33.618-28.806,82.751-46.964,137.482-46.964,45.987,0,88.023,12.821,120.222,34a81.057,81.057,0,0,1,40-10.494c45.484,0,82.369,37.4,82.369,83.537a86.042,86.042,0,0,1-.465,8.74A83.765,83.765,0,0,1,560.374,304.471Z" transform="translate(-28 -111.201)" fill="#fef8f7"/>
      <g id="Group_16" data-name="Group 16" transform="translate(36.969 163.22)" opacity="0.2">
        <path id="Path_35" data-name="Path 35" d="M155.832,713.116a5.538,5.538,0,0,1-.047.628q-2.662-1.052-5.221-2.262a4.235,4.235,0,0,1-2.415-1.177c-.5-.251-1-.512-1.489-.773a6.379,6.379,0,0,1,.377-.679,4.329,4.329,0,0,1,7.879.242A7.85,7.85,0,0,1,155.832,713.116Z" transform="translate(-128.409 -587.909)" fill="#3f3d56"/>
        <path id="Path_36" data-name="Path 36" d="M155.464,696a7.854,7.854,0,0,1-1.168,3.946,4.685,4.685,0,0,1-4.021,2.411l-.33-.023a4.235,4.235,0,0,1-2.415-1.177,5.83,5.83,0,0,1-1.112-1.452,8.167,8.167,0,0,1,.251-7.967,4.329,4.329,0,0,1,7.879.242A7.851,7.851,0,0,1,155.464,696Z" transform="translate(-127.789 -578.756)" fill="#3f3d56"/>
        <ellipse id="Ellipse_12" data-name="Ellipse 12" cx="6.52" cy="4.979" rx="6.52" ry="4.979" transform="translate(17.768 115.491) rotate(-88.19)" fill="#3f3d56"/>
        <ellipse id="Ellipse_13" data-name="Ellipse 13" cx="6.52" cy="4.979" rx="6.52" ry="4.979" transform="translate(18.017 107.523) rotate(-88.19)" fill="#3f3d56"/>
        <ellipse id="Ellipse_14" data-name="Ellipse 14" cx="6.52" cy="4.979" rx="6.52" ry="4.979" transform="translate(18.314 99.048) rotate(-88.282)" fill="#3f3d56"/>
        <path id="Path_37" data-name="Path 37" d="M113.969,489.81a23.108,23.108,0,0,1-1.768-2.792l13.151-1.736-14.156-.34a23.91,23.91,0,0,1,.144-18.912l18.67,10.447-17.1-13.426a23.864,23.864,0,1,1,38.551,27.922,23.791,23.791,0,0,1,2.583,4.435l-17.26,8.288,18.3-5.505a23.892,23.892,0,0,1-4.57,22.3,23.864,23.864,0,1,1-37.49-1.182,23.864,23.864,0,0,1,.931-29.495Z" transform="translate(-107.44 -451.737)" fill="rgba(163,33,0,0.5)"/>
        <path id="Path_38" data-name="Path 38" d="M156.1,567.684a23.762,23.762,0,0,1-5.584,14.584,23.864,23.864,0,1,1-37.49-1.182C109.967,576.931,156.182,565,156.1,567.684Z" transform="translate(-107.44 -513.519)" fill="#a32100" opacity="0.1"/>
      </g>
      <g transform="matrix(1, 0, 0, 1, 0, -122.65)" filter="url(#Path_39)">
        <path id="Path_39-2" data-name="Path 39" d="M573.26,229.567V452.56a8.567,8.567,0,0,1-8.567,8.567H222.567a8.439,8.439,0,0,1-2.364-.335,8.553,8.553,0,0,1-6.2-8.232V256.628a4.255,4.255,0,0,1,.6.028A141.92,141.92,0,0,1,244.844,221H564.692A8.567,8.567,0,0,1,573.26,229.567Z" transform="translate(-127.44 -42.5)" fill="#fff"/>
      </g>
      <rect id="Rectangle_38" data-name="Rectangle 38" width="64.141" height="16.734" rx="8.367" transform="translate(331.417 84.803)" fill="#fff" stroke="#a32100" stroke-width="1"/>
      <rect id="Rectangle_39" data-name="Rectangle 39" width="55.778" height="11.136" rx="5.568" transform="translate(335.596 87.6)" fill="#a32100" opacity="0.1"/>
      <rect id="Rectangle_40" data-name="Rectangle 40" width="20.141" height="9.917" rx="4.958" transform="translate(369.838 88.209)" fill="#a32100"/>
      <circle id="Ellipse_15" data-name="Ellipse 15" cx="3.099" cy="3.099" r="3.099" transform="translate(376.655 90.071)" fill="#fff"/>
      <rect id="Rectangle_41" data-name="Rectangle 41" width="64.141" height="16.734" rx="8.367" transform="translate(331.417 195.117)" fill="#fff" stroke="#a32100" stroke-width="1"/>
      <rect id="Rectangle_42" data-name="Rectangle 42" width="55.778" height="11.136" rx="5.568" transform="translate(335.596 197.914)" fill="#a32100" opacity="0.1"/>
      <rect id="Rectangle_43" data-name="Rectangle 43" width="20.141" height="9.917" rx="4.958" transform="translate(369.838 198.524)" fill="#6c63ff"/>
      <circle id="Ellipse_16" data-name="Ellipse 16" cx="3.099" cy="3.099" r="3.099" transform="translate(376.655 200.385)" fill="#fff"/>
      <rect id="Rectangle_44" data-name="Rectangle 44" width="64.141" height="16.734" rx="8.367" transform="translate(331.417 250.272)" fill="#fff" stroke="#a32100" stroke-width="1"/>
      <rect id="Rectangle_45" data-name="Rectangle 45" width="55.778" height="11.136" rx="5.568" transform="translate(335.596 253.073)" fill="#a32100" opacity="0.1"/>
      <rect id="Rectangle_46" data-name="Rectangle 46" width="20.141" height="9.917" rx="4.958" transform="translate(369.838 253.683)" fill="#a32100"/>
      <circle id="Ellipse_17" data-name="Ellipse 17" cx="3.099" cy="3.099" r="3.099" transform="translate(376.655 255.54)" fill="#fff"/>
      <g id="Group_18" data-name="Group 18" transform="translate(136.817 74.267)" opacity="0.049">
        <rect id="Rectangle_47" data-name="Rectangle 47" width="37.494" height="9.917" rx="4.958" fill="#14171e"/>
        <rect id="Rectangle_48" data-name="Rectangle 48" width="104.116" height="9.917" rx="4.958" transform="translate(0 13.942)" fill="#14171e"/>
        <rect id="Rectangle_49" data-name="Rectangle 49" width="104.116" height="9.917" rx="4.958" transform="translate(0 27.889)" fill="#14171e"/>
      </g>
      <g id="Group_17" data-name="Group 17" transform="translate(136.817 129.422)" opacity="0.805">
        <rect id="Rectangle_50" data-name="Rectangle 50" width="37.494" height="9.917" rx="4.958" fill="#a32100"/>
        <rect id="Rectangle_51" data-name="Rectangle 51" width="77.716" height="9.917" rx="4.958" transform="translate(0 13.947)" fill="#a32100"/>
        <rect id="Rectangle_52" data-name="Rectangle 52" width="104.116" height="9.917" rx="4.958" transform="translate(0 27.889)" fill="#a32100"/>
      </g>
      <rect id="Rectangle_53" data-name="Rectangle 53" width="37.494" height="9.917" rx="4.958" transform="translate(136.817 184.581)" fill="#f2f2f2"/>
      <rect id="Rectangle_54" data-name="Rectangle 54" width="104.116" height="9.917" rx="4.958" transform="translate(136.817 198.524)" fill="#f2f2f2"/>
      <rect id="Rectangle_55" data-name="Rectangle 55" width="64.685" height="9.917" rx="4.958" transform="translate(136.817 212.471)" fill="#f2f2f2"/>
      <g id="Group_19" data-name="Group 19" transform="translate(136.817 239.736)" opacity="0.053">
        <rect id="Rectangle_56" data-name="Rectangle 56" width="37.494" height="9.917" rx="4.958" fill="#14171e"/>
        <rect id="Rectangle_57" data-name="Rectangle 57" width="104.116" height="9.917" rx="4.958" transform="translate(0 13.947)" fill="#14171e"/>
        <rect id="Rectangle_58" data-name="Rectangle 58" width="83.765" height="9.917" rx="4.958" transform="translate(0 27.889)" fill="#14171e"/>
      </g>
      <line id="Line_3" data-name="Line 3" x2="303.416" transform="translate(120.994 120.99)" fill="none" stroke="#14171e" stroke-linecap="round" stroke-miterlimit="10" stroke-width="1" opacity="0.158"/>
      <line id="Line_4" data-name="Line 4" x2="303.416" transform="translate(120.994 177.066)" fill="none" stroke="#14171e" stroke-linecap="round" stroke-miterlimit="10" stroke-width="1" opacity="0.158"/>
      <line id="Line_5" data-name="Line 5" x2="303.416" transform="translate(120.994 233.142)" fill="none" stroke="#14171e" stroke-linecap="round" stroke-miterlimit="10" stroke-width="1" opacity="0.158"/>
      <ellipse id="Ellipse_18" data-name="Ellipse 18" cx="68.725" cy="4.886" rx="68.725" ry="4.886" transform="translate(301.239 315.046)" fill="#14171e" opacity="0.1"/>
      <rect id="Rectangle_59" data-name="Rectangle 59" width="64.141" height="16.734" rx="8.367" transform="translate(331.417 139.958)" fill="#14171e"/>
      <rect id="Rectangle_60" data-name="Rectangle 60" width="55.778" height="11.136" rx="5.568" transform="translate(335.596 142.759)" fill="#fff" opacity="0.201"/>
      <path id="Path_40" data-name="Path 40" d="M735.131,568.136c.731-.107,1.461-.256,2.178-.424a6.8,6.8,0,0,1-.614,2.066,9.013,9.013,0,0,1-3.383,2.992,1.047,1.047,0,0,0-1.322-.089c-1.54.931-2.769,2.243-4.4,3.043-.572.279-1.168.5-1.726.814A9.31,9.31,0,0,0,722.6,579.9a2.312,2.312,0,0,0-.386,2.387,2.067,2.067,0,0,0,.661.591,3.76,3.76,0,0,0,2.266.675c.465-.042.931-.219,1.438-.3.638-.111,1.289-.056,1.931-.111a11.305,11.305,0,0,0,2.718-.7l3.2-1.117a18.448,18.448,0,0,0,2.629-1.08c.507-.275.987-.6,1.5-.847a12.12,12.12,0,0,1,1.8-.633l1.815-.531a1.768,1.768,0,0,1,.819-.107c.251.046.465.2.721.27a2.179,2.179,0,0,0,1.163-.112l2.1-.6a3.966,3.966,0,0,0,1.252-.521c.963-.684,1.135-2.043,1.131-3.23a24.474,24.474,0,0,0-.6-5.342,1.661,1.661,0,0,0-.684.517,9.981,9.981,0,0,0-.693-.87,10.381,10.381,0,0,1-2.1-3.877,6.823,6.823,0,0,0,1.861-2.1c-1.112-4.239-2.252-8.544-4.514-12.286-.74-1.219-1.587-2.364-2.327-3.565-2.2-3.49-2.653-7.911-5.17-11.169a1.936,1.936,0,0,1,0-2.271c.289-.381.754-.74.666-1.215-.065-.34-.419-.651-.284-.968.065-.154.223-.237.344-.349.428-.4.372-1.075.414-1.661a8.087,8.087,0,0,1,1.819-3.984,2.449,2.449,0,0,1,.67-.726c.228-.14.5-.2.726-.344.8-.507.745-1.685,1.126-2.56.5-1.154,1.768-1.736,2.6-2.671,1.056-1.191,1.326-2.848,2.439-3.886a2.86,2.86,0,0,1,.367-.3,18.726,18.726,0,0,0-.656,5.421c-.107,6.3,1.457,12.811.726,19.08-.577,4.961,2.453,9.908,6.748,12.388a32.251,32.251,0,0,0,5.254,2.229c2.69.963,5.37,1.954,8.009,3.062q2.792,1.173,5.51,2.518a68.551,68.551,0,0,1,6.515,3.635c2.587,1.661,5.18,3.346,7.018,5.826a5.557,5.557,0,0,0,3.1-1.14c.707.558,1.564.982,2.229,1.6a6.728,6.728,0,0,1,1.768,3.472h-.279c.033.619.06,1.238.093,1.861a.791.791,0,0,1-.07.465.843.843,0,0,1-.251.228l-1.433.973c-1.042.7-2.192,1.591-2.248,2.853a1.452,1.452,0,0,0,.312,1.019,2.2,2.2,0,0,0,1.275.577,22.475,22.475,0,0,0,7.576.7,4.983,4.983,0,0,0,3.225-1.489,6.385,6.385,0,0,0,1.126-3.09c.312-1.861.572-3.765.777-5.654a12.5,12.5,0,0,1,.772-3.755.465.465,0,0,1,.2-.251c.107-.047.233,0,.344-.047s.186-.219.223-.358a22.2,22.2,0,0,0,.665-5.622,3.789,3.789,0,0,0-.219-1.447,2.922,2.922,0,0,0-1.992-1.536,15.851,15.851,0,0,0-2.574-.307,12.774,12.774,0,0,1-2.136-.391,1.955,1.955,0,0,0-.889-.116.623.623,0,0,0-.54.619.794.794,0,0,0,.112.3l-.726-.144c-.586-.107-1.4-.363-2.276-.577a4.076,4.076,0,0,1,.028-.465.879.879,0,0,0-.493-.8l-12.295-6.571-2.3-1.229c-5.035-2.694-10.238-5.184-15.287-7.879-.335.1-.614-.284-.712-.628s-.168-.754-.489-.908c-.158-.074-.368-.07-.465-.2a.554.554,0,0,1-.088-.414c.163-2.453,1.917-4.714,1.568-7.143-.149-1.038-.684-2.062-.465-3.081a14.576,14.576,0,0,1,.931-1.945c.6-1.5,0-3.3.661-4.765a11.031,11.031,0,0,0,.889-3.034,20.847,20.847,0,0,1,1.861-6.022,10.871,10.871,0,0,1,1.731-2.639c.368-.4.782-.759,1.135-1.173a9.8,9.8,0,0,0,1.768-4.654,22.259,22.259,0,0,0,.242-9.037,12.922,12.922,0,0,1-.572-3.039c0-1.238.5-2.657-.1-3.648a3.211,3.211,0,0,0,1.159-1.987,2.567,2.567,0,0,1,.163-.824,2.393,2.393,0,0,1,.777-.7,3.216,3.216,0,0,0,1.2-3.2c.638.289,1.308-.358,1.61-1s.531-1.4,1.177-1.685a9.689,9.689,0,0,1,1.4-.2c.74-.191,1.191-.931,1.713-1.475A13.2,13.2,0,0,1,784,474.444c4.123-2.1,7.483-5.417,10.773-8.684a36.47,36.47,0,0,0,4.654-5.24c.368-.544.7-1.108,1.019-1.685l.084-.042.028.1c.051.2.112.409.172.61.149.465.316.963.465,1.438a10.784,10.784,0,0,0,2.071,3.942,4.877,4.877,0,0,0,1.061.824,7.12,7.12,0,0,0,2.732.819c.363.047.731.074,1.1.093s.735.033,1.1.042l7.53.2c-2.587-3.751-2.792-8.628-2.62-13.193.433-11.727,2.718-23.561.6-35.1a9,9,0,0,0-1.447-3.914,8.038,8.038,0,0,0-4.737-2.587,28.46,28.46,0,0,1-5.314-1.364c-1.4-.638-2.68-1.661-4.188-2a9.224,9.224,0,0,0-3.351.056q-2.038.3-4.053.717l-.326.07h.014l-.223.051h-.061l-.2.047H790.8l-.186.051-.084.023-.172.056-.1.033-.158.051-.1.042-.149.056-.112.047-.135.06-.112.056-.126.061-.112.065-.116.065-.112.074-.107.07-.112.079-.093.074-.107.093-.088.079a1.1,1.1,0,0,0-.1.107l-.079.079a1.389,1.389,0,0,0-.1.13c0,.023-.042.046-.061.074s-.084.121-.126.191v.028a2.83,2.83,0,0,0-.256.554c-.033.1-.065.2-.088.293a4.444,4.444,0,0,0-.1.605,1.409,1.409,0,0,1-.023.312v.619a9.136,9.136,0,0,0,.116,1.042,11.341,11.341,0,0,0-.54,19.187,5.089,5.089,0,0,1,.037.554v.121a15.362,15.362,0,0,1-.2,1.964,27.3,27.3,0,0,0-5.584-.5c-1.117,0-2.243.1-3.369.191a50.808,50.808,0,0,1-3.369-4.561l-2.485-3.644a34.7,34.7,0,0,1-2.327-3.723c-.61-1.182-1.084-2.438-1.764-3.583-1.4-2.359-3.676-4.365-3.96-7.1l-.656.135c-.358-.586-.81-1.205-.977-1.545a30.5,30.5,0,0,1-2.066-6.05,9.3,9.3,0,0,0-.991-3.137,7.068,7.068,0,0,0-1.447-1.536,9.573,9.573,0,0,0-3.1-1.954,4.007,4.007,0,0,0-3.169.186,4.638,4.638,0,0,0-.465-.186,3.839,3.839,0,0,0-3.518.41,4.73,4.73,0,0,0-1.545,3.258,8.043,8.043,0,0,0,.828,4.942c.931,1.666,2.6,2.792,3.974,4.114a16.1,16.1,0,0,1,2.5,3.109,34.04,34.04,0,0,1-.191,7.544c-.177,1.07-.465,2.122-.549,3.2-.34,3.9,1.689,7.8.963,11.634a2.839,2.839,0,0,0,1.317,3.011,14.513,14.513,0,0,0,3.406.931c2.248.577,4.188,2.015,6.459,2.55,1.047.251,2.136.3,3.178.577l.163.051a7.571,7.571,0,0,0-1.671,3.174c-.465,1.954-.028,4.044-.493,6a13.374,13.374,0,0,1-2.285,4.379q-2.727,3.946-5.463,7.911a48.463,48.463,0,0,1-4.025,5.291c-2.508,2.741-6.836,4.914-8.111,8.209-.028-.079-.065-.158-.093-.237-1.806,1.326-2.48,3.8-3.918,5.515-.7.833-1.568,1.508-2.327,2.28a26.312,26.312,0,0,0-2.573,3.2,56.745,56.745,0,0,0-5.826,9.279c-.8,1.731-1.419,3.532-2.057,5.324-2.5,7.06-6.59,13.756-8.288,21.058-.414,1.782-1.5,3.392-1.661,5.217-.182,1.945.707,3.816,1.629,5.533,1.4,2.625,2.95,5.175,4.188,7.874.731,1.573,1.364,3.2,2.178,4.733.889,1.675,1.978,3.23,2.909,4.882A61.2,61.2,0,0,1,735.131,568.136Zm30.788-133.35-.223-.112a7.712,7.712,0,0,1-2.257-1.494c-2.006-2.141-2.867-5.366-3.495-8.246-.074-.344-.14-.684-.2-1.028a49.492,49.492,0,0,1,6.175,10.889Z" transform="translate(-397.664 -260.531)" fill="url(#linear-gradient)"/>
      <path id="Path_41" data-name="Path 41" d="M787.38,407.556a9.133,9.133,0,0,0-.987-3.113,7.052,7.052,0,0,0-1.452-1.526,9.651,9.651,0,0,0-3.109-1.941,3.881,3.881,0,0,0-3.518.4,4.7,4.7,0,0,0-1.55,3.258,7.944,7.944,0,0,0,.828,4.91c.954,1.657,2.6,2.764,3.984,4.086a16,16,0,0,1,2.6,3.258,9.413,9.413,0,0,0,1.182,1.731,2.252,2.252,0,0,0,1.861.749,3.258,3.258,0,0,0,1.522-.9c.568-.5,2.094-1.4,2.141-2.173.037-.638-1.154-2.08-1.447-2.681A30.429,30.429,0,0,1,787.38,407.556Z" transform="translate(-428.269 -261.246)" fill="#fbbebe"/>
      <path id="Path_42" data-name="Path 42" d="M787.38,407.556a9.133,9.133,0,0,0-.987-3.113,7.052,7.052,0,0,0-1.452-1.526,9.651,9.651,0,0,0-3.109-1.941,3.881,3.881,0,0,0-3.518.4,4.7,4.7,0,0,0-1.55,3.258,7.944,7.944,0,0,0,.828,4.91c.954,1.657,2.6,2.764,3.984,4.086a16,16,0,0,1,2.6,3.258,9.413,9.413,0,0,0,1.182,1.731,2.252,2.252,0,0,0,1.861.749,3.258,3.258,0,0,0,1.522-.9c.568-.5,2.094-1.4,2.141-2.173.037-.638-1.154-2.08-1.447-2.681A30.429,30.429,0,0,1,787.38,407.556Z" transform="translate(-428.269 -261.246)" opacity="0.1"/>
      <path id="Path_43" data-name="Path 43" d="M827.167,455.851a27.4,27.4,0,0,0-7.529-.931c-4.24.061-8.6,1.089-12.644-.214a22.061,22.061,0,0,1-3.025-1.289,7.717,7.717,0,0,1-2.262-1.484c-2.01-2.127-2.876-5.333-3.5-8.19a54.648,54.648,0,0,1-.954-8.716,6.672,6.672,0,0,1-3.3.87,2.428,2.428,0,0,1-2.327-2.136,35.345,35.345,0,0,1-.154,8.121c-.177,1.061-.465,2.108-.544,3.178-.344,3.876,1.689,7.748.963,11.569a2.792,2.792,0,0,0,1.317,2.988,14.784,14.784,0,0,0,3.411.931c2.248.572,4.188,2,6.469,2.536,1.047.247,2.141.293,3.183.572,1.485.4,2.839,1.247,4.356,1.512,1.135.2,2.327.065,3.458.163,1,.084,1.978.344,2.983.372a8.6,8.6,0,0,0,6.4-3.169C825.1,460.69,826.134,458.07,827.167,455.851Z" transform="translate(-435.867 -278.906)" fill="#f86d70"/>
      <path id="Path_44" data-name="Path 44" d="M827.167,455.851a27.4,27.4,0,0,0-7.529-.931c-4.24.061-8.6,1.089-12.644-.214a22.061,22.061,0,0,1-3.025-1.289,7.717,7.717,0,0,1-2.262-1.484c-2.01-2.127-2.876-5.333-3.5-8.19a54.648,54.648,0,0,1-.954-8.716,6.672,6.672,0,0,1-3.3.87,2.428,2.428,0,0,1-2.327-2.136,35.345,35.345,0,0,1-.154,8.121c-.177,1.061-.465,2.108-.544,3.178-.344,3.876,1.689,7.748.963,11.569a2.792,2.792,0,0,0,1.317,2.988,14.784,14.784,0,0,0,3.411.931c2.248.572,4.188,2,6.469,2.536,1.047.247,2.141.293,3.183.572,1.485.4,2.839,1.247,4.356,1.512,1.135.2,2.327.065,3.458.163,1,.084,1.978.344,2.983.372a8.6,8.6,0,0,0,6.4-3.169C825.1,460.69,826.134,458.07,827.167,455.851Z" transform="translate(-435.867 -278.906)" opacity="0.1"/>
      <path id="Path_45" data-name="Path 45" d="M873.293,737.625a6.372,6.372,0,0,1,2.173.679,5.118,5.118,0,0,1,1.889,2.55,22.128,22.128,0,0,1,1.27,7.962,17.142,17.142,0,0,1-.819,6.455,4.109,4.109,0,0,1-1.075,1.689,3.874,3.874,0,0,1-1.48.717,3.965,3.965,0,0,1-3.472-.428c-1.061-.828-1.326-2.294-1.55-3.62-.3-1.787-.731-3.69-2.062-4.924-.987-.931-2.4-1.4-3.118-2.522-.856-1.354-.4-3.123.14-4.63.465-1.308,1.168-3.956,2.536-4.626S871.873,737.369,873.293,737.625Z" transform="translate(-475.264 -440.877)" fill="#fbbebe"/>
      <path id="Path_46" data-name="Path 46" d="M757.723,749.523a10.307,10.307,0,0,0,2.131,3.96c.6.7,1.364,1.545,1.047,2.411a2.245,2.245,0,0,1-.572.768c-4.5,4.393-10.782,6.515-17.018,7.315a.6.6,0,0,1-.3,0c-.181-.079-.228-.312-.247-.512a6.289,6.289,0,0,1,0-1.959c.3-1.522,1.638-2.6,2.946-3.439s2.736-1.652,3.462-3.025c.907-1.7.526-3.923,1.606-5.519a5.756,5.756,0,0,1,4.053-2.094c.535-.084,1.675-.67,2.131-.4S757.565,748.988,757.723,749.523Z" transform="translate(-410.097 -446.354)" fill="#fbbebe"/>
      <path id="Path_47" data-name="Path 47" d="M875.247,737.613a.619.619,0,0,1,.54-.614,2.024,2.024,0,0,1,.889.112,12.326,12.326,0,0,0,2.136.4,15.849,15.849,0,0,1,2.578.3,2.917,2.917,0,0,1,2,1.522,3.777,3.777,0,0,1,.219,1.443,21.911,21.911,0,0,1-.665,5.584c-.037.14-.093.3-.228.354s-.233,0-.34.051a.419.419,0,0,0-.2.251,12.3,12.3,0,0,0-.777,3.723c-.2,1.861-.465,3.751-.777,5.612a6.166,6.166,0,0,1-1.126,3.071,5,5,0,0,1-3.23,1.48,22.762,22.762,0,0,1-7.585-.693,2.22,2.22,0,0,1-1.28-.572,1.438,1.438,0,0,1-.312-1.014c.056-1.252,1.21-2.136,2.248-2.834l1.438-.963a.744.744,0,0,0,.251-.228.778.778,0,0,0,.07-.465L871,752.267a5.273,5.273,0,0,1,4.593,2.857c.2.4.386.856.8,1.01a1.052,1.052,0,0,0,1.252-.758,3.225,3.225,0,0,0-.042-1.615c-.842-4.5-.642-9.126-1.154-13.672a3.084,3.084,0,0,0-.465-1.443C875.759,738.334,875.3,738.032,875.247,737.613Z" transform="translate(-476.604 -441.024)" fill="#f86d70"/>
      <rect id="Rectangle_61" data-name="Rectangle 61" width="20.141" height="9.917" rx="4.958" transform="translate(357.133 153.286) rotate(180)" fill="#a32100"/>
      <circle id="Ellipse_22" data-name="Ellipse 22" cx="3.099" cy="3.099" r="3.099" transform="translate(344.117 145.226)" fill="#fff"/>
      <path id="Path_48" data-name="Path 48" d="M736.672,768.287c-.209.349-.54.619-.735.977a.838.838,0,0,0,.158,1.094,1.081,1.081,0,0,0,.665.065,22.389,22.389,0,0,0,12.1-5.482,8.468,8.468,0,0,0,1.485-1.624c.4-.6.731-1.336,1.4-1.587a24.159,24.159,0,0,1,.624,5.328c0,1.182-.168,2.527-1.131,3.211a4.014,4.014,0,0,1-1.257.512l-2.1.6a2.237,2.237,0,0,1-1.168.112c-.247-.065-.465-.223-.721-.27a1.769,1.769,0,0,0-.819.107l-1.82.531a11.572,11.572,0,0,0-1.8.628c-.521.247-1,.563-1.508.838a18.052,18.052,0,0,1-2.634,1.07l-3.2,1.112a11.585,11.585,0,0,1-2.722.7c-.642.056-1.3,0-1.936.107a13.16,13.16,0,0,1-1.443.3,3.774,3.774,0,0,1-2.266-.67,2.107,2.107,0,0,1-.661-.586c-.465-.712-.06-1.652.386-2.373a9.384,9.384,0,0,1,3.258-3.341c.558-.307,1.159-.531,1.731-.81,1.633-.791,2.867-2.113,4.407-3.016C736.421,764.959,737.357,767.161,736.672,768.287Z" transform="translate(-400.629 -454.251)" fill="#f86d70"/>
      <path id="Path_49" data-name="Path 49" d="M846.69,481.459a13.3,13.3,0,0,0,5.659,2.2,23.048,23.048,0,0,0,3.2.172,81.381,81.381,0,0,0,13.323-1.112c-1.75-1.931-3.523-4-4.188-6.515a10.758,10.758,0,0,1-.2-4.081A30.718,30.718,0,0,1,865.728,467a36.123,36.123,0,0,1-5.631-.144c-1.066-.112-3.681-1.08-4.607-.344s-.214,3.1-.2,4.216a1.08,1.08,0,0,1,0,.121,13.463,13.463,0,0,1-1.075,4.924A9.28,9.28,0,0,1,846.69,481.459Z" transform="translate(-465.702 -296.272)" fill="#fbbebe"/>
      <path id="Path_50" data-name="Path 50" d="M864.864,470.687a11.2,11.2,0,0,0,9.191,1.4,30.722,30.722,0,0,1,1.247-5.119,36.12,36.12,0,0,1-5.631-.144c-1.066-.112-3.681-1.08-4.607-.344S864.851,469.575,864.864,470.687Z" transform="translate(-475.272 -296.251)" opacity="0.1"/>
      <circle id="Ellipse_23" data-name="Ellipse 23" cx="11.22" cy="11.22" r="11.22" transform="translate(384.515 153.304)" fill="#fbbebe"/>
      <path id="Path_51" data-name="Path 51" d="M776.09,529.5a5.226,5.226,0,0,0,2.531,4.5,10.1,10.1,0,0,0,2.746.968c5.119,1.238,10.387,2.234,15.659,1.931a8.6,8.6,0,0,0,3.323-.7,3.565,3.565,0,0,0,2.052-2.564,2.409,2.409,0,0,1,.158-.814,2.376,2.376,0,0,1,.777-.693,3.183,3.183,0,0,0,1.205-3.174c.638.289,1.308-.358,1.61-.991s.535-1.4,1.177-1.671a9.709,9.709,0,0,1,1.4-.2c.74-.191,1.191-.931,1.713-1.466a13.43,13.43,0,0,1,3.96-2.425c4.132-2.08,7.5-5.38,10.8-8.623a36.191,36.191,0,0,0,4.654-5.2,19.163,19.163,0,0,0,1.024-1.675,47.4,47.4,0,0,0,2.583-5.915,6.821,6.821,0,0,0,.67-3.388,1.531,1.531,0,0,0-.061-.312,6.516,6.516,0,0,0-1.019-2.057,8.611,8.611,0,0,0-4.6-3.779c-1.964-.521-3.918.107-5.915.531a14.831,14.831,0,0,1-2.006.307,18.844,18.844,0,0,1-6.245-.982l-2.224-.614c-1.112-.307-1.671-1.652-2.792-1.889a3.779,3.779,0,0,0-1.512.079,20.846,20.846,0,0,0-6.608,2.159,9.921,9.921,0,0,0-1.284.875,8.13,8.13,0,0,0-2.988,4.407c-.465,1.941-.028,4.016-.493,5.957a13.266,13.266,0,0,1-2.285,4.347l-5.482,7.851a48.457,48.457,0,0,1-4.03,5.249C781.632,522.741,776.169,525.152,776.09,529.5Z" transform="translate(-427.957 -308.209)" fill="#f86d70"/>
      <path id="Path_52" data-name="Path 52" d="M795.23,407.556a9.133,9.133,0,0,0-.987-3.113,7.056,7.056,0,0,0-1.452-1.526,9.654,9.654,0,0,0-3.109-1.941,3.881,3.881,0,0,0-3.518.4,4.7,4.7,0,0,0-1.55,3.258,7.944,7.944,0,0,0,.828,4.91c.931,1.657,2.6,2.764,3.983,4.086a16,16,0,0,1,2.6,3.258,9.406,9.406,0,0,0,1.182,1.731,2.252,2.252,0,0,0,1.862.749,3.257,3.257,0,0,0,1.522-.9c.568-.5,2.094-1.4,2.141-2.173.037-.638-1.154-2.08-1.447-2.681a30.441,30.441,0,0,1-2.052-6.064Z" transform="translate(-432.466 -261.246)" fill="#fbbebe"/>
      <path id="Path_53" data-name="Path 53" d="M720.914,629.163c1.4,2.606,2.95,5.119,4.211,7.818.731,1.568,1.363,3.179,2.178,4.7.889,1.661,1.982,3.206,2.913,4.844,2.327,4.142,3.644,8.814,4.849,13.416a26.709,26.709,0,0,0,9.549-3.36,5.991,5.991,0,0,0,.572-.368,6.755,6.755,0,0,0,1.927-2.127c-1.112-4.188-2.252-8.484-4.519-12.2-.74-1.21-1.587-2.327-2.327-3.541-2.2-3.467-2.657-7.837-5.175-11.08a1.9,1.9,0,0,1,0-2.252c.288-.377.754-.735.665-1.205-.065-.34-.419-.647-.284-.963.065-.154.223-.237.344-.349.428-.391.372-1.066.414-1.643a8.05,8.05,0,0,1,1.824-3.96,2.486,2.486,0,0,1,.67-.721c.228-.14.5-.2.726-.344.8-.5.745-1.671,1.131-2.541.5-1.145,1.768-1.727,2.6-2.653,1.056-1.182,1.322-2.825,2.439-3.858a3.3,3.3,0,0,1,.368-.3,18.473,18.473,0,0,0-.656,5.4c-.107,6.254,1.456,12.723.726,18.936-.577,4.924,2.457,9.838,6.757,12.3a32.709,32.709,0,0,0,5.263,2.215c2.69.954,5.38,1.936,8.018,3.039,1.861.773,3.723,1.61,5.519,2.5a67.955,67.955,0,0,1,6.515,3.611c2.592,1.647,5.189,3.323,7.027,5.784a6.3,6.3,0,0,0,4.542-2.5,17.517,17.517,0,0,0,2.485-4.7,13.068,13.068,0,0,0,1.182-4.435.885.885,0,0,0-.493-.8l-12.314-6.515-2.327-1.219c-5.04-2.676-10.238-5.152-15.306-7.823-.34.1-.619-.289-.717-.624s-.168-.754-.489-.9c-.163-.074-.368-.074-.465-.2a.558.558,0,0,1-.084-.41c.163-2.439,1.922-4.682,1.568-7.1-.149-1.033-.684-2.048-.465-3.057a14.219,14.219,0,0,1,.931-1.936c.6-1.489,0-3.257.661-4.733a10.858,10.858,0,0,0,.889-3.015,20.422,20.422,0,0,1,1.885-5.975,10.784,10.784,0,0,1,1.731-2.625c.372-.4.786-.754,1.136-1.163a9.713,9.713,0,0,0,1.773-4.6,21.971,21.971,0,0,0,.242-8.977,12.774,12.774,0,0,1-.572-3.02c0-1.354.61-2.941-.33-3.923a3.07,3.07,0,0,0-1.4-.707,42.067,42.067,0,0,0-6.678-1.233l-10.266-1.336a9.437,9.437,0,0,1-3.42-.889,6.82,6.82,0,0,1-2.885-3.686c-1.806,1.317-2.485,3.769-3.923,5.473-.7.833-1.568,1.5-2.327,2.266a25.651,25.651,0,0,0-2.578,3.179,56.464,56.464,0,0,0-5.84,9.214c-.8,1.717-1.4,3.509-2.057,5.286-2.508,7.013-6.6,13.668-8.3,20.913-.419,1.773-1.5,3.369-1.666,5.184C719.1,625.608,719.988,627.469,720.914,629.163Z" transform="translate(-397.575 -352.905)" fill="#651601"/>
      <path id="Path_54" data-name="Path 54" d="M836.779,567.5a3.186,3.186,0,0,1,.377,1.517c-.228-1.135-1.792-1.764-1.889-2.885-.047-.516.047-.493.368-.219C836.123,566.314,836.333,567.05,836.779,567.5Z" transform="translate(-459.589 -349.456)" opacity="0.1"/>
      <path id="Path_55" data-name="Path 55" d="M827.149,576.522a2.4,2.4,0,0,1,.712,1.052A2.675,2.675,0,0,1,828,579.4c-.228-.107-.307-.386-.377-.633a4.368,4.368,0,0,0-.465-1.084c-.186-.293-1.038-.991-1.029-1.312C826.116,575.889,826.921,576.35,827.149,576.522Z" transform="translate(-454.71 -355.037)" opacity="0.1"/>
      <path id="Path_56" data-name="Path 56" d="M827.14,491.677a11.741,11.741,0,0,0,2.364,1.573c2.224,1.126,4.686,1.717,6.924,2.792a33.559,33.559,0,0,1,3.211,1.861c2.22,1.4,4.435,2.792,6.65,4.211a7.33,7.33,0,0,1,1.466,1.112c.8.856.8,2.327,1.526,3.258a4.374,4.374,0,0,0,3.225,1.489,10.469,10.469,0,0,0,3.6-.605,17.766,17.766,0,0,0,2.057-.749,9.524,9.524,0,0,0,1.973-1.126,5.673,5.673,0,0,0,2.327-3.672,7.25,7.25,0,0,0-.4-3,11.679,11.679,0,0,0-.707-1.82,7.07,7.07,0,0,0-.568-.954c-1.526-2.164-4.216-3.183-6.818-3.69-1.373-.265-2.769-.428-4.146-.661a14.836,14.836,0,0,1-2.006.307,18.845,18.845,0,0,1-6.245-.982l-2.224-.614c-1.112-.307-1.671-1.652-2.792-1.889a3.779,3.779,0,0,0-1.512.079,20.844,20.844,0,0,0-6.608,2.159A9.91,9.91,0,0,0,827.14,491.677Z" transform="translate(-455.25 -308.161)" opacity="0.1"/>
      <path id="Path_57" data-name="Path 57" d="M806.321,431.36c.284,2.713,2.573,4.7,3.97,7.046.68,1.14,1.154,2.387,1.764,3.565a34.876,34.876,0,0,0,2.327,3.723l2.49,3.616a37.425,37.425,0,0,0,4.817,6.05c3.258.554,6,2.978,9.1,4.156,2.48.931,5.18,1.07,7.781,1.578s5.291,1.522,6.818,3.69a9.694,9.694,0,0,1,1.275,2.792,7.227,7.227,0,0,1,.4,2.992,5.673,5.673,0,0,1-2.327,3.676A12.9,12.9,0,0,1,840.7,476.1a10.581,10.581,0,0,1-3.6.605,4.393,4.393,0,0,1-3.23-1.489c-.726-.931-.721-2.415-1.522-3.258a7.329,7.329,0,0,0-1.466-1.112l-6.65-4.188a33.6,33.6,0,0,0-3.211-1.861c-2.238-1.094-4.7-1.685-6.925-2.792s-4.3-2.983-4.733-5.435c-1.354-7.534-6.571-13.886-11.029-20.108.144-.028.1-.363.154-.5a6.516,6.516,0,0,1,3.258-3.295A16.453,16.453,0,0,1,806.321,431.36Z" transform="translate(-439.853 -277.623)" fill="#f86d70"/>
      <path id="Path_58" data-name="Path 58" d="M865.975,425.5a4.128,4.128,0,0,1,.465-2.364c.74-1.229,2.285-1.661,3.69-1.95s2.7-.512,4.058-.707a9.355,9.355,0,0,1,3.355-.061c1.517.335,2.792,1.354,4.188,1.982a29.775,29.775,0,0,0,5.324,1.359,8.179,8.179,0,0,1,4.747,2.569,8.9,8.9,0,0,1,1.447,3.886c2.127,11.462-.163,23.217-.6,34.865-.172,4.533.032,9.377,2.625,13.1l-7.543-.2c-1.931-.051-4.007-.154-5.524-1.345a9.083,9.083,0,0,1-2.541-4.333,13.491,13.491,0,0,1-.968-3.886c-.116-2.736,1.438-5.421.931-8.116a9.148,9.148,0,0,0-3.406-4.956,31.482,31.482,0,0,1-4.574-4.072c-2.257-2.862-2.69-6.766-2.411-10.4a39.346,39.346,0,0,0,.368-6.482,8.156,8.156,0,0,0-1.708-4.542A6.4,6.4,0,0,1,865.975,425.5Z" transform="translate(-476.002 -271.708)" fill="#651601"/>
      <path id="Path_59" data-name="Path 59" d="M866.437,424.181c.726-1.21,2.234-1.647,3.616-1.931a3.569,3.569,0,0,0-1.792,1.4,4.188,4.188,0,0,0-.465,2.369,6.307,6.307,0,0,0,1.931,4.351,8.116,8.116,0,0,1,1.713,4.542,39.883,39.883,0,0,1-.368,6.482c-.284,3.63.149,7.539,2.411,10.4a30.562,30.562,0,0,0,4.575,4.072,9.068,9.068,0,0,1,3.407,4.956c.5,2.69-1.052,5.38-.931,8.116a13.262,13.262,0,0,0,.963,3.881,9.15,9.15,0,0,0,2.541,4.337c1.517,1.191,3.6,1.294,5.529,1.345l5.342.14c.116.2.242.391.372.582l-7.544-.2c-1.931-.051-4.007-.154-5.524-1.345a9.082,9.082,0,0,1-2.541-4.332,13.494,13.494,0,0,1-.968-3.886c-.116-2.736,1.438-5.422.931-8.116a9.148,9.148,0,0,0-3.406-4.956,31.487,31.487,0,0,1-4.575-4.072c-2.257-2.862-2.69-6.766-2.411-10.4a39.353,39.353,0,0,0,.368-6.483,8.159,8.159,0,0,0-1.708-4.542,6.331,6.331,0,0,1-1.936-4.351A4.127,4.127,0,0,1,866.437,424.181Z" transform="translate(-475.998 -272.752)" opacity="0.1"/>
      <path id="Path_60" data-name="Path 60" d="M745.22,654.455l13.859,33.762a6.758,6.758,0,0,0,1.927-2.127c-1.112-4.188-2.252-8.484-4.519-12.2-.74-1.21-1.587-2.327-2.327-3.541-2.2-3.467-2.657-7.837-5.175-11.08a1.9,1.9,0,0,1,0-2.252c.289-.377.754-.735.665-1.205-.065-.34-.419-.647-.284-.963.065-.154.223-.237.344-.349.428-.391.372-1.066.414-1.643a8.052,8.052,0,0,1,1.824-3.96,2.484,2.484,0,0,1,.67-.721c.228-.14.5-.2.726-.344.8-.5.745-1.671,1.131-2.541.5-1.145,1.768-1.727,2.6-2.653,1.056-1.182,1.322-2.825,2.438-3.858l.1-.242-1.047-6.515Z" transform="translate(-411.453 -384.903)" opacity="0.1"/>
      <ellipse id="Ellipse_24" data-name="Ellipse 24" cx="15.799" cy="3.039" rx="15.799" ry="3.039" transform="translate(438.883 303.798)" fill="#a32100"/>
      <ellipse id="Ellipse_25" data-name="Ellipse 25" cx="1.838" cy="2.406" rx="1.838" ry="2.406" transform="translate(453.109 303.137)" fill="#d7d2d6"/>
      <ellipse id="Ellipse_26" data-name="Ellipse 26" cx="1.838" cy="2.406" rx="1.838" ry="2.406" transform="translate(453.109 300.196)" fill="#d7d2d6"/>
      <ellipse id="Ellipse_27" data-name="Ellipse 27" cx="1.838" cy="2.406" rx="1.838" ry="2.406" transform="translate(453.109 297.25)" fill="#d7d2d6"/>
      <ellipse id="Ellipse_28" data-name="Ellipse 28" cx="1.838" cy="2.406" rx="1.838" ry="2.406" transform="translate(453.109 294.309)" fill="#d7d2d6"/>
      <ellipse id="Ellipse_29" data-name="Ellipse 29" cx="1.838" cy="2.406" rx="1.838" ry="2.406" transform="translate(453.109 291.363)" fill="#d7d2d6"/>
      <ellipse id="Ellipse_30" data-name="Ellipse 30" cx="1.838" cy="2.406" rx="1.838" ry="2.406" transform="translate(453.109 288.422)" fill="#d7d2d6"/>
      <ellipse id="Ellipse_31" data-name="Ellipse 31" cx="1.838" cy="2.406" rx="1.838" ry="2.406" transform="translate(453.109 285.481)" fill="#d7d2d6"/>
      <path id="Path_61" data-name="Path 61" d="M988.655,659.931a8.744,8.744,0,0,1-.684-1.01l4.831-.8-5.226.042a8.841,8.841,0,0,1-.168-6.98l7.013,3.635-6.469-4.751a8.814,8.814,0,1,1,14.552,9.861,8.551,8.551,0,0,1,1.005,1.606l-6.273,3.257,6.692-2.243a8.88,8.88,0,0,1,.465,2.825,8.772,8.772,0,0,1-1.889,5.449,8.809,8.809,0,1,1-13.849,0A8.814,8.814,0,0,1,988.655,659.931Z" transform="translate(-540.594 -392.185)" fill="#a32100" opacity="0.198"/>
      <path id="Path_62" data-name="Path 62" d="M1004.393,687.9a8.772,8.772,0,0,1-1.889,5.449,8.809,8.809,0,1,1-13.849,0C987.473,691.853,1004.393,686.915,1004.393,687.9Z" transform="translate(-540.594 -414.711)" fill="#a32100" opacity="0.1"/>
      <ellipse id="Ellipse_32" data-name="Ellipse 32" cx="10.624" cy="2.043" rx="10.624" ry="2.043" transform="translate(474.828 271.046)" fill="#a32100"/>
      <ellipse id="Ellipse_33" data-name="Ellipse 33" cx="1.238" cy="1.619" rx="1.238" ry="1.619" transform="translate(484.396 270.604)" fill="#d7d2d6"/>
      <ellipse id="Ellipse_34" data-name="Ellipse 34" cx="1.238" cy="1.619" rx="1.238" ry="1.619" transform="translate(484.396 268.626)" fill="#d7d2d6"/>
      <ellipse id="Ellipse_35" data-name="Ellipse 35" cx="1.238" cy="1.619" rx="1.238" ry="1.619" transform="translate(484.396 266.643)" fill="#d7d2d6"/>
      <ellipse id="Ellipse_36" data-name="Ellipse 36" cx="1.238" cy="1.619" rx="1.238" ry="1.619" transform="translate(484.396 264.665)" fill="#d7d2d6"/>
      <ellipse id="Ellipse_37" data-name="Ellipse 37" cx="1.238" cy="1.619" rx="1.238" ry="1.619" transform="translate(484.396 262.688)" fill="#d7d2d6"/>
      <ellipse id="Ellipse_38" data-name="Ellipse 38" cx="1.238" cy="1.619" rx="1.238" ry="1.619" transform="translate(484.396 260.71)" fill="#d7d2d6"/>
      <ellipse id="Ellipse_39" data-name="Ellipse 39" cx="1.238" cy="1.619" rx="1.238" ry="1.619" transform="translate(484.396 258.727)" fill="#d7d2d6"/>
      <path id="Path_63" data-name="Path 63" d="M1060.139,620.294a5.127,5.127,0,0,1-.465-.679l3.258-.535-3.514.028a5.871,5.871,0,0,1-.545-2.476,5.953,5.953,0,0,1,.428-2.22l4.719,2.448-4.351-3.2a5.924,5.924,0,1,1,9.773,6.631,5.842,5.842,0,0,1,.675,1.08l-4.216,2.192,4.5-1.512a5.942,5.942,0,0,1-.954,5.584,5.929,5.929,0,1,1-9.307,0,5.915,5.915,0,0,1,0-7.325Z" transform="translate(-579.136 -373.484)" fill="#a32100" opacity="0.203"/>
      <path id="Path_64" data-name="Path 64" d="M1070.728,639.129a5.921,5.921,0,0,1-1.266,3.662,5.929,5.929,0,1,1-9.307,0C1059.354,641.782,1070.728,638.464,1070.728,639.129Z" transform="translate(-579.147 -388.658)" fill="#a32100" opacity="0.1"/>
      <circle id="Ellipse_40" data-name="Ellipse 40" cx="10.066" cy="10.066" r="10.066" transform="translate(22.752 55.634)" fill="#a32100" opacity="0.1"/>
      <circle id="Ellipse_41" data-name="Ellipse 41" cx="10.066" cy="10.066" r="10.066" transform="translate(64.704)" fill="#a32100" opacity="0.1"/>
      <circle id="Ellipse_42" data-name="Ellipse 42" cx="16.869" cy="16.869" r="16.869" transform="translate(54.489 31.417)" fill="#a32100" opacity="0.1"/>
    </g>
  </g>
</svg>
