<svg width="38" height="28" viewBox="0 0 38 28" fill="none" xmlns="http://www.w3.org/2000/svg">
<path d="M3.99699 0.665039C3.55977 0.664821 3.12679 0.750749 2.72278 0.917915C2.31878 1.08508 1.95167 1.33021 1.64243 1.6393C1.33319 1.94838 1.08787 2.31537 0.920506 2.71929C0.753137 3.12321 0.666992 3.55615 0.666992 3.99337V22.3284H3.99533C3.97809 22.9958 4.09467 23.66 4.3382 24.2817C4.58172 24.9034 4.94726 25.4701 5.41326 25.9483C5.87925 26.4264 6.43628 26.8065 7.05149 27.066C7.66669 27.3255 8.32763 27.4592 8.99533 27.4592C9.66302 27.4592 10.324 27.3255 10.9392 27.066C11.5544 26.8065 12.1114 26.4264 12.5774 25.9483C13.0434 25.4701 13.4089 24.9034 13.6525 24.2817C13.896 23.66 14.0126 22.9958 13.9953 22.3284H24.0003C24.0003 23.6547 24.5272 24.9267 25.465 25.8645C26.4029 26.8023 27.6749 27.3292 29.0012 27.3292C30.3275 27.3292 31.5994 26.8023 32.5373 25.8645C33.4751 24.9267 34.002 23.6547 34.002 22.3284H37.3287V13.995L32.3337 7.32837H27.3387V0.666706L3.99699 0.665039ZM15.667 4.00004L22.332 10.6667L15.667 17.3317V12.3334H5.66533V9.00004H15.667V4.00004ZM27.3387 9.83004H31.5053L34.7753 13.9967H27.3387V9.83004ZM9.00032 19.83C9.32863 19.83 9.65372 19.8947 9.95703 20.0203C10.2603 20.146 10.5359 20.3301 10.7681 20.5623C11.0002 20.7944 11.1844 21.07 11.31 21.3733C11.4357 21.6766 11.5003 22.0017 11.5003 22.33C11.5003 22.6583 11.4357 22.9834 11.31 23.2867C11.1844 23.5901 11.0002 23.8657 10.7681 24.0978C10.5359 24.33 10.2603 24.5141 9.95703 24.6397C9.65372 24.7654 9.32863 24.83 9.00032 24.83C8.33728 24.83 7.7014 24.5666 7.23256 24.0978C6.76372 23.629 6.50033 22.9931 6.50033 22.33C6.50033 21.667 6.76372 21.0311 7.23256 20.5623C7.7014 20.0934 8.33728 19.83 9.00032 19.83ZM28.9937 19.83C30.3803 19.83 31.5037 20.9534 31.5037 22.33C31.5037 22.6592 31.4387 22.9851 31.3124 23.2891C31.1861 23.593 31.0011 23.8691 30.7679 24.1014C30.5347 24.3336 30.2579 24.5176 29.9534 24.6426C29.649 24.7677 29.3228 24.8314 28.9937 24.83C28.3306 24.83 27.6947 24.5666 27.2259 24.0978C26.757 23.629 26.4937 22.9931 26.4937 22.33C26.4937 21.667 26.757 21.0311 27.2259 20.5623C27.6947 20.0934 28.3306 19.83 28.9937 19.83Z" fill="#501100"/>
</svg>
