<svg width="40" height="32" viewBox="0 0 40 32" fill="none" xmlns="http://www.w3.org/2000/svg">
<path d="M24 20H16C14.8956 20 14 20.8956 14 22V30C14 31.1044 14.8956 32 16 32H24C25.1044 32 26 31.1044 26 30V22C26 20.8956 25.1044 20 24 20ZM12 2C12 0.895625 11.1044 0 10 0H2C0.895625 0 0 0.895625 0 2V10C0 11.1044 0.895625 12 2 12H7.9825L12.555 20.0025C13.2488 18.8113 14.525 18 16 18H16.0175L12 10.9694V8H26V4H12V2ZM38 0H30C28.8956 0 28 0.895625 28 2V10C28 11.1044 28.8956 12 30 12H38C39.1044 12 40 11.1044 40 10V2C40 0.895625 39.1044 0 38 0Z" fill="#C30712"/>
</svg>
