<svg width="40" height="31" viewBox="0 0 40 31" fill="none" xmlns="http://www.w3.org/2000/svg">
<path d="M38.695 0H1.30435C0.583975 0 0 0.584054 0 1.30435V7.79808H39.9994V1.30435C39.9994 0.584054 39.4154 0 38.695 0ZM25.178 5.63811C24.2191 5.63811 23.4389 4.85797 23.4389 3.899C23.4389 2.94003 24.2191 2.15989 25.178 2.15989C26.137 2.15989 26.9172 2.94003 26.9172 3.899C26.9172 4.85797 26.137 5.63811 25.178 5.63811ZM29.9156 5.63811C28.9567 5.63811 28.1765 4.85797 28.1765 3.899C28.1765 2.94003 28.9567 2.15989 29.9156 2.15989C30.8746 2.15989 31.6547 2.94003 31.6547 3.899C31.6547 4.85797 30.8746 5.63811 29.9156 5.63811ZM34.6532 5.63811C33.6942 5.63811 32.9141 4.85797 32.9141 3.899C32.9141 2.94003 33.6942 2.15989 34.6532 2.15989C35.6122 2.15989 36.3923 2.94003 36.3923 3.899C36.3923 4.85797 35.6122 5.63811 34.6532 5.63811Z" fill="white"/>
<path d="M0 10.4067V29.13C0 29.8503 0.583975 30.4344 1.30435 30.4344H38.6951C39.4154 30.4344 39.9995 29.8504 39.9995 29.13V10.4067H0ZM17.421 25.7329C17.421 26.4532 16.837 27.0373 16.1166 27.0373H6.71669C5.99639 27.0373 5.41234 26.4533 5.41234 25.7329V15.1082C5.41234 14.3879 5.99631 13.8039 6.71669 13.8039H16.1166C16.8369 13.8039 17.421 14.3878 17.421 15.1082V25.7329ZM33.2827 26.6204H22.2156C21.4953 26.6204 20.9112 26.0364 20.9112 25.316C20.9112 24.5957 21.4952 24.0117 22.2156 24.0117H33.2826C34.0029 24.0117 34.587 24.5957 34.587 25.316C34.587 26.0364 34.0031 26.6204 33.2827 26.6204ZM33.2827 21.7248H22.2156C21.4953 21.7248 20.9112 21.1409 20.9112 20.4205C20.9112 19.7001 21.4952 19.1161 22.2156 19.1161H33.2826C34.0029 19.1161 34.587 19.7001 34.587 20.4205C34.587 21.1409 34.0031 21.7248 33.2827 21.7248ZM33.2827 16.8294H22.2156C21.4953 16.8294 20.9112 16.2454 20.9112 15.525C20.9112 14.8046 21.4952 14.2207 22.2156 14.2207H33.2826C34.0029 14.2207 34.587 14.8046 34.587 15.525C34.587 16.2454 34.0031 16.8294 33.2827 16.8294Z" fill="white"/>
</svg>
