<svg width="30" height="40" viewBox="0 0 30 40" fill="none" xmlns="http://www.w3.org/2000/svg">
<path d="M11.271 25.0229V27.4398C11.271 29.2515 12.7397 30.7202 14.5514 30.7202C16.3631 30.7202 17.8318 29.2515 17.8318 27.4398V24.8862C17.6635 24.9552 17.5196 25.0209 17.3609 25.0807C17.3287 25.9813 16.5905 26.6953 15.6892 26.6973H12.9411C12.0178 26.695 11.271 25.9459 11.271 25.0229Z" fill="white"/>
<path d="M21.171 7.62779C20.9167 7.68825 20.6585 7.54434 20.576 7.29627L20.529 7.15532C19.8167 5.48522 18.6424 4.19659 17.1323 3.42808C15.5529 2.62441 13.6893 2.469 11.8848 2.99043C8.87383 3.86047 6.3958 5.868 5.08449 8.49882C4.31138 10.0697 3.94733 11.8098 4.02553 13.5587C4.19671 17.6999 6.29558 21.574 9.50139 23.8569C8.86824 23.3582 8.31231 22.7687 7.85199 22.1073C6.89883 20.7441 6.38922 19.1203 6.39251 17.4575V16.1172C6.39251 15.7414 6.69216 15.4338 7.06804 15.4243C7.49123 15.3839 13.9009 14.6699 17.5052 8.07333C17.6044 7.88933 17.8075 7.78682 18.0145 7.8154C18.7814 7.92547 19.5124 8.20902 20.1531 8.64404C21.7552 9.70925 22.685 11.5246 22.6558 13.4999L22.6262 14.2375V17.3615C22.6371 19.1151 22.0854 20.8262 21.0524 22.2433C20.7784 22.6261 20.4745 22.9865 20.1443 23.3217C20.2169 23.252 20.2905 23.1807 20.3644 23.1068C22.1492 21.3237 23.4559 19.463 24.2477 17.5728C25.3086 15.0405 25.3612 12.3289 24.3962 9.93793C23.8485 8.58129 22.7136 7.26177 21.171 7.62779Z" fill="white"/>
<path d="M12.943 22.9961H15.655C16.021 22.9961 16.3177 23.2928 16.3177 23.6588V25.025C16.3177 25.391 16.021 25.6877 15.655 25.6877H12.943C12.577 25.6877 12.2803 25.391 12.2803 25.025V23.6588C12.2803 23.2928 12.577 22.9961 12.943 22.9961Z" fill="white"/>
<path d="M28.135 12.8186H26.4954V11.9713C26.4954 5.37006 21.1526 0 14.5515 0C7.95027 0 2.60749 5.37006 2.60749 11.9713V12.8186H0.968279C0.441591 12.8186 0 13.2868 0 13.8132V18.9214C0.00624275 19.4527 0.436991 19.8808 0.968279 19.8841H3.61684V11.9713C3.61684 5.92665 8.50686 1.00935 14.5515 1.00935C20.5961 1.00935 25.4861 5.92698 25.4861 11.9716V19.8841H28.135C28.6663 19.8808 29.0967 19.4527 29.1029 18.9214V13.8132C29.1029 13.2868 28.6613 12.8186 28.135 12.8186Z" fill="white"/>
<path d="M21.6195 27.7905H18.8185C18.6194 30.012 16.7581 31.7139 14.5278 31.7139C12.2978 31.7139 10.4365 30.012 10.2374 27.7905H7.48372C4.23947 27.7905 1.59814 30.4627 1.59814 33.707V39.2298H27.5048V33.707C27.5048 30.4627 24.8638 27.7905 21.6195 27.7905Z" fill="white"/>
<path d="M26.4954 21.015V19.9681H25.4861V21.015C25.489 21.767 25.1903 22.4886 24.6574 23.0192C24.1242 23.5495 23.401 23.8442 22.6489 23.8373H19.564C19.6902 23.7315 19.8101 23.6178 19.9225 23.4976C19.7933 23.6244 19.6524 23.7381 19.5009 23.8373H17.6008C20.0733 22.6305 21.6346 20.1127 21.6169 17.3616V14.2301L21.6468 13.4852C21.6704 11.8546 20.9187 10.3593 19.6038 9.48464C19.1812 9.19944 18.7104 8.99343 18.2143 8.87646C14.6539 15.0706 8.74767 16.2182 7.40187 16.4006V17.4576C7.39924 18.9141 7.84576 20.3361 8.68031 21.5298C9.35124 22.481 10.2393 23.2581 11.271 23.7963V23.6878C11.271 22.7659 12.0192 21.9868 12.9411 21.9868H15.6892C16.6112 21.9868 17.3271 22.7659 17.3271 23.6878V23.8373H16.8225V24.8467H22.6489C23.6684 24.8532 24.6485 24.4521 25.3707 23.7325C26.0932 23.013 26.498 22.0345 26.4954 21.015Z" fill="white"/>
</svg>
