<svg width="47" height="33" viewBox="0 0 47 33" fill="none" xmlns="http://www.w3.org/2000/svg">
<path d="M23.4669 16.1192C25.9712 16.1192 28.0015 14.0889 28.0015 11.5845C28.0015 9.08011 25.9712 7.0498 23.4669 7.0498C20.9625 7.0498 18.9326 9.08011 18.9326 11.5845C18.9434 14.0889 20.9737 16.1192 23.4669 16.1192Z" fill="white"/>
<path d="M39.7957 3.14469C39.1557 2.96799 38.4937 2.94601 37.8429 3.02315C37.0155 3.13348 36.2983 3.5748 36.2983 3.5748C34.9524 4.3471 34.0918 5.75939 34.0254 7.3152C35.4157 7.11652 38.3506 6.33301 39.7957 3.14469Z" fill="white"/>
<path d="M39.3651 6.41016C38.6036 7.13807 37.721 7.72289 36.7504 8.14223C35.9449 8.48399 35.0955 8.72706 34.2236 8.84816C34.8085 10.7457 36.5625 12.0477 38.5596 12.0477C40.5895 12.0697 42.388 10.7237 42.9288 8.75981C41.2515 8.3185 40.0603 7.23762 39.3651 6.41016Z" fill="white"/>
<path d="M40.3916 5.21844C40.8881 5.84722 41.7927 6.77381 43.0834 7.19315C42.9951 5.88041 42.3331 4.67757 41.285 3.89449L41.1967 3.82812C40.9652 4.30262 40.6894 4.7879 40.3916 5.21844Z" fill="white"/>
<path d="M15.082 24.6471V31.8848C15.082 32.1274 15.2807 32.3261 15.5233 32.3261H22.9485V26.6554L20.2455 17.8511C17.2003 18.7005 15.082 21.4807 15.082 24.6471Z" fill="white"/>
<path d="M16.4169 18.2373C15.6666 16.0859 13.9233 14.4198 11.7499 13.7578L9.04688 23.5551V28.2001H13.5372V24.6472C13.5372 22.198 14.5853 19.8591 16.4169 18.2373ZM13.129 20.521H11.6948C11.2647 20.521 10.9225 20.1789 10.9225 19.7487C10.9225 19.3186 11.2647 18.9764 11.6948 18.9764H13.129C13.5591 18.9764 13.9013 19.3186 13.9013 19.7487C13.9013 20.1789 13.5591 20.521 13.129 20.521Z" fill="white"/>
<path d="M41.9032 13.7358L40.6232 19.2303C40.447 19.9914 39.9061 20.6202 39.167 20.896V28.2001H46.559C46.8016 28.2001 47.0003 28.0014 47.0003 27.7588V20.5211C47.0003 17.3655 44.9153 14.6073 41.9032 13.7358ZM43.9111 20.852H42.0355C41.6054 20.852 41.2632 20.5098 41.2632 20.0797C41.2632 19.6496 41.6054 19.3074 42.0355 19.3074H43.9111C44.3412 19.3074 44.6834 19.6496 44.6834 20.0797C44.6834 20.5098 44.3412 20.852 43.9111 20.852Z" fill="white"/>
<path d="M27.1523 17.9946L24.4932 26.6554V32.3261H31.4219C31.6645 32.3261 31.8632 32.1275 31.8632 31.8848V24.6471C31.8632 21.6575 29.9656 18.9876 27.1523 17.9946ZM29.2373 25.2651H27.3617C26.9316 25.2651 26.5894 24.9229 26.5894 24.4928C26.5894 24.0627 26.9316 23.7205 27.3617 23.7205H29.2373C29.6674 23.7205 30.0096 24.0627 30.0096 24.4928C30.0096 24.9229 29.6674 25.2651 29.2373 25.2651Z" fill="white"/>
<path d="M0 20.5094V27.7583C0 28.001 0.198678 28.1996 0.441315 28.1996H7.50235V23.5546L4.82128 13.8237C1.94196 14.7835 0 17.4753 0 20.5094Z" fill="white"/>
<path d="M9.73124 13.46H7.05017C6.80753 13.46 6.5761 13.4712 6.34424 13.4931L8.28619 20.5322L10.2277 13.4712C10.0515 13.4712 9.89673 13.46 9.73124 13.46Z" fill="white"/>
<path d="M24.8129 17.5972H22.1322C22.0107 17.5972 21.9004 17.5972 21.79 17.6084L23.7208 23.9079L25.6403 17.6411C25.3645 17.6084 25.0887 17.5972 24.8129 17.5972Z" fill="white"/>
<path d="M36.1658 19.2191L34.919 13.8682C32.8779 14.5965 31.2669 16.207 30.5498 18.2481C32.3702 19.8703 33.4076 22.198 33.4076 24.6364V28.1889H37.622V20.8852C36.8937 20.6094 36.3421 19.9806 36.1658 19.2191Z" fill="white"/>
<path d="M39.9504 13.46H37.2694C36.9823 13.46 36.7065 13.4819 36.4199 13.5151L37.6663 18.8773C37.7439 19.219 38.0305 19.4729 38.3834 19.4841H38.4386C38.7696 19.4509 39.0346 19.2083 39.1006 18.8773L40.3586 13.4819C40.237 13.4712 40.0935 13.46 39.9504 13.46Z" fill="white"/>
<path d="M8.38482 12.048C10.8784 12.048 12.8643 10.0513 12.9195 7.50252C12.9195 4.99815 10.8784 2.96784 8.37362 2.97905C5.86924 2.97905 3.83937 5.02013 3.85014 7.5245C3.86135 10.0181 5.89122 12.048 8.38482 12.048Z" fill="white"/>
<path d="M37.8429 2.53756C37.8429 1.98592 38.2843 1.5446 38.8359 1.5446C39.3875 1.5446 39.8289 1.98592 39.8289 2.53756C39.8289 2.53756 39.8289 2.89052 39.7957 3.14437C40.2482 3.28788 40.8106 3.5525 41.186 3.81754C41.186 3.81754 41.2299 3.8503 41.2743 3.88348L41.3735 3.96063V2.53756C41.3735 1.13647 40.237 0 38.8359 0C37.4348 0 36.2983 1.13647 36.2983 2.53756V3.57448C36.7616 3.30986 37.2913 3.12239 37.8429 3.03404V2.53756Z" fill="white"/>
<path d="M37.8429 3.03418C37.2913 3.12253 36.7616 3.31 36.2983 3.57462C36.7728 3.2988 37.3025 3.11132 37.8429 3.03418Z" fill="white"/>
</svg>
