<svg width="29" height="40" viewBox="0 0 29 40" fill="none" xmlns="http://www.w3.org/2000/svg">
<path fill-rule="evenodd" clip-rule="evenodd" d="M27.093 40H1.34627L2.34763 38.2338H5.58511C5.60518 38.2338 5.62024 38.2158 5.62024 38.1952V36.4238C5.62024 36.4032 5.60518 36.3852 5.58511 36.3852H3.28876L3.22601 36.3697L4.51097 33.7874H7.36698V31.9388H5.08568L5.07564 31.9877C3.23103 28.051 2.82447 27.3584 1.9511 25.1545C-2.34546 14.3024 -0.244864 -2.13422 15.3427 0.229316L15.5811 0.249913C16.8184 0.360623 22.5204 0.865256 24.0111 0.942495L21.3559 5.30396C21.6169 5.60262 21.7951 5.95792 22.2795 6.65823C23.4816 8.39355 26.172 13.427 27.4218 15.5691C29.1509 18.53 29.3517 17.3945 28.5436 21.635C27.8735 25.1288 27.7003 23.9213 26.0389 24.2895C23.2256 24.9125 23.0951 24.2251 21.2655 21.7843C20.6482 20.963 20.4549 20.9527 19.4109 20.6592C17.5788 20.1468 13.601 17.7833 12.2985 15.8523C11.8317 15.1597 11.6184 14.6216 11.5381 14.0835C11.5381 14.0835 11.4628 13.7488 11.277 13.6124C10.9508 13.3755 10.0072 13.3884 10.09 14.3152C10.3359 15.5408 11.0738 17.0289 12.7427 18.5274C14.9939 20.5408 18.5275 21.9259 18.8588 22.1654C19.1976 22.4125 19.1875 22.6752 19.4661 23.2107C20.8565 25.8651 23.2858 28.499 23.9584 31.9388H23.4615H21.3333C21.3132 31.9388 21.2957 31.9568 21.2957 31.9774V33.6844V33.7487C21.2957 33.7693 21.3132 33.7874 21.3333 33.7874H24.0488L25.2032 36.3852H24.5331H22.8291C22.8491 36.3852 22.8642 36.4032 22.8642 36.4238V38.1952C22.8642 38.2132 22.8517 38.2286 22.8366 38.2312H26.0364L27.093 40Z" fill="white"/>
</svg>
