<svg width="14" height="19" viewBox="0 0 14 19" fill="none" xmlns="http://www.w3.org/2000/svg">
<path d="M6.67969 0C2.99651 0 0 2.99651 0 6.67969C0 7.92411 0.344709 9.13855 0.997092 10.1922L6.29946 18.7369C6.40103 18.9005 6.57997 19 6.77242 19C6.77391 19 6.77536 19 6.77684 19C6.97096 18.9985 7.15027 18.8959 7.24998 18.7294L12.4172 10.1019C13.0336 9.07057 13.3594 7.88719 13.3594 6.67969C13.3594 2.99651 10.3629 0 6.67969 0ZM11.4618 9.53036L6.764 17.3741L1.94331 9.60561C1.40029 8.72864 1.10586 7.71689 1.10586 6.67969C1.10586 3.61037 3.61037 1.10586 6.67969 1.10586C9.749 1.10586 12.2498 3.61037 12.2498 6.67969C12.2498 7.68613 11.9748 8.67202 11.4618 9.53036Z" fill="#7E7E7E"/>
<path d="M6.67969 3.33984C4.8381 3.33984 3.33984 4.8381 3.33984 6.67969C3.33984 8.50951 4.81372 10.0195 6.67969 10.0195C8.56867 10.0195 10.0195 8.4894 10.0195 6.67969C10.0195 4.8381 8.52128 3.33984 6.67969 3.33984ZM6.67969 8.91367C5.44554 8.91367 4.4457 7.91049 4.4457 6.67969C4.4457 5.45196 5.45196 4.4457 6.67969 4.4457C7.90741 4.4457 8.90996 5.45196 8.90996 6.67969C8.90996 7.89253 7.93339 8.91367 6.67969 8.91367Z" fill="#7E7E7E"/>
</svg>
