<svg width="17" height="17" viewBox="0 0 17 17" fill="none" xmlns="http://www.w3.org/2000/svg">
<path d="M7.48643 0C3.35853 0 0 3.35853 0 7.48643C0 11.6146 3.35853 14.9729 7.48643 14.9729C11.6146 14.9729 14.9729 11.6146 14.9729 7.48643C14.9729 3.35853 11.6146 0 7.48643 0ZM7.48643 13.5908C4.12054 13.5908 1.38211 10.8524 1.38211 7.48647C1.38211 4.12057 4.12054 1.38211 7.48643 1.38211C10.8523 1.38211 13.5908 4.12054 13.5908 7.48643C13.5908 10.8523 10.8523 13.5908 7.48643 13.5908Z" fill="#7E7E7E"/>
<path d="M16.7976 15.8203L12.8355 11.8582C12.5656 11.5883 12.1283 11.5883 11.8584 11.8582C11.5884 12.128 11.5884 12.5657 11.8584 12.8354L15.8204 16.7975C15.9554 16.9324 16.1321 16.9999 16.309 16.9999C16.4857 16.9999 16.6626 16.9324 16.7976 16.7975C17.0676 16.5277 17.0676 16.09 16.7976 15.8203Z" fill="#7E7E7E"/>
</svg>
