<svg width="24" height="15" viewBox="0 0 24 15" fill="none" xmlns="http://www.w3.org/2000/svg">
<path d="M11.9999 3.03418C10.1153 3.03418 8.58218 4.49066 8.58218 6.28098C8.58218 8.0713 10.1154 9.52778 11.9999 9.52778C13.8844 9.52778 15.4176 8.07126 15.4176 6.28098C15.4176 4.4907 13.8844 3.03418 11.9999 3.03418ZM11.9999 8.08479C10.9528 8.08479 10.1012 7.27549 10.1012 6.28102C10.1012 5.28629 10.9528 4.47725 11.9999 4.47725C13.047 4.47725 13.8986 5.28629 13.8986 6.28102C13.8986 7.27576 13.047 8.08479 11.9999 8.08479Z" fill="#7E7E7E"/>
<path d="M12 8.06104C9.19415 8.06104 6.91139 10.2296 6.91139 12.8952V13.9775C6.91139 14.376 7.25138 14.699 7.6709 14.699C8.09039 14.699 8.43042 14.376 8.43042 13.9775V12.8952C8.43042 11.0252 10.0317 9.50406 12 9.50406C13.9684 9.50406 15.5696 11.0255 15.5696 12.8952V13.9775C15.5696 14.376 15.9096 14.699 16.3291 14.699C16.7486 14.699 17.0887 14.376 17.0887 13.9775V12.8952C17.0886 10.2296 14.8058 8.06104 12 8.06104Z" fill="#7E7E7E"/>
<path d="M18.9113 0.845703C17.0267 0.845703 15.4936 2.30223 15.4936 4.09251C15.4936 5.88279 17.0268 7.33931 18.9113 7.33931C20.7961 7.33931 22.329 5.88279 22.329 4.09251C22.329 2.30223 20.7958 0.845703 18.9113 0.845703ZM18.9113 5.89628C17.8642 5.89628 17.0126 5.08724 17.0126 4.09251C17.0126 3.09777 17.8642 2.28873 18.9113 2.28873C19.9584 2.28873 20.81 3.09777 20.81 4.09251C20.81 5.08724 19.9584 5.89628 18.9113 5.89628Z" fill="#7E7E7E"/>
<path d="M18.9113 5.87207C16.584 5.87207 14.5531 7.37067 13.9734 9.51667C13.8691 9.90244 14.1139 10.2957 14.5199 10.3948C14.9263 10.4948 15.3399 10.2615 15.4443 9.87555C15.8518 8.36781 17.2777 7.31514 18.9114 7.31514C20.8797 7.31514 22.481 8.83659 22.481 10.7063V11.7886C22.481 12.1871 22.821 12.5101 23.2405 12.5101C23.66 12.5101 24 12.1871 23.9999 11.7886V10.7062C23.9999 8.04073 21.7171 5.87207 18.9113 5.87207Z" fill="#7E7E7E"/>
<path d="M5.08863 0.845703C3.20407 0.845703 1.67094 2.30223 1.67094 4.09251C1.67094 5.88279 3.20412 7.33931 5.08863 7.33931C6.97318 7.33931 8.50632 5.88279 8.50632 4.09251C8.50632 2.30223 6.97318 0.845703 5.08863 0.845703ZM5.08863 5.89628C4.04154 5.89628 3.18992 5.08724 3.18992 4.09251C3.18992 3.09777 4.04154 2.28873 5.08863 2.28873C6.13572 2.28873 6.98734 3.09777 6.98734 4.09251C6.98734 5.08724 6.13572 5.89628 5.08863 5.89628Z" fill="#7E7E7E"/>
<path d="M10.0015 9.49311C9.4253 7.36128 7.40504 5.87256 5.08859 5.87256C2.28276 5.87251 0 8.04118 0 10.7067V11.789C0 12.1875 0.339983 12.5105 0.759512 12.5105C1.17899 12.5105 1.51902 12.1875 1.51902 11.789V10.7067C1.51902 8.83699 3.12027 7.31554 5.08863 7.31554C6.71139 7.31554 8.12659 8.35837 8.53013 9.8519C8.63443 10.2377 9.04683 10.4695 9.45469 10.3714C9.86096 10.2723 10.1058 9.87888 10.0015 9.49311Z" fill="#7E7E7E"/>
</svg>
