<svg width="44" height="44" viewBox="0 0 44 44" fill="none" xmlns="http://www.w3.org/2000/svg">
<path d="M17.875 10.3128C17.875 11.8927 18.8004 13.3536 20.2331 14.035L20.625 14.222V20.6253H23.375V14.222L23.7669 14.0356C25.1996 13.3536 26.125 11.8927 26.125 10.3128C26.125 9.13239 25.6087 8.01864 24.75 7.24658V11.6878H19.25V7.24658C18.3913 8.01864 17.875 9.13239 17.875 10.3128Z" fill="white"/>
<path d="M33 13.75V8.25H30.4954C30.3497 7.79762 30.1675 7.35831 29.9523 6.93687L31.7226 5.16656L27.8334 1.27806L26.0631 3.04769C25.6417 2.83181 25.2024 2.65031 24.75 2.50456V0H19.25V2.50456C18.7976 2.651 18.3583 2.8325 17.9369 3.04837L16.1666 1.27806L12.2774 5.16656L14.0477 6.93687C13.8325 7.35831 13.6503 7.79762 13.5046 8.25H11V13.75H13.5046C13.6503 14.2024 13.8325 14.6417 14.0477 15.0631L12.2774 16.8334L16.1666 20.7219L17.9369 18.9516C18.3583 19.1675 18.7976 19.349 19.25 19.4954V15.07C17.5663 14.0937 16.5 12.2719 16.5 10.3125C16.5 8.20531 17.7334 6.25694 19.6419 5.34806L20.625 4.88125V10.3125H23.375V4.88125L24.3581 5.34875C26.2666 6.25694 27.5 8.20531 27.5 10.3125C27.5 12.2719 26.4337 14.0937 24.75 15.07V19.4961C25.2024 19.3497 25.6417 19.1682 26.0631 18.9523L27.8334 20.7226L31.7226 16.8341L29.9523 15.0638C30.1675 14.6424 30.3497 14.2031 30.4954 13.7507H33V13.75Z" fill="white"/>
<path d="M30.25 28.875H25.3192C25.0353 28.0747 24.2715 27.5 23.375 27.5H22.6875V23.375H21.3125V27.5H20.625C19.7285 27.5 18.9647 28.0747 18.6807 28.875H13.75V30.25H18.6807C18.9647 31.0502 19.7285 31.625 20.625 31.625H23.375C24.2715 31.625 25.0353 31.0502 25.3192 30.25H30.25V28.875Z" fill="white"/>
<path d="M9.84839 27.973C8.0822 27.973 6.36276 27.3508 5.00632 26.2206L4.06651 25.4375H3.8142C3.72414 25.8459 3.69114 26.268 3.72139 26.6915L3.94414 29.8072C4.03214 31.0372 4.77051 32.0836 5.80589 32.6184L5.18439 33.5912L8.25614 36.2237L11.3499 33.6456L10.6933 32.6184C11.7287 32.0836 12.4671 31.0365 12.5551 29.8072L12.727 27.4024C11.8071 27.7805 10.8377 27.973 9.84839 27.973Z" fill="white"/>
<path d="M10.7652 37.8322L10.5081 36.2915L9.48096 37.0615L10.7652 37.8322Z" fill="white"/>
<path d="M5.88643 25.1646C7.65468 26.6392 10.2005 27.0105 12.3462 26.0714L12.736 25.9043L12.7456 25.7702C12.6205 24.8889 12.2293 24.0549 11.6147 23.3949C10.789 22.5081 9.62093 22 8.40956 22H8.08918C6.87781 22 5.70975 22.5081 4.88406 23.3949C4.69087 23.6026 4.52037 23.8274 4.37256 24.0646C4.51212 24.0762 4.6455 24.1306 4.75412 24.2213L5.88643 25.1646Z" fill="white"/>
<path d="M13.0096 34.2344L12.7744 34.167L12.815 34.2158L11.7095 35.1371L12.3661 39.0744C12.4101 39.3391 12.2966 39.6044 12.0752 39.755C11.9584 39.8354 11.8229 39.8753 11.6875 39.8753C11.5651 39.8753 11.4427 39.843 11.3334 39.777L8.25 37.9269L5.16656 39.777C5.05725 39.843 4.93487 39.8753 4.8125 39.8753C4.67706 39.8753 4.54162 39.8354 4.42544 39.7557C4.20406 39.6051 4.09062 39.3398 4.13462 39.0751L4.8015 35.0745L3.73862 34.1636L3.49044 34.2344C1.4355 34.8208 0 36.7238 0 38.8613V44.0003H16.5V38.8613C16.5 36.7238 15.0652 34.8208 13.0096 34.2344Z" fill="white"/>
<path d="M7.0196 37.0615L5.99248 36.2915L5.73535 37.8322L7.0196 37.0615Z" fill="white"/>
<path d="M37.3487 27.973C35.5825 27.973 33.8631 27.3508 32.5066 26.2206L31.5668 25.4375H31.3152C31.2251 25.8459 31.1921 26.268 31.2224 26.6915L31.4451 29.8072C31.5331 31.0372 32.2715 32.0836 33.3069 32.6184L32.6854 33.5912L35.7571 36.2237L38.8509 33.6456L38.1943 32.6184C39.2297 32.0836 39.9681 31.0365 40.0561 29.8072L40.2279 27.4024C39.3074 27.7805 38.338 27.973 37.3487 27.973Z" fill="white"/>
<path d="M38.2652 37.8322L38.0081 36.2915L36.981 37.0615L38.2652 37.8322Z" fill="white"/>
<path d="M33.3864 25.1646C35.1547 26.6392 37.7005 27.0105 39.8462 26.0714L40.236 25.9043L40.2456 25.7702C40.1205 24.8889 39.7293 24.0549 39.1147 23.3949C38.289 22.5081 37.1209 22 35.9096 22H35.5892C34.3778 22 33.2097 22.5081 32.3841 23.3949C32.1909 23.6026 32.0204 23.8274 31.8726 24.0646C32.0121 24.0762 32.1455 24.1306 32.2541 24.2213L33.3864 25.1646Z" fill="white"/>
<path d="M40.5096 34.2344L40.2744 34.167L40.315 34.2158L39.2095 35.1371L39.8661 39.0744C39.9101 39.3391 39.7966 39.6044 39.5752 39.755C39.4584 39.8354 39.3229 39.8753 39.1875 39.8753C39.0651 39.8753 38.9427 39.843 38.8334 39.777L35.75 37.9269L32.6666 39.777C32.5572 39.843 32.4349 39.8753 32.3125 39.8753C32.1771 39.8753 32.0416 39.8354 31.9254 39.7557C31.7041 39.6051 31.5906 39.3398 31.6346 39.0751L32.3015 35.0745L31.2386 34.1636L30.9904 34.2344C28.9355 34.8208 27.5 36.7238 27.5 38.8613V44.0003H44V38.8613C44 36.7238 42.5652 34.8208 40.5096 34.2344Z" fill="white"/>
<path d="M34.5196 37.0615L33.4925 36.2915L33.2354 37.8322L34.5196 37.0615Z" fill="white"/>
</svg>
