<svg width="47" height="35" viewBox="0 0 47 35" fill="none" xmlns="http://www.w3.org/2000/svg">
<path d="M42.5726 0H4.59772C2.46439 0 0.890625 1.58717 0.890625 3.72789V33.8154C0.890625 34.2112 1.04854 34.7622 1.44262 34.7622H45.7277C46.1221 34.7622 46.6049 34.2112 46.6049 33.8154V3.72789C46.6045 1.58717 44.7063 0 42.5726 0ZM8.15339 2.52421C8.42128 2.2554 8.89936 2.2554 9.16436 2.52421C9.29992 2.6606 9.37491 2.84331 9.37491 3.03325C9.37491 3.21957 9.29992 3.40191 9.16436 3.53831C9.03204 3.67036 8.846 3.74598 8.66104 3.74598C8.47139 3.74598 8.28571 3.67036 8.15376 3.53831C8.0218 3.40191 7.9468 3.21957 7.9468 3.03325C7.94608 2.84295 8.02108 2.65699 8.15339 2.52421ZM5.93894 2.52421C6.20322 2.25938 6.68202 2.2554 6.9463 2.52421C7.08186 2.65699 7.15686 2.84331 7.15686 3.02927C7.15686 3.21921 7.08186 3.40589 6.9463 3.53795C6.81398 3.67 6.63154 3.74959 6.44262 3.74959C6.25334 3.74959 6.0709 3.67 5.93894 3.53795C5.80338 3.40589 5.72839 3.21921 5.72839 3.02927C5.72839 2.84295 5.80302 2.65699 5.93894 2.52421ZM3.74937 2.52421C4.01401 2.2554 4.49281 2.2554 4.76033 2.52421C4.89265 2.65699 4.96764 2.84331 4.96764 3.02927C4.96764 3.21921 4.89265 3.40155 4.76033 3.53795C4.62476 3.67 4.44233 3.74561 4.25341 3.74561C4.06737 3.74561 3.88169 3.67 3.74937 3.53795C3.61741 3.40589 3.53917 3.21921 3.53917 3.02927C3.53917 2.84295 3.61741 2.65699 3.74937 2.52421ZM45.1764 33.3288H2.31909V6.09218H45.1764V33.3288Z" fill="white"/>
<path d="M32.2472 16.801C32.1676 16.801 32.0882 16.8032 32.01 16.8061C31.1505 14.9313 29.3002 13.7337 27.2263 13.7337C26.3704 13.7337 25.5332 13.9425 24.78 14.3394C23.9133 12.5203 22.0518 11.3242 20.023 11.3242C17.1181 11.3242 14.7552 13.6961 14.7552 16.6111C14.7552 16.6751 14.7566 16.7395 14.7591 16.805C14.6942 16.8024 14.6297 16.801 14.5659 16.801C11.6613 16.801 9.29834 19.1722 9.29834 22.0868C9.29834 24.9232 11.5856 27.3949 14.4058 27.4807C14.4227 27.4832 14.44 27.5954 14.4573 27.5954H32.3561C32.3734 27.5954 32.3907 27.4829 32.4073 27.4807C35.2275 27.3953 37.5155 24.9789 37.5155 22.1421C37.5151 19.2275 35.1521 16.801 32.2472 16.801Z" fill="white"/>
</svg>
